<svg id="Layer_1" data-name="Layer 1" xmlns="http://www.w3.org/2000/svg" width="2.48in" height="0.77in" viewBox="0 0 178.35 55.5">
  <defs>
    <style>
      .cls-1 {
        fill: none;
      }

      .cls-1, .cls-2 {
        stroke: #010101;
        stroke-miterlimit: 10;
      }

      .cls-2 {
        fill: #010101;
      }
    </style>
  </defs>
  <g>
    <g>
      <path class="cls-1" d="M44.38,24.92a15.51,15.51,0,0,1,6-1.2V31a7.93,7.93,0,0,0-3.13.64,8.38,8.38,0,0,0-2.56,1.76A7.82,7.82,0,0,0,43,36a7.26,7.26,0,0,0-.63,2.86V55H35V23.68h7.36V26A13.32,13.32,0,0,1,44.38,24.92Z"/>
      <path class="cls-1" d="M57.24,50.4a15.11,15.11,0,0,1-4.63-11.06,14.93,14.93,0,0,1,4.63-11,15.48,15.48,0,0,1,22.08,0,14.94,14.94,0,0,1,4.6,11,15.12,15.12,0,0,1-4.6,11.06,15.55,15.55,0,0,1-22.08,0Z"/>
      <path class="cls-1" d="M117.46,55H107.9L95.28,39.67V55H87.91V.5h7.37V32.18l8.46-8.5h10.39L101.8,36Z"/>
      <path class="cls-1" d="M127.58,55a16.21,16.21,0,0,1-5.73-1.07,16,16,0,0,1-5.06-3.23,15.33,15.33,0,0,1-3.56-5.07,14.82,14.82,0,0,1-1.37-5.72v-.5a15.72,15.72,0,0,1,4.27-10.8,14.58,14.58,0,0,1,5.09-3.56,15.27,15.27,0,0,1,5.9-1.37h.33a15.29,15.29,0,0,1,5.73,1.1A15.46,15.46,0,0,1,138.24,28c1.8,1.7,3.47,4.5,5.07,8.43l-21,9.23a11,11,0,0,0,2.2,1.3,8.66,8.66,0,0,0,3,.56h.34a9.24,9.24,0,0,0,3-.7A8.75,8.75,0,0,0,133.48,45a10.08,10.08,0,0,0,1.67-2.63L142.07,45a15.8,15.8,0,0,1-3.19,5.07A16.09,16.09,0,0,1,128.05,55Z"/>
      <path class="cls-1" d="M162.32,23.68a14.82,14.82,0,0,1,11,4.57,14.84,14.84,0,0,1,4.57,11V55h-7.4V39.24a8.15,8.15,0,0,0-16.29,0V55h-7.39V39.24a15.59,15.59,0,0,1,15.55-15.56Z"/>
    </g>
    <polyline class="cls-2" points="0.21 24.77 28.83 38.39 28.63 38.69 0.28 50.07"/>
  </g>
</svg>
