<svg id="Layer_1" data-name="Layer 1" xmlns="http://www.w3.org/2000/svg" width="43.27" height="43.27" viewBox="0 0 43.27 43.27">
  <path d="M62.27,46.84a11.05,11.05,0,0,0,.56-3.55,13.59,13.59,0,0,0-4.46-9.89,14.09,14.09,0,0,0-9-4.35,9.58,9.58,0,0,0-1.26-.76,11.38,11.38,0,0,1,7-2.28,13.4,13.4,0,0,1,7.22,2.14l3.9-3.76a24.12,24.12,0,0,0-6.86-1,20.34,20.34,0,0,0-12.51,4.36,11.05,11.05,0,0,0-3.55-.56,13.59,13.59,0,0,0-9.89,4.46,14.19,14.19,0,0,0-4.35,9,9.58,9.58,0,0,0-.76,1.26,11.38,11.38,0,0,1-2.28-7,13.4,13.4,0,0,1,2.14-7.22l-3.76-3.9a24.12,24.12,0,0,0-1,6.86,20.34,20.34,0,0,0,4.36,12.51,11.05,11.05,0,0,0-.56,3.55,13.59,13.59,0,0,0,4.46,9.89,14.17,14.17,0,0,0,9,4.35,9.14,9.14,0,0,0,1.27.77,11.38,11.38,0,0,1-7,2.28,13.4,13.4,0,0,1-7.22-2.14l-3.9,3.76a24.12,24.12,0,0,0,6.86,1,20.34,20.34,0,0,0,12.51-4.36,11.05,11.05,0,0,0,3.55.56,13.59,13.59,0,0,0,9.89-4.46,14.17,14.17,0,0,0,4.35-9,9.14,9.14,0,0,0,.77-1.27,11.38,11.38,0,0,1,2.28,7,13.4,13.4,0,0,1-2.14,7.22l3.76,3.9a24.12,24.12,0,0,0,1-6.86A20.34,20.34,0,0,0,62.27,46.84ZM47,50A23.64,23.64,0,0,1,42,49.38a16,16,0,0,0,2.32-1.26c.19-.13.36-.28.55-.41a18.51,18.51,0,0,0,2.34,1.75v.08c0,.16,0,.31,0,.47ZM43,40a23.15,23.15,0,0,1,5.08.64,15.27,15.27,0,0,0-2.34,1.26c-.19.12-.35.27-.54.4a17.82,17.82,0,0,0-2.34-1.75v-.07c0-.17,0-.32,0-.48Zm0,2.1a10.17,10.17,0,0,1,1.26.91c-.28.23-.54.48-.81.73A8.1,8.1,0,0,1,43,42.08Zm.78,4.52a8.38,8.38,0,0,1-1.65.45A11.11,11.11,0,0,1,43,45.78C43.23,46.07,43.48,46.33,43.73,46.6Zm.2-1.78a8.42,8.42,0,0,1,1.25-.9,8.15,8.15,0,0,1,.89,1.25,8.33,8.33,0,0,1-1.24.9A7.19,7.19,0,0,1,43.93,44.82Zm2.67,1.45a8.1,8.1,0,0,1,.45,1.64A9.23,9.23,0,0,1,45.79,47C46.07,46.77,46.33,46.52,46.6,46.27Zm-.32-2.87A8,8,0,0,1,47.91,43a11.86,11.86,0,0,1-.9,1.26C46.78,43.92,46.52,43.66,46.28,43.4ZM40,47A23.08,23.08,0,0,1,40.62,42a15.18,15.18,0,0,0,1.26,2.33c.13.19.27.36.41.54a18,18,0,0,0-1.76,2.35h-.07l-.48,0ZM50,43A23.47,23.47,0,0,1,49.38,48a16,16,0,0,0-1.26-2.32c-.13-.19-.27-.36-.41-.54a18.51,18.51,0,0,0,1.75-2.34h.08l.47,0Zm-.91-6a24.5,24.5,0,0,0-4.47-1.17,9.09,9.09,0,0,1,.84-.79,9,9,0,0,1,2.21-1.31A14.31,14.31,0,0,1,49.1,37ZM35.78,45.37a9.09,9.09,0,0,1-.79-.84,9.31,9.31,0,0,1-1.32-2.21A14.16,14.16,0,0,1,37,40.89,24.6,24.6,0,0,0,35.78,45.37ZM40.89,53a24.6,24.6,0,0,0,4.48,1.17,9.09,9.09,0,0,1-.84.79,9.18,9.18,0,0,1-2.22,1.32A14.39,14.39,0,0,1,40.89,53Zm13.32-8.41a9.09,9.09,0,0,1,.79.84,9.31,9.31,0,0,1,1.32,2.21A14.15,14.15,0,0,1,53,49.1,24.5,24.5,0,0,0,54.21,44.63Zm6.15-4.15a9,9,0,0,1-.5,3.06A8.31,8.31,0,0,0,58.76,42a7.18,7.18,0,0,0-4.23-2.34,14.85,14.85,0,0,0-1.77-6.79A8,8,0,0,1,58,35.05,7.12,7.12,0,0,1,60.36,40.48ZM35.05,32a7.12,7.12,0,0,1,5.43-2.36,9,9,0,0,1,3.05.5A7.75,7.75,0,0,0,42,31.23a7.18,7.18,0,0,0-2.34,4.23,14.85,14.85,0,0,0-6.79,1.77A8.07,8.07,0,0,1,35.05,32ZM29.64,49.51a8.93,8.93,0,0,1,.5-3A7.75,7.75,0,0,0,31.23,48a7.18,7.18,0,0,0,4.23,2.34,14.89,14.89,0,0,0,1.76,6.78A8,8,0,0,1,32,54.94,7.12,7.12,0,0,1,29.64,49.51ZM54.94,58a7.12,7.12,0,0,1-5.43,2.36,9.05,9.05,0,0,1-3.06-.5A8.06,8.06,0,0,0,48,58.76a7.18,7.18,0,0,0,2.34-4.23,14.89,14.89,0,0,0,6.78-1.76A8,8,0,0,1,54.94,58Z" transform="translate(-23.37 -23.37)"/>
</svg>
