<svg id="Layer_1" data-name="Layer 1" xmlns="http://www.w3.org/2000/svg" width="2.18in" height="1.16in" viewBox="0 0 156.99 83.68">
  <defs>
    <style>
      .cls-1 {
        fill: #010101;
      }

      .cls-1, .cls-2 {
        stroke: #010101;
        stroke-miterlimit: 10;
      }

      .cls-2 {
        fill: none;
      }
    </style>
  </defs>
  <g>
    <g>
      <path class="cls-1" d="M139.86,14.16h8.29V17h-8.29Z"/>
      <path class="cls-1" d="M156.49,1.12V22.31H153.6V5.78l-2,1.94-2-2.07,4.61-4.53Z"/>
    </g>
    <g>
      <path class="cls-2" d="M59.18,55H51.82V.5h7.36Z"/>
      <path class="cls-2" d="M87.12,52.66a15.73,15.73,0,0,1-24-13.32,15,15,0,0,1,4.63-11,15.52,15.52,0,0,1,22.12,0,14.92,14.92,0,0,1,4.6,11V55h-7.4Z"/>
      <path class="cls-2" d="M102,52.46a8.84,8.84,0,0,1-3.2-7h7.27a2,2,0,0,0,1.43,1.93,3.78,3.78,0,0,0,1.43.3,4.94,4.94,0,0,0,2.2-.4,1.54,1.54,0,0,0,1-1.3,1.68,1.68,0,0,0-.46-1.39,5.26,5.26,0,0,0-3.1-1.07A11.94,11.94,0,0,1,101,40.11a8.72,8.72,0,0,1-2.44-6A10.31,10.31,0,0,1,101.18,27a9.54,9.54,0,0,1,7.59-3.33,10.37,10.37,0,0,1,10.73,10.7h-7.26c0-2.27-1.13-3.4-3.47-3.4q-3,0-3,3.1c0,1.26,1.19,2,3.59,2.33,3.83.43,6.6,1.76,8.26,4A8.94,8.94,0,0,1,119.37,46a7.92,7.92,0,0,1-3.07,6.43A11.33,11.33,0,0,1,108.94,55,10.4,10.4,0,0,1,102,52.46Z"/>
      <path class="cls-2" d="M127,52.46a8.83,8.83,0,0,1-3.19-7h7.26a2,2,0,0,0,1.43,1.93,3.82,3.82,0,0,0,1.43.3,4.94,4.94,0,0,0,2.2-.4,1.56,1.56,0,0,0,1-1.3,1.68,1.68,0,0,0-.47-1.39,5.26,5.26,0,0,0-3.1-1.07,11.94,11.94,0,0,1-7.59-3.46,8.71,8.71,0,0,1-2.43-6A10.34,10.34,0,0,1,126.16,27a9.54,9.54,0,0,1,7.59-3.33,10.37,10.37,0,0,1,10.73,10.7h-7.26c0-2.27-1.13-3.4-3.47-3.4q-3,0-3,3.1c0,1.26,1.2,2,3.59,2.33,3.84.43,6.6,1.76,8.27,4A9,9,0,0,1,144.35,46a7.92,7.92,0,0,1-3.07,6.43A11.31,11.31,0,0,1,133.92,55,10.4,10.4,0,0,1,127,52.46Z"/>
    </g>
    <path class="cls-1" d="M9.76,52.23a12.11,12.11,0,0,1-4.9-9.69c0-3.86,1.74-7.16,5.17-9.82a19.75,19.75,0,0,1,12.62-4,19.59,19.59,0,0,1,12.59,4c3.47,2.66,5.17,6,5.17,9.82a12.11,12.11,0,0,1-4.9,9.69,18.25,18.25,0,0,1,2.86,1.87c4.27,3.26,6.4,7.3,6.4,12.06S42.64,75,38.37,78.25a25.17,25.17,0,0,1-15.72,4.93A25.34,25.34,0,0,1,6.9,78.25Q.49,73.36.5,66.16c0-4.76,2.13-8.8,6.4-12.06A19.76,19.76,0,0,1,9.76,52.23Z"/>
  </g>
</svg>
