<svg id="Layer_1" data-name="Layer 1" xmlns="http://www.w3.org/2000/svg" width="4.23in" height="0.68in" viewBox="0 0 304.48 48.91">
  <defs>
    <style>
      .cls-1 {
        fill: none;
      }

      .cls-1, .cls-2 {
        stroke: #010101;
        stroke-miterlimit: 10;
      }

      .cls-2 {
        fill: #010101;
      }
    </style>
  </defs>
  <g>
    <g>
      <path class="cls-1" d="M274.45,6.84h-11.1V46h-6.27V6.84H246V.63h28.48Z"/>
      <path class="cls-1" d="M284,6.82V27.91h15.46v6.22H284v5.69h20V46H277.73V.63H304V6.82Z"/>
    </g>
    <g>
      <path class="cls-1" d="M123.91,46V.63h10.32a22.14,22.14,0,0,1,8.83,1.77,22.47,22.47,0,0,1,7.25,4.89,21.77,21.77,0,0,1,4.83,7.21,21.66,21.66,0,0,1,1.8,8.8,21.94,21.94,0,0,1-1.8,8.86,22.62,22.62,0,0,1-4.83,7.21,23,23,0,0,1-7.25,4.86A22.18,22.18,0,0,1,134.23,46Z"/>
      <path class="cls-1" d="M165.27,41a16.54,16.54,0,0,1-5-12.07V.63h6.22V29a10.44,10.44,0,0,0,3.16,7.66,10.86,10.86,0,0,0,15.38,0A10.44,10.44,0,0,0,188.19,29V.63h6.22V29a16.53,16.53,0,0,1-5,12.07,17.08,17.08,0,0,1-24.15,0Z"/>
    </g>
    <g>
      <path class="cls-1" d="M35.92,42.18a25.15,25.15,0,0,1-3.86,2.08,22.09,22.09,0,0,1-4.25,1.33,24.86,24.86,0,0,1-4.58.45,26.07,26.07,0,0,1-4.61-.45,23.38,23.38,0,0,1-4.24-1.33,25,25,0,0,1-3.89-2.08A27.87,27.87,0,0,1,7.16,39.4,25.36,25.36,0,0,1,4.39,36a22.93,22.93,0,0,1-2.11-3.85A29.86,29.86,0,0,1,.94,27.91,25.76,25.76,0,0,1,.5,23.33a25.85,25.85,0,0,1,.44-4.58A27.3,27.3,0,0,1,2.28,14.5a21.81,21.81,0,0,1,2.11-3.85A24.39,24.39,0,0,1,7.16,7.26a25.3,25.3,0,0,1,3.33-2.78,21.25,21.25,0,0,1,3.89-2.05A20,20,0,0,1,18.62,1.1,21.73,21.73,0,0,1,23.23.63a21.19,21.19,0,0,1,4.58.47,19.07,19.07,0,0,1,4.25,1.33,19.5,19.5,0,0,1,3.86,2.05,21.41,21.41,0,0,1,3.19,2.64L35,11.26a14.94,14.94,0,0,0-2.33-1.89,14.83,14.83,0,0,0-2.89-1.55,13.56,13.56,0,0,0-3.13-1,15.43,15.43,0,0,0-3.39-.36,16.15,16.15,0,0,0-3.41.36,13.79,13.79,0,0,0-3.14,1,16.79,16.79,0,0,0-2.89,1.55,18,18,0,0,0-2.49,2.05,17.43,17.43,0,0,0-2.06,2.5,15.36,15.36,0,0,0-1.52,2.86,14.55,14.55,0,0,0-1,3.16,17.4,17.4,0,0,0-.34,3.39,18,18,0,0,0,.34,3.42,16,16,0,0,0,1,3.13,16.37,16.37,0,0,0,1.52,2.86,16.79,16.79,0,0,0,4.55,4.55,17.56,17.56,0,0,0,2.89,1.56,15.44,15.44,0,0,0,3.14,1,18.39,18.39,0,0,0,3.41.36,17.5,17.5,0,0,0,3.39-.36,15.16,15.16,0,0,0,3.13-1,15.43,15.43,0,0,0,2.89-1.56,13.33,13.33,0,0,0,2.47-2,17.57,17.57,0,0,0,2.08-2.5,15.18,15.18,0,0,0,1.53-2.86,16.73,16.73,0,0,0,1-3.13l.11-.48H28V20.39h18v2.94a20.59,20.59,0,0,1-.48,4.58,21.49,21.49,0,0,1-1.3,4.28A22.24,22.24,0,0,1,42.05,36a21.47,21.47,0,0,1-2.78,3.36A23.44,23.44,0,0,1,35.92,42.18Z"/>
      <path class="cls-1" d="M70.45,46,62.4,35.9H55.68V46H49.27V.63H60.51A16.94,16.94,0,0,1,73,5.79a16.93,16.93,0,0,1,5.17,12.46A17,17,0,0,1,73,30.74a19.44,19.44,0,0,1-4,3L78.61,46Z"/>
    </g>
    <path class="cls-2" d="M90.94,7.7h18.37l2.25-5.63h6.77L100.15,47.56,82,2.07h6.74Z"/>
    <path class="cls-2" d="M213,6.13h18.38L233.63.5h6.78L222.23,46,204,.5h6.74Z"/>
  </g>
</svg>
