<svg id="Layer_1" data-name="Layer 1" xmlns="http://www.w3.org/2000/svg" width="3220.95" height="2984.03" viewBox="0 0 3220.95 2984.03">
  <defs>
    <style>
      .cls-1 {
        stroke: #000;
        stroke-miterlimit: 10;
      }
    </style>
  </defs>
  <polygon class="cls-1" points="2.08 2644.6 73.15 2599.38 131.67 2575.44 195.51 2543.52 264.67 2508.94 317.87 2485 347.13 2469.04 347.13 2447.76 395.01 2447.76 426.93 2434.46 445.55 2421.16 472.15 2421.16 501.41 2421.16 525.35 2421.16 546.63 2394.56 581.21 2394.56 621.11 2394.56 645.05 2381.26 663.67 2381.26 716.87 2365.3 809.97 2341.36 900.41 2325.4 956.27 2312.1 998.83 2312.1 1025.43 2245.6 1001.49 2245.6 982.87 2221.66 953.61 2195.05 927.01 2163.14 911.05 2133.88 900.41 2099.3 897.75 2070.03 897.2 2058.11 887.94 2069.9 886.26 2083.36 882.05 2096.83 871.11 2104.41 845.01 2113.67 826.49 2123.77 825.65 2135.55 830.7 2147.34 842.49 2155.75 851.75 2161.64 855.95 2175.11 854.27 2187.74 861 2192.79 868.58 2195.32 874.47 2205.41 864.37 2218.04 853.43 2215.52 848.38 2201.21 850.06 2191.11 845.01 2184.37 837.44 2191.11 828.18 2198.68 822.28 2207.94 814.71 2208.78 802.92 2199.52 800.4 2186.9 801.24 2167.54 810.5 2149.02 814.71 2140.6 817.24 2133.87 801.24 2143.13 792.82 2151.55 785.25 2159.12 781.04 2167.54 770.94 2166.7 766.73 2158.28 753.26 2148.18 749.05 2132.18 737.27 2147.34 723.8 2161.64 717.91 2174.27 713.7 2186.9 712.02 2196.16 715.38 2202.89 712.86 2212.99 712.02 2221.41 715.38 2235.72 724.64 2244.14 733.9 2252.55 738.11 2255.08 744.85 2253.39 749.05 2263.49 756.63 2274.44 761.68 2281.17 768.41 2283.7 774.31 2284.54 777.67 2290.43 777.67 2301.37 775.15 2308.11 766.73 2316.52 755.79 2319.89 744.85 2315.68 736.43 2307.26 725.49 2298.01 717.91 2292.11 706.97 2289.59 695.18 2298.85 680.03 2303.9 669.93 2308.11 654.78 2311.47 645.52 2308.95 639.63 2302.21 628.69 2303.06 626.16 2312.32 614.38 2311.47 607.64 2298.85 605.12 2283.7 611.85 2276.12 624.48 2260.97 614.38 2244.98 597.54 2244.98 581.55 2246.66 569.77 2257.6 573.13 2267.7 580.71 2268.55 573.97 2276.96 563.87 2285.38 549.56 2292.11 532.73 2288.75 520.95 2271.07 503.27 2274.44 497.38 2285.38 480.54 2286.22 470.44 2289.59 478.86 2276.12 488.12 2267.7 494.85 2258.44 496.54 2245.82 481.38 2242.45 467.92 2254.24 456.13 2265.18 446.03 2268.55 438.46 2270.23 421.62 2275.28 409.84 2282.01 402.26 2290.43 393.84 2296.32 410.68 2294.64 409 2303.9 413.2 2314 414.89 2324.1 409 2335.04 398.05 2345.14 390.48 2351.36 359.33 2364.5 333.24 2367.87 307.15 2376.29 269.27 2388.07 235.6 2393.12 192.67 2402.38 155.63 2402.38 111.86 2408.27 84.09 2407.43 68.09 2411.64 54.63 2419.22 31.9 2424.26 2.08 2425.11 2.08 2442.78 15.91 2450.36 31.06 2456.25 56.31 2468.03 70.62 2471.4 90.82 2471.4 122.81 2462.99 153.95 2457.09 167.42 2456.25 186.78 2453.73 197.72 2452.88 217.92 2451.2 230.55 2451.2 245.7 2452.04 257.48 2454.57 267.58 2460.46 269.27 2473.09 262.53 2485.71 251.59 2496.65 236.44 2507.6 215.4 2515.17 201.09 2516.01 185.94 2509.28 166.58 2509.28 150.58 2513.49 129.54 2518.54 92.5 2521.06 68.09 2520.22 33.58 2513.49 14.22 2513.49 2.08 2509.28 2.08 2644.6"/>
  <polygon class="cls-1" points="111.86 2351.36 162.37 2344.3 189.3 2335.88 202.77 2330.83 223.81 2330.83 237.28 2330.83 255.8 2319.89 265.06 2311.47 265.06 2303.06 249.91 2303.06 238.12 2295.48 231.39 2295.48 220.45 2301.37 205.3 2311.47 198.56 2319.05 176.68 2323.42 157.32 2335.88 135.43 2337.57 111.86 2351.36"/>
  <polygon class="cls-1" points="900.57 1978.15 885.41 1987.41 867.74 1995.82 845.85 2000.88 818.08 2000.88 792.82 2000.88 777.67 2005.08 767.57 2005.08 774.31 2010.98 760.84 2016.03 743.16 2016.03 726.33 2021.08 717.91 2027.81 717.91 2036.23 724.64 2040.44 725.49 2048.01 722.12 2054.75 722.96 2060.64 732.22 2062.32 737.27 2068.21 726.33 2078.31 716.23 2079.16 702.76 2080 694.34 2076.63 684.24 2080 678.35 2086.73 664.04 2088.41 651.41 2088.41 637.95 2087.57 622.79 2093.47 576.5 2118.72 558.82 2125.45 547.88 2135.55 547.88 2143.97 563.87 2142.29 576.5 2136.39 585.76 2131.34 602.59 2133.03 613.54 2140.6 613.54 2150.7 625.32 2144.81 649.73 2135.55 654.78 2125.45 653.1 2117.88 671.62 2110.3 699.39 2105.25 728.01 2096.83 747.37 2091.78 766.73 2078.31 783.57 2057.27 803.77 2044.64 815.55 2032.86 839.96 2019.39 869.42 2006.77 893.83 1990.77 900.57 1978.15"/>
  <polygon class="cls-1" points="1145.51 2071.58 1126.15 2064.85 1105.95 2058.11 1091.64 2053.06 1075.65 2052.22 1064.7 2057.27 1063.86 2069.05 1084.9 2086.73 1081.54 2091.78 1060.49 2075.79 1054.6 2081.68 1062.18 2093.47 1091.64 2112.82 1105.95 2117.88 1119.42 2122.08 1139.62 2099.36 1145.51 2086.73 1156.45 2079.16 1145.51 2071.58"/>
  <polygon class="cls-1" points="1185.91 2285.38 1220.42 2275.28 1253.25 2265.18 1273.45 2255.92 1290.29 2249.18 1318.07 2233.19 1341.63 2214.67 1335.74 2206.26 1327.32 2197.84 1326.48 2186.9 1333.22 2179.32 1350.05 2179.32 1361.84 2183.53 1360.99 2197 1355.1 2205.41 1373.62 2193.63 1401.4 2179.32 1419.91 2162.49 1448.53 2143.13 1459.47 2133.87 1485.57 2127.98 1516.71 2113.67 1652.23 2058.11 1667.38 2059.8 1685.06 2049.7 1701.05 2042.12 1712.84 2033.7 1730.51 2031.18 1749.87 2023.6 1769.23 2021.08 1781.02 2010.98 1791.12 1999.19 1813 1994.98 1826.47 1989.09 1844.99 1988.25 1890.44 1972.26 1923.27 1961.31 1940.94 1952.9 1959.46 1945.32 1969.56 1941.11 1972.93 1934.38 1993.97 1928.49 2022.59 1915.86 2056.26 1899.87 2078.99 1888.08 2100.87 1878.82 2106.77 1869.57 2115.18 1870.41 2142.12 1856.94 2180 1836.74 2199.36 1828.32 2211.98 1819.9 2228.82 1808.96 2260.8 1791.28 2295.31 1767.71 2307.94 1760.14 2322.25 1755.93 2331.51 1750.04 2336.56 1739.94 2348.34 1736.57 2377.8 1716.37 2399.69 1700.38 2413.16 1686.91 2436.72 1675.13 2485.55 1644.82 2521.74 1624.62 2555.41 1603.58 2578.14 1589.27 2616.01 1572.43 2637.06 1560.65 2644.63 1553.92 2657.26 1549.71 2679.99 1540.45 2689.24 1532.03 2704.39 1524.45 2713.65 1518.56 2728.8 1514.35 2768.37 1497.52 2808.77 1478.16 2836.55 1468.06 2869.37 1452.07 2903.89 1413.35 2924.09 1387.25 2944.29 1362.84 2972.07 1325.81 2988.9 1304.76 2988.9 1297.19 2997.32 1284.56 3006.58 1279.51 3018.36 1269.41 3023.41 1256.79 3031.83 1248.37 3011.63 1253.42 3004.89 1248.37 3004.89 1241.63 2990.58 1250.05 2984.69 1243.32 2986.38 1229.85 2972.91 1221.43 2970.38 1207.12 2972.07 1193.65 2967.01 1186.08 2959.44 1176.82 2953.55 1164.19 2965.33 1169.24 2955.23 1157.46 2954.39 1148.2 2960.28 1133.89 2969.54 1133.05 2974.59 1122.11 2983.85 1112.01 2995.63 1103.59 3007.42 1093.49 2993.11 1095.17 2996.48 1084.23 3009.94 1074.13 3022.57 1070.76 3037.72 1070.76 3052.03 1067.39 3070.55 1056.45 3083.17 1049.72 3089.91 1039.62 3101.69 1036.25 3089.91 1032.88 3089.07 1018.58 3076.44 1024.47 3014.15 1021.94 2991.43 1022.78 2970.38 1023.63 2956.07 1022.78 2933.35 1028.68 2934.19 1014.37 2923.24 1024.47 2911.46 1029.52 2896.31 1025.31 2872.74 1028.68 2860.96 1033.73 2844.96 1033.73 2829.81 1040.46 2818.87 1046.35 2809.61 1051.4 2801.19 1048.88 2793.62 1055.61 2777.63 1069.08 2768.37 1077.5 2760.79 1080.02 2753.22 1084.23 2734.7 1098.54 2721.23 1106.96 2700.19 1122.11 2683.35 1134.73 2669.04 1151.57 2660.63 1157.46 2644.63 1166.72 2643.79 1175.98 2631.16 1181.87 2614.33 1190.29 2600.86 1197.02 2589.08 1201.23 2580.66 1203.76 2569.72 1207.12 2549.52 1210.49 2551.2 1215.54 2578.14 1212.17 2602.55 1204.6 2618.54 1197.86 2629.48 1190.29 2642.11 1189.45 2657.26 1184.4 2656.42 1171.77 2665.68 1162.51 2683.35 1156.62 2713.65 1146.52 2741.43 1138.94 2754.9 1128 2759.95 1117.9 2772.57 1113.69 2780.15 1106.96 2778.47 1099.38 2798.67 1092.65 2807.09 1093.49 2812.14 1083.39 2822.24 1078.34 2831.5 1070.76 2849.17 1064.87 2858.43 1062.35 2864.32 1055.61 2891.26 1051.4 2908.94 1046.35 2915.67 1041.3 2922.4 1036.25 2945.97 1035.41 2963.65 1035.41 2972.91 1032.04 2988.9 1032.88 2995.63 1036.25 3005.74 1032.04 3028.46 1034.57 3047.82 1033.73 3060.45 1036.25 3049.51 1048.04 3036.88 1051.4 3027.62 1058.14 3017.52 1064.03 3007.42 1067.39 2993.11 1071.6 2987.22 1076.65 2977.96 1081.7 2983.01 1085.91 2985.53 1091.81 2980.48 1101.91 2971.22 1113.69 2962.81 1124.63 2951.86 1131.37 2947.66 1139.78 2945.13 1154.93 2946.81 1166.72 2946.81 1181.87 2950.18 1189.45 2955.23 1196.18 2947.66 1207.12 2943.45 1211.33 2949.34 1221.43 2952.71 1227.32 2949.34 1232.38 2955.23 1239.11 2956.91 1245.84 2950.18 1253.42 2935.03 1260.15 2932.5 1276.99 2918.2 1283.72 2910.62 1284.56 2902.2 1288.77 2877.79 1293.82 2866.85 1303.92 2868.53 1311.5 2884.53 1317.39 2900.52 1323.28 2909.78 1327.49 2905.57 1338.43 2915.67 1337.59 2913.99 1346.85 2904.73 1346.85 2904.73 1359.48 2899.68 1370.42 2891.26 1383.04 2881.16 1399.04 2868.53 1400.72 2862.64 1394.83 2861.31 1390.35 2857.26 1388.73 2855.91 1386.3 2858.88 1382.25 2862.66 1383.6 2865.9 1383.06 2864.82 1380.09 2861.04 1377.66 2857.26 1376.31 2853.48 1377.93 2849.43 1379.55 2842.14 1379.55 2835.93 1379.28 2829.71 1382.25 2824.85 1386.57 2821.88 1388.73 2817.56 1389 2812.16 1387.65 2808.92 1384.68 2801.63 1384.14 2791.9 1383.6 2777.59 1381.71 2769.76 1377.12 2761.93 1373.07 2757.87 1370.09 2753.28 1371.17 2751.12 1374.14 2745.45 1371.98 2742.75 1367.93 2743.83 1363.07 2748.15 1360.64 2751.66 1361.45 2755.17 1362.53 2758.41 1366.04 2765.17 1367.39 2773.27 1367.12 2771.38 1363.61 2771.38 1359.83 2766.25 1357.67 2760.57 1358.48 2755.71 1357.13 2752.2 1356.59 2746.8 1355.78 2742.21 1357.13 2738.97 1359.83 2736 1363.34 2733.57 1364.69 2730.87 1360.1 2730.33 1355.78 2733.03 1352.54 2737.08 1350.38 2737.89 1345.52 2733.03 1346.06 2735.19 1342.28 2736.54 1339.85 2741.67 1340.12 2745.72 1334.98 2740.59 1333.63 2734.65 1332.82 2735.46 1328.23 2730.87 1326.07 2730.06 1321.48 2729.41 1328.24 2729.65 1333.31 2729.65 1336.7 2727.96 1340.32 2726.75 1342.02 2724.09 1343.22 2720.23 1341.53 2718.78 1338.15 2716.12 1337.66 2715.15 1333.31 2714.18 1329.45 2711.53 1331.14 2710.56 1326.79 2706.69 1329.2 2702.82 1332.11 2700.41 1332.83 2697.99 1328.72 2698.23 1325.58 2696.05 1323.4 2696.05 1318.09 2699.44 1314.7 2692.43 1317.36 2690.25 1319.54 2685.42 1320.98 2682.03 1320.5 2675.99 1317.12 2670.91 1313.98 2665.11 1312.77 2662.45 1313.73 2664.63 1318.81 2666.56 1321.23 2669.71 1324.13 2671.64 1326.55 2674.54 1330.9 2675.99 1335.01 2675.99 1339.6 2678.17 1340.08 2678.89 1343.22 2679.62 1345.4 2681.31 1347.09 2681.07 1349.27 2681.55 1352.41 2682.03 1355.07 2684.93 1355.31 2685.18 1359.42 2685.9 1362.56 2687.35 1365.22 2687.59 1369.09 2686.87 1371.99 2689.05 1374.89 2691.46 1377.07 2694.12 1378.76 2694.36 1382.38 2696.05 1385.04 2696.54 1389.15 2699.68 1389.88 2700.41 1393.99 2702.1 1397.13 2704.27 1398.58 2705.72 1400.51 2709.11 1402.2 2713.22 1403.65 2715.15 1406.07 2717.09 1409.46 2718.29 1411.39 2721.44 1412.36 2722.64 1415.02 2726.75 1416.47 2728.45 1419.61 2732.31 1421.78 2734.49 1420.82 2738.36 1419.13 2738.6 1417.19 2743.43 1419.13 2744.88 1421.06 2749.48 1424.44 2754.07 1424.2 2758.18 1424.68 2762.05 1426.38 2763.74 1428.07 2768.09 1430.97 2770.26 1431.21 2778 1432.9 2786.22 1433.63 2787.91 1436.29 2785.25 1438.46 2778.72 1440.64 2768.57 1443.06 2761.8 1445.96 2756.73 1447.89 2749.96 1450.07 2746.33 1449.82 2742.47 1446.92 2740.77 1451.28 2737.15 1452.48 2731.59 1452.72 2728.2 1452 2727.96 1456.35 2725.79 1458.77 2722.64 1459.49 2719.74 1454.9 2718.29 1457.56 2719.02 1461.43 2716.12 1462.88 2713.46 1463.6 2706.93 1464.57 2699.44 1466.02 2690.25 1465.05 2686.39 1463.6 2681.31 1463.84 2677.93 1466.02 2671.16 1469.16 2667.53 1469.65 2660.52 1470.13 2655.2 1470.61 2651.96 1468.55 2652.95 1465.41 2653.94 1463.1 2654.44 1461.12 2655.59 1458.81 2658.57 1458.48 2660.22 1458.81 2661.21 1457.32 2664.84 1456.49 2667.48 1454.84 2663.85 1452.2 2661.37 1448.57 2661.21 1445.93 2660.88 1441.63 2656.75 1441.63 2653.28 1441.63 2651.14 1438.83 2648.66 1437.18 2644.7 1435.86 2638.92 1435.2 2635.12 1434.7 2616.46 1420.67 2632.81 1435.2 2627.2 1434.87 2632.15 1439.98 2635.12 1442.96 2633.63 1446.42 2629.34 1446.92 2625.71 1445.43 2622.74 1445.43 2620.59 1442.46 2617.12 1441.47 2612.01 1436.19 2613.99 1440.81 2614.32 1443.45 2613.16 1444.77 2607.55 1445.1 2604.58 1444.28 2599.29 1440.81 2594.34 1437.34 2590.87 1434.54 2588.89 1431.89 2587.07 1431.73 2586.25 1427.44 2585.59 1425.29 2582.78 1424.96 2580.97 1420.83 2577 1420.67 2574.03 1417.2 2571.39 1412.41 2571.06 1410.76 2569.91 1415.22 2569.24 1416.87 2572.55 1422.32 2575.35 1423.64 2575.19 1425.95 2575.52 1428.59 2574.53 1430.57 2571.89 1429.09 2570.07 1426.12 2567.26 1422.65 2565.28 1419.35 2564.62 1416.87 2563.63 1412.58 2552.57 1404.82 2551.91 1406.47 2553.72 1409.77 2556.04 1411.26 2558.02 1412.91 2558.35 1414.89 2556.04 1414.89 2556.53 1418.03 2558.51 1421.82 2561.65 1424.63 2564.46 1429.09 2566.93 1431.07 2566.27 1435.03 2566.11 1438.5 2560.99 1435.36 2561.15 1439.98 2558.35 1437.67 2554.72 1432.72 2550.75 1431.23 2553.56 1435.2 2556.37 1439.65 2558.02 1441.31 2561.82 1444.44 2564.13 1446.75 2565.94 1449.89 2566.11 1455.01 2567.76 1457.65 2571.72 1460.46 2573.87 1461.28 2572.38 1462.93 2577.33 1463.59 2579.15 1463.1 2580.47 1463.1 2585.59 1466.24 2586.58 1468.22 2586.25 1472.01 2590.21 1473.01 2593.68 1472.34 2596.32 1473.01 2599.62 1476.64 2603.75 1479.44 2606.39 1482.58 2609.53 1484.07 2608.7 1490.51 2611.34 1491.33 2613.66 1493.15 2616.13 1495.79 2618.11 1495.95 2620.59 1496.94 2619.6 1502.72 2617.29 1504.21 2617.45 1506.19 2614.48 1507.51 2613.66 1510.98 2612.5 1512.79 2610.19 1512.96 2608.87 1513.29 2608.87 1517.42 2605.4 1521.55 2602.26 1521.55 2598.96 1520.06 2596.32 1520.39 2592.85 1522.7 2588.07 1525.51 2585.26 1527.49 2584.6 1523.53 2585.92 1519.4 2592.36 1516.26 2594.84 1512.3 2594.84 1508.67 2588.56 1506.19 2582.62 1505.2 2577.17 1504.7 2574.53 1505.53 2575.02 1508.67 2572.22 1511.47 2569.08 1511.97 2563.8 1510.81 2560.33 1507.68 2554.55 1504.87 2549.93 1502.23 2546.96 1499.42 2545.47 1496.12 2546.63 1491.33 2548.28 1489.02 2549.76 1487.53 2553.56 1488.03 2557.03 1488.86 2562.8 1488.69 2561.98 1484.73 2560.82 1482.25 2558.84 1480.6 2556.53 1478.29 2558.02 1476.14 2552.9 1474.82 2547.62 1474.33 2544.64 1472.01 2541.34 1470.03 2542.17 1466.07 2539.2 1464.09 2538.04 1460.46 2538.37 1455.5 2540.02 1453.85 2542.83 1454.35 2546.46 1454.18 2548.61 1453.69 2548.44 1451.71 2544.64 1450.06 2543.16 1441.63 2544.81 1438.5 2546.96 1437.51 2548.11 1431.56 2546.63 1425.95 2544.81 1423.31 2541.51 1422.32 2540.19 1421.49 2538.2 1418.52 2533.91 1417.7 2530.78 1418.03 2530.78 1420.34 2528.63 1421.66 2525.33 1421.82 2523.35 1422.32 2523.51 1425.79 2525.16 1427.27 2524.34 1429.58 2523.35 1431.4 2522.85 1433.88 2519.88 1433.71 2518.39 1429.58 2516.25 1428.1 2517.24 1422.98 2514.1 1422.81 2511.95 1424.96 2510.47 1428.26 2509.97 1429.42 2506.51 1429.58 2502.21 1429.25 2499.9 1429.42 2500.23 1423.8 2497.43 1422.98 2495.77 1421.66 2494.62 1419.35 2491.48 1419.35 2489.99 1420.5 2490.33 1422.48 2491.32 1424.3 2491.15 1425.79 2492.64 1427.27 2494.29 1428.59 2495.94 1429.42 2496.1 1431.4 2496.43 1434.87 2495.94 1436.68 2494.62 1438.17 2492.8 1438.83 2492.97 1443.45 2490.82 1443.45 2489.34 1438.83 2487.02 1437.01 2486.36 1434.7 2486.03 1426.94 2485.7 1422.81 2485.37 1420.83 2483.39 1421.16 2481.91 1421.99 2481.91 1422.81 2480.42 1423.31 2477.94 1423.31 2476.13 1424.3 2475.8 1425.13 2478.44 1426.78 2479.26 1427.11 2480.59 1428.43 2482.07 1429.42 2482.9 1431.4 2483.06 1433.38 2484.38 1437.51 2484.88 1440.48 2485.7 1445.27 2486.36 1449.07 2488.34 1449.07 2489.01 1450.55 2490.66 1450.88 2491.81 1448.57 2492.31 1446.75 2494.78 1446.92 2495.44 1449.23 2496.93 1449.39 2500.4 1449.72 2501.88 1449.89 2502.05 1454.68 2501.39 1456.99 2502.54 1459.96 2504.69 1458.97 2505.84 1461.61 2507 1462.6 2508.65 1462.93 2508.49 1465.58 2506.67 1466.57 2504.69 1466.07 2503.53 1467.89 2500.23 1468.22 2498.91 1465.58 2497.09 1465.9 2495.94 1467.39 2493.63 1468.22 2493.79 1472.67 2496.27 1475.32 2497.92 1477.79 2499.41 1480.1 2501.88 1482.58 2504.52 1484.23 2504.52 1486.05 2506.34 1487.86 2507.99 1491 2505.68 1491.83 2504.03 1494.14 2500.89 1494.47 2496.76 1495.29 2499.9 1498.27 2500.73 1500.58 2502.71 1502.72 2504.19 1503.22 2506.51 1504.54 2509.48 1505.69 2509.64 1508.67 2510.14 1510.65 2512.78 1511.14 2514.6 1510.98 2518.72 1511.64 2520.87 1510.98 2524.34 1509.49 2523.18 1512.46 2524.34 1514.94 2526.32 1515.93 2529.45 1516.92 2531.93 1518.24 2532.43 1519.73 2536.06 1520.88 2540.85 1520.88 2540.68 1523.53 2544.31 1523.69 2544.48 1521.55 2543.16 1520.06 2545.3 1519.23 2548.11 1519.07 2550.59 1519.73 2552.4 1521.55 2554.88 1522.7 2555.38 1524.35 2554.22 1526.17 2552.24 1528.15 2551.41 1531.62 2551.08 1533.76 2548.44 1534.75 2542.66 1534.75 2536.72 1534.59 2531.6 1534.75 2531.93 1536.57 2536.39 1537.89 2539.69 1538.55 2542.83 1540.2 2542 1542.18 2539.36 1543.01 2534.74 1542.84 2533.58 1545.15 2536.72 1546.64 2539.53 1547.3 2539.69 1549.28 2537.88 1552.09 2534.24 1553.08 2530.11 1552.09 2525.33 1550.27 2522.69 1549.28 2518.72 1549.94 2516.41 1550.77 2515.59 1555.23 2516.08 1557.04 2518.56 1559.35 2520.54 1558.53 2523.02 1560.01 2523.51 1562.65 2527.31 1563.32 2527.14 1560.84 2530.11 1559.52 2532.1 1560.51 2533.58 1561.99 2536.22 1562.99 2535.23 1567.11 2532.76 1569.59 2529.62 1569.42 2524.01 1567.77 2520.7 1568.43 2519.38 1571.08 2515.42 1573.88 2510.8 1573.55 2508.32 1572.89 2503.04 1573.22 2500.07 1576.69 2491.65 1580.32 2486.36 1580.16 2481.41 1580.32 2476.13 1582.14 2470.84 1580.82 2465.89 1579.83 2460.77 1578.01 2451.86 1577.18 2450.7 1582.47 2448.22 1581.97 2445.58 1579 2443.11 1576.69 2439.47 1574.05 2436.83 1575.7 2433.2 1579.83 2433.36 1582.96 2431.22 1587.92 2428.08 1591.38 2424.12 1594.36 2421.15 1597.33 2416.03 1601.12 2411.24 1602.61 2405.3 1602.78 2396.22 1604.43 2392.26 1602.78 2387.63 1600.96 2382.35 1599.47 2377.73 1597.33 2372.61 1597.66 2369.31 1600.3 2362.54 1600.46 2356.92 1599.14 2351.14 1597.33 2346.03 1597 2343.88 1600.79 2339.09 1604.1 2336.12 1605.09 2332.49 1604.43 2333.15 1598.15 2330.84 1595.02 2325.72 1595.02 2317.13 1595.02 2311.19 1594.68 2308.71 1594.52 2307.23 1593.03 2307.23 1590.23 2308.38 1588.08 2309.54 1585.44 2310.69 1584.28 2311.36 1581.64 2310.2 1579.5 2309.7 1575.2 2308.22 1571.41 2307.56 1567.94 2306.4 1564.47 2307.56 1561.99 2307.39 1559.02 2305.41 1552.91 2303.59 1550.77 2299.14 1548.62 2290.55 1545.15 2284.94 1544.49 2278.83 1539.71 2274.87 1538.72 2269.75 1541.19 2269.42 1547.14 2269.42 1548.46 2273.38 1550.6 2273.71 1553.08 2276.85 1557.04 2278.5 1559.02 2282.79 1561.99 2287.74 1562.99 2288.24 1566.78 2290.55 1569.76 2292.53 1572.73 2294.35 1574.54 2294.18 1579 2296.66 1583.13 2297.82 1585.11 2301.28 1590.39 2302.77 1591.88 2304.59 1592.87 2304.42 1595.18 2303.76 1598.32 2301.61 1600.63 2299.47 1602.44 2294.84 1603.11 2291.71 1604.1 2288.74 1603.44 2285.76 1600.63 2282.63 1598.32 2280.15 1596.83 2274.7 1595.84 2270.24 1595.35 2262.32 1596.5 2260.17 1598.48 2256.54 1600.3 2253.57 1602.12 2249.77 1602.44 2245.15 1605.25 2241.85 1606.08 2237.06 1608.88 2233.1 1609.71 2229.63 1612.68 2221.87 1615.82 2219.89 1617.3 2215.26 1618.3 2210.97 1618.46 2206.84 1617.8 2203.05 1616.15 2198.76 1613.84 2197.76 1611.69 2192.48 1612.19 2186.21 1613.51 2182.74 1618.95 2178.12 1625.06 2171.35 1627.71 2169.86 1631.83 2165.07 1635.3 2157.97 1640.25 2154.84 1643.39 2145.92 1646.36 2143.12 1647.52 2138.82 1650.33 2128.92 1649.17 2119.67 1649.99 2114.22 1651.81 2112.74 1657.75 2106.96 1662.38 2102.01 1662.54 2100.52 1667.66 2106.63 1668.32 2106.3 1672.94 2102.5 1678.72 2111.91 1680.21 2121.82 1674.43 2125.45 1670.96 2132.38 1668.65 2137.67 1663.53 2141.63 1662.87 2142.45 1666.84 2141.8 1671.62 2138.33 1676.08 2137.34 1679.22 2136.35 1683.51 2136.68 1686.32 2138.82 1688.46 2132.05 1693.91 2127.6 1697.21 2122.48 1699.86 2114.55 1702 2105.64 1706.46 2102.83 1710.59 2100.02 1718.02 2098.04 1724.79 2093.26 1726.11 2086.98 1728.25 2077.41 1732.21 2073.94 1735.85 2062.88 1739.81 2060.72 1741.33 2062.63 1743.07 2064.2 1744.29 2071.68 1743.6 2075.33 1742.03 2081.24 1739.6 2084.37 1738.55 2096.37 1737.51 2098.63 1739.94 2098.63 1744.12 2098.11 1747.6 2094.81 1750.9 2091.15 1756.12 2087.85 1760.12 2083.68 1765.33 2080.2 1768.99 2077.94 1771.94 2080.02 1773.86 2081.41 1776.81 2085.76 1777.68 2088.55 1777.16 2092.2 1778.03 2094.63 1780.12 2094.63 1786.38 2092.72 1788.99 2090.46 1791.94 2086.28 1795.77 2084.37 1797.16 2079.85 1797.68 2077.41 1801.51 2076.55 1807.07 2075.33 1810.03 2074.46 1811.94 2073.24 1814.72 2069.41 1815.59 2065.07 1816.29 2059.85 1816.99 2054.11 1820.81 2050.11 1823.25 2045.59 1822.9 2037.59 1827.07 2032.89 1827.07 2028.55 1828.12 2021.76 1830.55 2013.41 1834.03 2006.63 1833.33 1999.85 1836.81 1993.76 1838.38 1988.72 1840.64 1985.59 1842.9 1981.41 1845.68 1975.85 1846.03 1971.68 1845.51 1968.02 1845.16 1962.29 1846.2 1957.94 1848.64 1949.07 1852.98 1946.11 1854.72 1940.89 1855.77 1934.29 1855.25 1929.76 1855.42 1924.2 1854.03 1920.2 1852.12 1914.63 1852.12 1922.29 1849.16 1925.59 1847.77 1928.89 1846.55 1931.15 1844.12 1931.85 1843.77 1938.46 1843.07 1941.94 1842.55 1947.68 1840.29 1945.07 1838.03 1941.59 1835.77 1938.11 1833.33 1933.59 1830.55 1928.89 1829.86 1923.85 1829.51 1918.46 1829.51 1910.46 1829.51 1905.94 1830.03 1893.59 1831.59 1890.11 1831.77 1879.68 1834.55 1874.63 1839.07 1872.55 1840.46 1866.46 1844.29 1860.72 1846.72 1857.59 1847.94 1850.63 1850.55 1845.94 1854.2 1840.2 1855.42 1831.85 1855.94 1828.2 1857.68 1817.07 1859.07 1808.72 1859.07 1804.2 1862.55 1803.93 1872.23 1803.24 1878.43 1810.81 1880.49 1820.1 1881.87 1826.3 1883.94 1836.97 1884.28 1841.45 1885.66 1845.23 1882.56 1851.09 1886 1854.53 1887.38 1861.07 1894.95 1861.41 1899.77 1860.72 1909.41 1857.28 1914.57 1852.46 1920.43 1844.2 1922.84 1837.66 1925.93 1831.46 1926.97 1827.68 1930.41 1817.69 1933.51 1810.47 1933.51 1801.52 1935.92 1809.78 1936.6 1823.89 1937.29 1830.09 1935.57 1834.91 1931.44 1838.35 1929.72 1850.05 1928.34 1855.9 1927.31 1862.1 1926.97 1862.1 1931.79 1862.1 1937.98 1860.72 1943.49 1855.9 1947.62 1840.76 1951.41 1832.5 1952.09 1820.45 1957.6 1800.14 1961.04 1790.5 1964.14 1776.73 1966.9 1757.11 1971.03 1733.7 1973.44 1723.38 1974.13 1705.13 1974.47 1692.4 1971.71 1683.79 1969.65 1672.78 1964.49 1668.64 1960.7 1660.38 1960.7 1652.12 1961.73 1643.17 1962.08 1628.71 1955.54 1619.08 1952.44 1612.19 1950.72 1597.73 1949 1582.24 1946.93 1555.74 1947.28 1539.21 1948.31 1514.78 1951.75 1497.91 1953.47 1477.6 1960.7 1465.89 1962.08 1449.37 1965.86 1431.82 1968.27 1417.36 1974.81 1395.67 1982.73 1383.97 1985.48 1375.71 1991.34 1352.99 1992.03 1343.35 2015.78 1337.84 2022.32 1327.86 2040.9 1317.19 2052.26 1301.7 2068.79 1293.09 2076.02 1289.65 2083.93 1302.04 2084.28 1305.48 2086.34 1304.45 2101.49 1296.88 2107.34 1285.52 2120.76 1277.95 2132.47 1270.37 2146.58 1256.95 2162.07 1243.18 2175.15 1234.58 2184.45 1229.76 2190.64 1236.64 2198.56 1246.62 2200.97 1251.44 2208.89 1254.2 2217.15 1249.03 2231.61 1242.84 2248.13 1230.79 2257.42 1215.3 2269.13 1201.87 2274.98 1185.91 2285.38"/>
  <polygon class="cls-1" points="3218.07 1088.38 3219.59 1102.04 3218.07 1113.43 3214.27 1124.81 3220.34 1124.81 3218.07 1136.19 3212.76 1153.65 3206.68 1159.72 3196.82 1168.07 3182.4 1173.38 3170.25 1180.21 3153.56 1187.8 3140.66 1193.12 3133.07 1196.91 3126.24 1202.98 3121.68 1212.09 3108.78 1215.88 3093.6 1224.23 3073.11 1227.27 3088.29 1215.88 3105.74 1208.29 3120.92 1199.19 3145.21 1187.04 3162.66 1177.18 3177.84 1166.55 3180.12 1158.96 3172.53 1161.24 3161.91 1165.79 3150.52 1168.83 3140.66 1169.59 3131.55 1173.38 3123.96 1177.94 3112.57 1177.18 3101.95 1181.73 3082.98 1191.6 3062.49 1198.43 3048.07 1210.57 3038.96 1206.02 3029.85 1206.02 3021.5 1203.74 3016.95 1196.91 3016.19 1184.77 3022.26 1173.38 3026.06 1182.49 3027.57 1194.63 3032.13 1174.9 3035.16 1165.79 3050.34 1159.72 3067.04 1155.17 3076.15 1152.13 3079.18 1154.41 3081.46 1143.78 3095.12 1154.41 3102.71 1162.76 3109.54 1150.61 3120.92 1149.86 3111.06 1133.92 3122.44 1138.47 3130.79 1143.03 3136.1 1144.54 3123.96 1116.46 3139.14 1119.5 3145.97 1120.26 3158.87 1113.43 3169.49 1105.08 3175.57 1101.28 3183.91 1102.8 3190.75 1102.8 3202.13 1092.18 3216.55 1081.55 3218.07 1088.38"/>
  <polygon class="cls-1" points="3005.57 1191.6 3008.6 1174.9 3005.57 1168.07 3000.25 1174.9 2993.42 1183.25 2993.42 1190.08 3001.01 1196.91 3005.57 1191.6"/>
  <path class="cls-1" d="M-310.87,1663.68l-3.79-6.83-15.94,1.52-17.46.76-15.94,3-16.69.75-19-3.79h-12.14l-23.53.76-12.9.76h-11.38l-6.07-2.28,8.35-12.14,3-9.11-1.52-9.87,6.07-11.38,5.32-6.07,12.14-18.22-3-9.1-4.55-5.32-8.35-10.62.76-13.66,14.42-11.39,9.87-12.9,10.62-12.9,3.8-7.59,15.18-12.14,15.17-12.9-6.07-11.39-9.86,2.28-9.11-2.28h-6.83l-22,9.87-18.21,8.35-18.22,9.1L-490,1511.9l-19,7.58-15.94,8.35-27.32,11.39-12.14,5.31-18.22,5.31-19,3-9.11.76-3.79,7.59-3,6.07-3,3.79h-3.79l-4.55,6.83-2.28,5.32-1.52,6.07-1.52,5.31-9.86,1.52v16.69l-1.52,4.56-1.52,9.86-4.55,3.8,1.52,6.07-3,5.31-3.8,4.56-14.42,17.45-8.34,8.35-8.35,1.52,3,9.86-4.55,8.35-8.35,7.59-3,7.59,12.9,6.83,13.66.76,15.18,2.28,15.94-.76,10.62.76H-616l19.73.76,15.18-2.28,15.94-.76h13.66l15.93-3,.76-13.67-3-10.62,9.86-9.87,12.91,1.52,2.27,6.83,7.59-3.79h9.87l3.79,9.86,4.56,5.32,13.66-2.28,23.52-4.55,23.53.75,27.32.76,19-1.51,15.93-5.32,23.53-.76,12.9-7.59,7.59-3h10.63ZM-491.5,1647l-8.35,1.51-4.55.76-9.11,3.8-14.42,5.31h-6.83l-12.14,2.28-16.7-1.52-2.27-8.35,2.27-8.35,9.87,3,6.83-1.52,4.55-2.28,8.35-3,6.83-6.83,6.83,1.52,3,6.07,5.31,2.27,3.8-9.86,7.59,1.52,5.31,7.59,2.28-6.84,6.07,2.28.76,7.59Zm157.1,25-12.9,3-9.11-3.8,4.56-4.55,9.86-3,9.11-.76Z" transform="translate(2101.37 204.89)"/>
  <polygon class="cls-1" points="1949.87 1734.75 1946.08 1737.59 1941.98 1738.54 1937.24 1739.49 1932.19 1740.12 1927.45 1739.17 1921.45 1740.12 1914.5 1742.02 1909.77 1742.65 1900.61 1743.91 1894.61 1746.12 1887.98 1746.75 1881.98 1748.02 1884.19 1743.59 1889.87 1741.07 1893.98 1739.81 1897.13 1740.75 1905.03 1738.86 1911.03 1737.28 1914.82 1734.75 1924.61 1731.28 1928.4 1725.59 1930.61 1720.54 1935.03 1717.07 1937.87 1722.75 1940.4 1725.59 1945.45 1726.54 1949.24 1722.44 1950.5 1716.44 1954.61 1718.33 1959.03 1719.28 1962.82 1722.12 1962.5 1726.54 1960.61 1731.59 1956.19 1732.23 1954.61 1733.81 1949.87 1734.75"/>
  <polygon class="cls-1" points="1693.66 1771.23 1705.61 1770.04 1709.19 1767.25 1718.36 1764.46 1731.5 1766.85 1741.06 1768.45 1750.22 1770.84 1758.99 1773.23 1770.94 1774.02 1779.3 1772.03 1783.29 1770.44 1783.29 1772.83 1788.46 1774.82 1796.03 1775.62 1800.02 1771.63 1809.18 1771.23 1821.92 1775.62 1827.5 1781.19 1829.49 1790.36 1827.9 1796.33 1822.32 1801.51 1811.57 1801.91 1796.83 1801.51 1792.05 1802.7 1784.88 1803.1 1790.45 1798.32 1786.07 1795.53 1780.5 1795.13 1765.36 1794.74 1757.79 1796.33 1752.61 1802.31 1747.04 1805.09 1741.46 1802.7 1736.28 1799.91 1729.91 1800.31 1723.93 1795.53 1720.35 1793.14 1712.38 1792.74 1706.81 1792.74 1702.42 1787.57 1702.42 1780.4 1694.86 1781.19 1691.27 1777.21 1689.28 1773.23 1693.66 1771.23"/>
  <polygon class="cls-1" points="1694.86 1671.65 1706.01 1671.65 1712.38 1669.66 1716.76 1667.27 1720.75 1666.47 1730.31 1667.27 1739.87 1668.07 1745.05 1670.06 1749.43 1672.45 1754.21 1671.25 1757.79 1667.67 1761.38 1664.88 1770.54 1662.49 1778.11 1665.68 1772.13 1660.1 1772.93 1656.91 1776.12 1654.13 1781.29 1652.53 1786.47 1653.73 1792.05 1652.93 1792.85 1646.56 1786.07 1644.96 1780.1 1645.36 1776.91 1643.37 1772.93 1645.76 1769.34 1648.55 1764.56 1651.34 1761.78 1653.33 1755.4 1655.32 1749.43 1656.12 1743.85 1654.52 1741.06 1653.33 1734.69 1654.13 1729.11 1656.91 1725.92 1659.7 1720.35 1658.9 1716.37 1658.9 1709.59 1660.1 1707.2 1661.69 1702.03 1662.09 1698.44 1663.29 1692.86 1666.87 1690.08 1671.65 1694.86 1671.65"/>
  <polygon class="cls-1" points="2793.07 1284.87 2800.24 1286.86 2805.41 1288.06 2811.79 1290.44 2820.15 1292.84 2826.92 1296.82 2826.53 1291.64 2824.14 1288.06 2818.56 1287.26 2812.18 1286.06 2807.01 1283.67 2802.63 1280.88 2797.84 1280.49 2793.86 1281.28 2793.07 1284.87"/>
  <polygon class="cls-1" points="2746.06 1260.97 2752.43 1262.56 2754.82 1264.55 2757.61 1262.16 2763.59 1263.76 2767.17 1266.94 2770.36 1270.13 2772.35 1274.51 2771.55 1278.1 2767.57 1279.29 2765.18 1273.71 2763.59 1281.68 2769.96 1282.88 2775.14 1283.28 2769.56 1286.46 2767.17 1288.06 2770.36 1289.65 2770.76 1293.63 2768.77 1296.82 2771.95 1303.59 2767.97 1309.57 2767.17 1302.39 2764.39 1296.82 2763.99 1292.84 2765.58 1290.44 2759.61 1292.04 2756.42 1287.66 2756.82 1280.88 2752.43 1277.3 2750.84 1272.52 2751.64 1268.93 2745.66 1273.32 2739.69 1274.11 2736.5 1269.73 2741.28 1265.75 2746.06 1260.97"/>
  <polygon class="cls-1" points="2569.6 1312.75 2568.8 1323.9 2568.01 1333.46 2568.01 1343.82 2568.4 1354.97 2569.6 1365.73 2572.39 1372.9 2575.97 1375.69 2571.19 1378.08 2564.82 1376.48 2563.62 1381.27 2563.62 1384.85 2559.24 1384.45 2555.66 1385.25 2550.08 1386.05 2548.49 1392.02 2552.47 1396 2556.05 1394.81 2554.06 1398.39 2550.88 1398.79 2545.3 1394.41 2543.71 1387.24 2544.11 1384.45 2537.73 1384.85 2534.15 1384.45 2534.94 1391.22 2527.77 1385.25 2525.38 1388.43 2521.4 1384.05 2518.61 1385.65 2521.8 1391.62 2523.79 1396.8 2521.8 1398.79 2518.61 1393.61 2517.42 1389.63 2514.23 1387.64 2513.03 1382.86 2513.03 1376.48 2509.85 1376.48 2507.86 1382.46 2507.46 1387.24 2507.46 1392.82 2508.65 1396.4 2514.63 1395.21 2513.83 1397.99 2511.84 1400.38 2511.44 1403.57 2515.82 1407.16 2519.01 1411.54 2522.99 1412.73 2526.18 1413.93 2526.98 1416.72 2522.2 1417.91 2516.62 1414.33 2513.83 1413.53 2511.44 1411.14 2509.45 1406.76 2507.46 1408.75 2503.47 1407.56 2499.89 1405.56 2497.9 1406.36 2493.12 1405.16 2490.73 1401.58 2495.11 1397.2 2495.51 1393.61 2497.1 1392.02 2493.52 1390.43 2489.93 1390.03 2492.32 1387.24 2493.12 1384.85 2493.52 1381.66 2491.13 1378.88 2489.14 1376.48 2492.72 1372.9 2496.7 1373.3 2497.5 1368.92 2492.32 1367.72 2494.71 1363.74 2496.7 1360.55 2497.5 1356.57 2498.3 1360.95 2499.89 1365.33 2502.28 1366.53 2502.68 1360.95 2506.26 1359.76 2509.45 1358.56 2513.83 1360.95 2512.64 1352.98 2513.03 1345.02 2515.82 1341.43 2518.21 1336.25 2521 1339.44 2524.19 1336.65 2527.77 1332.67 2530.56 1329.08 2530.96 1333.46 2534.15 1333.07 2538.13 1331.47 2537.73 1326.3 2541.72 1325.5 2548.49 1321.12 2554.46 1315.94 2558.05 1314.35 2560.04 1318.73 2563.23 1314.74 2569.6 1312.75"/>
  <polygon class="cls-1" points="2589.91 1400.78 2589.52 1404.37 2590.71 1408.35 2593.5 1413.13 2597.48 1416.72 2602.66 1419.11 2601.86 1413.53 2600.67 1409.15 2597.48 1406.36 2593.1 1401.58 2589.91 1400.78"/>
  <path class="cls-1" d="M630,1013.27l-5.4-.42-2.9-.83.62-2.7H618.8l-4.77,1.87-2.91,1.66-3.53,1.46-3.11,1.86-5.39.42-4.57.62-2.91-2.07-4.77-.83-3.53-.21-5.81.21-3.11-2.29,4.57-.41,1.37-2.38,1.38-4.14,2.29-5,1.38-3.67,3.67-3.22,3.67-.46-.46,4.59,3.68-3.67,4.59-2.29,5-2.76,3.68-2.75.45-4.13,3.22-1.84,3.67-2.75,3.67-3.21h-2.75l-.46-3.67L618,967l3.22-1.37h5.5l1.84-2.76,4.13-4.59,3.21-5,.46-5,2.3-3.67-14.9,8L609,970l-6.69,7.13-2.67-.89,4.46-7.14,13.37-16v-3.12l-19.17,11.59-.45,6.69-6.68,1.34-6.69,4,.89,8-5.8,3.12-4.9.44,5.35-8.47,3.12-6.24-9.81,1.78,1.34,4.91-3.12,4-5.35,8,3.12,2.23-.45,5.35-3.56,4.9h-7.14l-2.67-2.23-4.46,2.68-5.35.89-3.12-1.78,1.33-5.8-2.22.89-4.46-1.34-6.69,1.79,4.46-4.46-1.79-4.91L529.65,990l-8.92,4.46-16.05,5.79-10.26,3.57-13.82,4.46-10.25,3.12-17,4.9-16,5.36-18.72,3.56-6.69,6.69-12.48-.45-9.37,4.91-1.34-2.68-4.45,2.23-5.8,4-5.8.89-1.33-5.35-3.13,5.79-5.35.89L346.4,1048l-20.07,8-9.81,4-26.75,9.81-36.11,12.48-26.75,11.6-24.53,13.37-20.95,12-47.71,30.76-29.43,21.41-14.71,11.14-17.39,12-12.93,7.13L53,1203.13l-5.35,6.69-4.91.89L24,1221.86l4.46,6.24-9.81-1.34-8,6.69L4,1239.25-10.74,1245l-5.35,3.57-9.36,2.23-9.37,1.34-15.16.44-8.47,2.68-22.29,2.23-15.16,2.67-15.6,1.34-23.64.45-39.23,1.78-4.46-2.23h-10.7l-18.28-.45-6.69-2.67h-22.29l-30.32.44-12.93-1.33-9.81-1.34-10.25-1.78-13.83-3.57-5.35-.89h-11.14l-10.26-.89-1.34-4-6.68,1.34,1.33-3.12-3.12-.89-4.9-1.34-8-1.34-5.79,3.57-4.46-7.58h-2.68l-6.69-2.23-6.24-1.34-3.12.45-4.9-.89-5.35-1.79,3.12-3.12h-5.35l-4.91-2.23-11.59-2.67-8.47-3.12-.45,4.46-8.91.44-6.25-1.34v-9.81l-3.12-1.33-8.91,9.36,1.33,8.92-.44,12.93,7.58.44,6.24.9,2.67,2.22,2.68,4,6.24-3.12,2.23,5.35h2.68l1.78,7.13,3.57,1.78V1266h-7.58l-4.46,1.34-8.47,4.9-2.68,4.46v8.47l-5.8.89.9,2.68-6.69,1.34-10.7,3.56-6.69,2.68,2.23,6.69h5.8l12.48-2.68,11.59-2.23,7.14-.89,4.45,4,5.36.45,8.91,1.34,7.14,4,5.35,1.34,2.23-2.23.89-6.25,5.35-4.9,2.67-4.46,4.46-2.23,4.46,3.57,7.13.89,5.35,1.78,5.35,2.23,8-.44,11.15-.89,9.36.44,10.25-2.23,9.81.89-6.68,8.92-7.58,5.35-8.48,4.91-10.7,1.78-6.68-.45-8.92-2.23-6.69,2.68-5.35,1.34-6.24,1.78,4,5.35-2.23,4.46-9.81,1.78-.44,8-4.91-.89-1.33,7.13-4,4.46-8.91,2.67-17.39-.89-9.81,2.23-16.95,4.91-11.59,2.67-8.47,7.14-6.24.89-3.12,6.68-8,6.69-8,7.58-6.25.45h-8.47l-6.24.44-1.34-3.56-.44-7.14-2.23-5.79-5.35,4.46-11.59,7.13-15.16,12.93-9.37,7.58-10.7,6.24-12.48,4.46,7.58,4,8.47-.44,8.47-2.68,5.8-8,5.79-4.91,6.24-1.34,3.13,4.46,3.56,11.15L-547.9,1429l-1,5.17-2.91,5-2.26,4.74-4.74,5.6-.11,6.25-2.58-.11-1.4,2.15-5.6,5.71-7.11,5.81-7.53,4.74-7.43,6.14-3.55,3.23-.65,11.52-.22,4.95-.53,5.06.1,3,2.16,1.94,1.65,2,5.74-2.69,1.79-2.88,4.94-3,3.23-3.4,2.78-2.43,4.75-1.34,2.6.09,2.7-1.17,3.76.27,4.4.27L-552,1499l-.36,2.69.72,1.61,2.69.27,2.33-.09,3.23.09.27,1.89,1.44,1.07.26,1.89,1.08,2.24,1.8-.27,1.16-1.34.36-1.44,2.6-.36,1.17-1.43,2.51-.45,1.26-1.08-2.07-.9.72-2.87.27-2.78-.54-2.06-3,.09-.09-1.79.45-1.89-1.35-.45.18-3,2.78-.89.45-5.84,2.25-1,1.34-1.62h2.33l.18-2.33h1.71l3.85-1.08,2.34-.62,3-.09,2.06-2,1.62.27,1.34-1.61,1.26.18,1,1.52h2l2.69-1.07,3.68.26,3.23-.18,3.14-.35.26-1.8,2.34.54,2.6-1.52,2.87-.36,3.68-.9,4.93-.36,2.6.18,3.86-2.06,1.61-1.44,3.68-2.78,1.08-1.43,2.42-.9,2.24.18,2.61-.36,2.87-.63,4.84-.45,3.95-.81,3.68-.17,3.31.09,1.8.89,3.5,1.35h2.69l2.24-2.87,1.8-2.51,1.52-2.43,1.17-2.51,2-2,2.51-.18,3.86-1.17,2-.54,3.14-.35,1.17-1.8,1.07-3,2.07-1.08h2.69l.09,3.14,4.22.9,2.15-1.52,2-2.34,1.53-1.7,2.06-1.7,5.47,2.06,1.62-1.89,2-2.33,2-1.43,3.41.27,2.16,1.07,3.49.72,2.16-.45,3.23-1.25,4.84-1.35h3.05l1.88-2.6-6,.45-5.56-.81.09-1.88-.36-1.44.9-1.17.81-1.43.72-1.44.44-2.42,1.53-1.25.9-2.7-2.87-.26-.36-1-.63-2.87,1.34-2-.44-1.25,2.42-2.78,1.52-.72,1.44-1.17,2.51-2,3.05-1.79-1.17-.9-1.07-2-.63-.9v-1.89l.27-1.61v-1.17l-2.33-.27.09-1.7,1.43-.45.9-3,.72-.54-.36-1.25-2.07-1.26.9-.54.27-2.87,2.33-.45,4.85-.09,2.6-.35,1.34-.36-.18-1.44,1.62-.18,1.43.36,2.07.63,1.25,1.7,3,.63-1.16,1.62-1.8,1.07-.89,1.44-.81,3.14-.45,3.32,1.88,1.16,2.25.81,3,1.35,2.15.35,5.11.09,5.3.72,2.87-1,4.93-.35,5.65-2.25,2.51-2.24,3.77-2.51,5.47-1.71,5.92-1.16,1.89-.9,6.28-1.43,3.14-1.53,4-1.43,4-1.26,7.36-3.41,4.48-.9,6.91-.71,4.66-.63,5.3.27,4.12,3,5.66,2,3.76,2.69,5.39,3,2.78,1.89,3.23,1.79,2.87,2.06.71,4,3.32,1.88,2.34-1.07,3.76-.72,4.76,1,.81,1.79,4.39,1.08,5.56.45,2.25,1.25,1.88,3.5,1.34,2.33,5.12,1.17-.18,4.13,7.18.62,2.78,5.83,4,.9,2.87,2.06,4.58,3.59,2.87,3.68.81,3.32-1.26,2.87-1.7,2.6-2.43,4.67,7.09-5.74,2.33-2.88,1.17-2.78.36-2.6-.81-8.25,1.26-5.38.18-4.94,2.24-2.33,2.78-1.34,2.42-2.88,2.15-3-.89-2.51-.36-1.52.9-4.13,1.43-4.3,1.53-1.8,2.87-2.42,2.87-1.71.72-2.69-.45-2.33-.45-2.15-1-2.87-1.7-.81-2.43-2.6-1.25-4.94.18-2.78-1-2.78L-138,1351l.09-4,2.87-3.86,4.93-1.62,5.47-2.33,3.23-.18,4.4,1.62,1.79.27,4.22,2.51,5.11.36,4.22.44,5,1.26,4.93.18,2.79,1.79,4.21,1.8,4.13,1.79,4.66-.54,2.6,2.52,3.68-.09,3.77.36,2.24-1.89,3.14.36,4.4.09,4.3.09,1.8-.81,2.24-2,1.08-.09,1.25-2.06,2.34-1.08.09-1.71,3.22-1.25.9-2.33,1.44-1.08.8-1.7,2.07.35,2.06-.53,1-1.62,2.06.09,2.78-.45,1.53-3.59,3.5-1.16,1.61.27,2.24.63,4,.08,1.08,2.52,2.24.27,2.15.18-.54-1.71-1.16-.9-.27-2.6-2.87-1.25-.81-1.8v-2.51l-.18-2.87,3.41,1.61,5.47,1.89,3-.09,2.16-1.17.35-3.41.09-3L-.23,1316l.44-1.44,2-.9,1.52-2.51-1.07-.18-2-.09L-3,1309v-2.24l2.7-2.25L3.8,1304l2.87-.63L9.18,1301l2.16.18,2.15,1.52h2.15l3.14-.9,4-.45,2.33,1.26.63,2.69-4.57,2.33,4.39-.26,2.6-1.08,1.8-2.33.36-4,3.4-.09,3.14-1,2.43-1.16,1.79-1.53-2-.27-2.69,1.53-6.82.54-4.85-.63-4.93-.72-.09-1.44,1.26-2.51,3.49-.8,1.53-.45.36-1.44,1.52-.72.9-1,.72-1.53,2.42-2,2.69-.54H38l3.86-.54.36-1.88,1.43-1.08.72-1H46l.63-1.08,1.44-.63,3.85,1,2.34-.09,2-.45,1.08-1,.18-1.61,1.88-.27.18,1.52,1.17.63,1.52-.09,1.44-.81.09-1.16,2.6-.54,3.41,1.26-1.35,8.25,1.17.72.27,1.25,2.42.09.09,2.69-1.62.18-1,1.89-2.6.45-2.07,1.16.09,1.26L63,1295v3.23l-2,.44-.8,2.61,2.42.17,1.88.45,1.08,1.89-1.52.71-3.77.36-1.08,3.68-1.61-.27-.54-2.24-2.42.54-3.5-.9.54,5.38-2-.18-6,.81-.45,1.8,1.62.17,2.24.72.54,2.51-1.08,1-1.52,1.26-6,1.43,3.85.63,4,.36.63,2.42,3.05.72,1.43-1.26,1.62-1.16,3.14-.81,2.06-.27,1.71.81L62,1323.4l2.78,1.8,4.22.62,3.32.36,3.5.09,2.42,1.44,2.6,1.25,3.23.72,2,.18h3.41l.63-2.06.27-1.44-2.78-.18-2.07.54-3.85-1.34-1.17-1.44-1-.9-2.69.09-3-.09-1-1.34-2.78-.54-2.34.09-4.84-2.42-.36-2.16,1.35-.26,2.33.71,1.07,1,2.88.63,1.43-1.17.27-1.79.54-1.44,4.48-.45,2.6.9,1.35,1,1.62,1.16,2.33,1.17,2.6.36,2,.27,2-1.26.71-1.61-1.88-.27-3-.9-1.17-.27L85,1312l.8-.54.09-1,3.14-.08.18-.9,1.35-1.17,6.37.09h2.51l1-2.06h2.87l2.87-.27.27-.72,1.07-1,3.14.45.9-1.52,1.61-.63,1.71-.27,4.66-.63,4.13-.27,1.62.09.35,1.62,2.07.27.89,1-.18,1.71.72,1.43,2.16.09,1.88.27,3.77-.36,2.06-.44,2.87.18,2.33.17,1.35-.62-.09-1.53-2.6-1.25-1.17-1.17-.18-1.26-1.16-1.34.09-1,2.51-.09,2.6.36,2.06-.72.18-1.7-.81-1-.18-2.78,1.17-.18,3.68-2,2.42-.81,3.5-.9.54-2.15v-1.88l.72-2.25,1.07-.36.36-1.61.72-2.69.54,2.33.71.09-.09,2.33L162,1285l1.26.09.54,1,1.52.63h2.52l1.61.09,1.08-.81.89-1.34.27-.72h2.6l2,.45,1,.9.54,1.52,1.26,1.17,1.88.36.54-1.8,1.26-.62.09-1.62-1.62-1.61-.9-.9-.44-1.35,1-.71.36-1.17,2.69-.18,3.77.81,1.17-.54,1.52-.09,2.16.09,1.7,1.08,1.17,1.52,1.88-.09,1.7-1.08,1.44-.62,1.08-.18,1.34,1.25,1.53,1.44,1.07,1.25v1.62l1.89.09h1.7l.54-1.53,1.34-1,1.71-2.07h2.87l2.15-.53,1.71-1.53.45-2.33.44-3.41v-1l1.17-.63,2.33-.18,1.53.27.81.9.89,2,3.77.81,2.24-.27,3-1.43v-1.53l.09-1.43,1-.9,2.15-.27,1.53.27,2.24,1.26.09,1.88-.18,1.35.54.89,1.52.63.63.72,3.05.18,3.14.09,2.24-.72,1.26-1.7,1-.27,1.25-1,1.44-2.6V1266l.72-1.17.8-1.34,1.8-1.17h2.87l2.33.45,2,1,2,1.07,1.07,2.87,3.59,2.25,1.44,1.61,3.32,2.07,1.88,1.88,1.26,3.41,1.34,2.33,1.71,2.24,1.25,1.08,2.07,1,1.43,1.34,1.62.54,1.7,2.06,2.42-3.85-1.07-2.07-.45-.45-.45-2.15v-1.43l1.52-.9,1.62,1.52,1.43,1.17,2,.9,3.59-.18.62-.45.36-1.26v-2.42l2-.45,1.88.18,1.61-.09v-.72l1.44-1,.54-1.26,1.07-.36.27,1.8,2.25,1.52,1.43,1.44.63,2.69.81,1.52,1.61.81.9,1.44-.18,2.15-.09,1.7,1.61.9,1.89.27,1.79.36.63-1.88,1.08-2.16,2.24-2.15v-1.71l-.9-1.88h-.81l-2.42-.9-2.42-2.06-1.26-.9-1.07-2,.09-1.44-4.76-1-1.07-1.53-2.6-1.61,1.16-1.44,2.78.9,3.14,1.08,3,1.52,1,1.62,1.61,3.32,1.89.8,1.61.72,1,1.17,2.87,1.07,1.7,1.08.81.09,2.6.18,1.08-2.06-1-3-2.6-.54-1.34-.63-2.52-2.33-2.78-1.71-1.16-1.61.54-1.26.26-2.15-2.06-.72-.09-1.16-1-2.79-.26-.53-3-.27-.54-3.68-.63-2.87,2.24.18.54-.54,1.35-1.17,3-.62,1.16-.81.36-1.89.27-1.25,2-1.17,1.62-1.43.45-1.35.8-2,1.44-1.35,1.88,1.08,3.86.81,1.53-.54-.18-2.42.44-.81,1.17-.18h1.35l1.43.81,2.33,1.07,1.17,1.62.45,1.43-2.33,1-2.52,1,.36,1.79,1,1.35,1.7.53,2.16-.18,3,.36h.45l3.32.27.44,1.08.45,2.42.72.72.9.27,2,.36,2.51-.09.09-1.8.54-2,.63-2.24,1.61-.18.63-1.44h.9l1.7-1.07.63-1h1.35l.8-.54.09-2.33.36-2.15L377,1239l-1.52-.36-.54-.72v-2.06h-2l-.27-1.71-.36-1.52.63-1,.44-1.07,1-.72,1.44-.36.18-1.35-.45-2-1.08-1.17-1.7-.53h-1.71l-2.06-1.71-.9-1.07-1.88-1.08-.54-1.89-.18-2.24,1.26-.89,1-1.08-1.43-.72-2.34-.9-2.06-2-1.25.81-.36-2.42v-2l1-1,2.07-.18.8-.54.18-1,2.34-.27v1.08l3,.27,2.15-.27-.09-1.08-1.88-1.16-1.17-1.35-1.62-.36-1.52-1.34-1.44-1.17-1.61-1.35.54-1-.54-2.87-1.79-.18-.72-2.42.27-1.8,1.07-1.43.09-1.89-.45-.72-1.34-1.25-.27-1.35-.9-1-.27-1.35,1.35.36,1.88-.72.63-.9,1.35.36.8,1.35,1.35.18,1.26-1,2.06-.63.72-1.43.27-1.26-1.08-2-1.71.63-1.52.62-1.88-2.33-1.08.09-2.6-1.16-.45-1.62-3.23-.18-.45-2.33-.81-2.24-1.88-.81-1.08-1-.36-1.79-2.06-.81-1.25,1.26-1.35-1.17,1.26-1.52.8-2,1.53-1.88v-4.67l-.45-1.16-1.08-.36-.09-1.62-1.07-1-.27-2.34-.09-2.24.09-2.06-.18-1.26.54-1.16.54-2.34L348,1135l-1.62-.9-2.33-.54-.72,1.53-2.06,2.24-1.62,1.17-5,.36-3.14,2.42-.18,1.88-.18,2.78-1.34,2.69-3,1.35-.9.72-2.06,1.34-.72,2.16-.27,3-.36,2.24,1.26,2.24-.45,2.51-.63,3.14-1.79,1.62-1.53,1.43-1.26.81-1.34,1.7-1.8.09h-2.78l-2.15,1.35-.36,1.44-1.88.89L305.4,1178l-.81-1.35-.9-.72h-1v-1.61l1.17-.54,1.62-.36.89-1.25,1.17-.81-.9-.72-.81-1.16.36-1.08-1.88-.63h-2.69l-2.87-.54-.54-1.34-1.44-.63-2.6.09-3.32.09-.36-1.44-2.06-.35-1.34-1.17-.18-2.42-2-.81-2.51-.72.27-.9-2.42-.35-.9-1-1.08-1.35-4.39-.62-2.24-.36-2.16-2.52-.18-1.43,2.43-1.7,1.7-.54,3-1,2.06.18,1,1.52,2.06,2.43.27,1.52,3.86.9,1.26.18,1.52.27,2.33,1.52,2.52.81-.09-1.26.89-.18,4.22.27-.36-2.06-1.35-.72-4.66-.27-1.08-.53-1.07-1.35-.9-.45h-3.23l-2.6-.63-1.44-1.34-.8-1.17-.45-2.15,1.52-.09.36-.9,1.71-.54,3.05.45,2-1.88,1.88-1.44,1.8-.8,2.69-1.35,2.51-.9,2.42-1.88,1.62-.72,2.42-.36.36-1.43,1.88-.18,2.87-.27,1.08-.81,2.78-.54,2.15-1.43,2.07-.63,1.34-.54,1.71-.63,2.15-.53,1.35.44.71,4.58,2.42-2.69,1.35-1.89,1.88-.8,1.44.09,2.15.62,1.08,1.26V1130l1.79.63,2.07-.09.71-1.79.18-1.62,1.53-.26h2.42l1.08,1.25,1.88.18,6-.09-.45,3.68,2.42.18,1.08,1.7,1.53-.09.62-2.42.36-2.24,1-3,.18-2.15,1.17-1.17-2.34-2-1.61-1.17-.09-1.44,1.88.18.63-1.25,2.69-.9,1.26-.72.89-1.16,1.89-.45H369l2.15-.27,2.42-.09,3-.72,1.17-.9,2.06-.44,1.62-.27,1.34-1,1.89-.81,3-.18.45-.8h1.88l2.06-.36,1.17-1,1.17-.72h1.88l2.42-.18,1.08-.62,1.61-.45,2.51.09.09-1.08,2.79-.81,2.6-.18.53-.71,3.05-.18,1.89-.09,1.7-.72.09-1.17h6.37l2.69-.27.09-1.07,2.51-.36,4.31-.54,3.41-.36,3-.54,3.5-.36,1.52-.44,4.94-.54,5-1.08,3.59-.54,2.78.09h3.23l1.17-1.07,1.07-.27-.09-.72,3-.09.18-.81,2.07.18,3.67.27,1.17-.45.27-1,1.08-1.35.08-1.17.9-1.34.54-.9.09-1.08h1.08l2.24-.35h2l1.26-.36.63-1,.71-.36,1.35-.18,2.78.09,1.79.18,1.17-.72.63-.89,1.25-.45.18-.9,1.62-.27,1.25-.63,2.52.09h2.42l-.09,1.53,1.88.09,2,.54.44-1v-1.62l1.53-.09,1.7-.71,1.17.36,1.62.27,1.07.71,1.35,1.08,1.25.36,1.53.54.18.71.09,2.25,1.43.09,1.8-.09.53-2.69.09-1.71-.26-1.79-.81.27-2.33-.36-.18-1.35-1.44.18-1.25-.09-.18-2,1.61-.45-.27-1.35,1-.89,1.07-1.35,1.53-.45,1.61-.27h1.71l.27-.89,1.34-.36,2.07.18.89,1.7,1.35-.72,3.14-.27,2.51-.35,1.08.71.89,2.78-.09,1.89-1.88.63-.45,3.94-3.5-.18L531.1,1081l-.45,1.79-.72,2.69-1.34,1.88-1.8,1.53-2.06,3.41-2.6,4.93-1.08,1.8-1.61,3.58,3-1.43,3.76-5.29,1.26-3.41,3.32-.9h1.52l1.26-.72.54-1.07,2.15-.18,1.08-1.62,1-2,.45-1.26,2.25.54.8-.81,2.07.18.27-1.52.89-1.44,1.62.45,1-.72.18-2.33-.18-1.79,1.53-.27h1.52l1.35-1,1.26-.27,1-1.79L555,1072l1.26.18.44-2,.09-1.61,1.62-.18.36-1.26.89-1.88,1-1.8,2-.09.26,1.26,1.89.18,3.23.36,2.51.36,2.06.44,3.5.63.63,1.62-1.44,2.33-1.7,1.79-.72,3.5-2.15,3.77,1.52,2.33,2.25-.36,1.79-1.07,1.44-2.51,1.34-1.71,1.17-.81.89-1.43.9-1.53h2l-1.71,2.51-1.34,1.89-.9,2.87-.81,2.15,2.06,1.44,3,.54h3.41l.9,1.25,2.6.36,2-.09.18-1.79.53-1.62-3.14-.18-.27-1.16.27-1.44,1.44-.27,1-.81,1-.8,2.07-.18,3,.54,1.43-.54,2-.09,1.17-.81,1.71.45,1.16,1.08,2.15-.27,2.07-.09.81-1.62.62-2.06.45-1.8.36-1.61,1.62-1.7.35-2.25,1.53-1.07,2.69-2.61-1.7-.71-3.14.36-.45-1.8.27-1.79-.81-2.6-1.88-1.08-4.13.36-1.88,1.08-1.89.26-1.34.72-.63,1.62,1,2.78,1.71,1,.36,2.25-.81,1.25.09,1.89-2.33,1-2.07-.36-1.7-1.25-2.78,1H591.2l-.72-3.86h-1.25l-2.42,1.79-1-.36-.72-1.88-.45-2.15-.36-2.6-2.6-.63-2.06.71-2.33.81-1.53-1.43-.27-4.22-.18-.36-2.06,1.62-2.06,2.15-1.71.45-1.07-.36-.63-.9-.36-.63-1.53-.09-1.61.09-1.08-.53.54-1.44.36-3.14-.81.9-1.79,1.52-1.53-.62.09-1.17.09-1.26,1.62-1.07.63-1.62-.18-1.43-.54.71-1.53.18-1.52.36.9-1.7,1.43-1.08,1.53-1.34.68-1.32-5.39-.83.41-3.53-3.32-.42,2.08-5.18-5.81,4.15-6,4.35h-6.64l3.11-3.94-4.77,2.28-6,1.25-3.32.41-6.64-.62-5.19,1.45-1.87,2.91-3.11-2.08-5.19.63-10.37,1-4.16-.83-3.11-.62-2.07-1.87-2.91-3.11v4.15l-2.49,3.53-8.09,1.45-6.23.83-3.11-1-1-1.45-4.15,2.08-5,1.24-3.32,1.87-5,.21-.83-2.7-1.87-3.11.62-3.74-1,1-5-.42-4.36-.41,5-1.66,2.9-1.66,1.87-.83,3.11.21,3.74-1,2.49-1.45,2.49-1.46,3.32-.2,3.32-1.25,3.74-.21,4.35-.62,6.23-1.66,2.49-.42,2.28-2.28,2.91-.62,2.28-2.28.83-3.12.62-2.28h-1.66l-2.9,2.91h-2.28v-2.7l.83-1.66,1.66-1.25,2.28-1.45h2.28l1.25,1,2.07,1.24,2.7-.83.83-1.66.21-1.66,1-5.6,2.07.83,1.25,2.49,1.45,1.87,4.15.21,3.32-.63,5.19-3.11-2.91,3.74,1.66-.21,5,1-2.49,3.11-3.73.21-3.32.62-3.53,1.66-1.66,3.53,3.32,1.66,4.56.2,2.91-.62L514,1022l2.7-2.07,2.28.21,2.28.83h3.53l3.53-.21,2.28.62,2.28,1.25,1.67,1.45-1.46,2.49-2.49,2.28-5.39,3.74-2.08,3.94,7.26-3.11,7.27-4.15,5.39-3.53,3.32-1.87,2.91.83,2.28.21.42-2.08v-2.28l1.86-2.07,2.7-1,3.12.41,2.9,1.66h3.32l2.49-2.07.62,3.32,4.36,1,3.32-1.25,1.87-1.24,3.11-1,3.32.41,1.46,2.7H590l2.7.21.83,2.07,3.53.42,4.77-.42,2.91-.2.21,2.28,3.11.62,1.87-2.28,2.69,1,3.74-.42,3.11.21,3.32.41,6.85.21,4.36-.62,1.87-2.49.83-3.11V1016l-.83-2.49ZM214.17,1198l-5.35.34-4-1.68-3.68-2.34-3.69-5.36,2.68-3,4.35-2.68,3.69-2,3.68.34-.33,4.35.33,3.68V1193l2.34,1.68Zm123.54,32.14,2,2-2.34,3.35-2.34-2.68Zm-11.38,5.7-.67,4.68-1.34,3.35-1.67,4.35-5,3.35-1.34-2.68,2.68-4,1.33-2-1-1.68-5-.33-2-2.35H317l3.68-1.34ZM298.21,1193l3.68-2,2,2.35,3.35.33,5,.67-.34,2.34-3.34,1.34-5,.67h-4.68l-3.35-.33-.34-2.68Zm-6.7,12,3.68.34,4,.67.67-1.68h5l3.69-1,2.68-.34,3.34,3.69,4.69.67,4,2.34-3.68,1.34-3.35,1-3.69,1.34-5-.67-5-1.67-6,1-5-1.33-1.67-2.68Zm-22.09-37.83-2,2.68.33,3-2.34,2.68-5-.33-1.34-.34-3.35-2.68-1-5,1.34-2.34,3,.33,3.68,1,3.35-1h1.67Zm51.67-53-6.5,1.85L311.5,1118,309,1119.8l-3.71.62-4.33,3.09-5.26,3.4,1.24-4,10.2-5.57,4.33-1.85,5.88-2.79,5.87-3.09.62,2.78Zm7.72-13.6-3.09-1.55-3.09,1.55-1.54,2.78L318,1105l-4,.31,4-3.09,4-3.71,4-2.16,4-.31.93,2.47Zm14.84-15.77-5.87,1.54-6.18,2.79-4,2.16,1.23-3.71,5.26-3.4,7.73-2.78,4.33-.62,3.4-1.55,2.78-1.85,8-.31,4-.62,1.85-1.54h3.4l3.09,3.71,5.57.3,7.42-1.54,5.25-2.16-6.18,5.25-3.71,1.24-2.47-1.55-4.95,1.55-6.18,2.78,3.71-5-6.18,1.24-5.26-.62-5.26.93L348.6,1083Zm37.41.31-2.47,3.09-3.71,1.55-4.95.92-5.25,1.24.61-2.47,4-3.4,6.5-1.55,2.47-.93ZM361,1099.09l-7.11,4-9.28,1.24,2.78-2.48,4.95-2.47,6.8-3.09,4.95-1.55,13-2.16-7.73,4Zm33.08.93-10.52,2.78-9.58,4.33-8.35,2.16,3.4-2.47,9.9-5.26,16.69-5.56,5.57.62Zm7.83-50.58-4.82,1.2-.3-2.71-4.52-.6-6,.6-11.75,3-11.15,3.91-15.07,4.22L338,1062.7l-8.14,3-6.63.31-1.2-3.62-2.11,2.71L316,1069l-5.43.9-2.71,5.43-3.31.3-4.83-.3-6-1.81v-1.21l.9-1.8,5.43-2.42,5.12-2.1,7.83-1.51,4.53-2.41,3.61-2.11,5.13-.91,6.93-2.71,9.64-4.22,13-3.31,10.55-3.92,9.34-1.21,8.74-.9H395l5.73.9,2.71,3Z" transform="translate(2101.37 204.89)"/>
  <polygon class="cls-1" points="287.53 1943.36 303.99 1956.82 321.94 1965.8 335.41 1958.32 348.88 1949.34 366.83 1947.84 384.79 1952.33 393.76 1961.31 393.76 1974.78 407.23 1965.8 429.68 1964.3 452.12 1965.8 470.08 1964.3 495.51 1959.81 526.94 1953.83 556.86 1958.32 597.26 1958.32 622.7 1952.33 601.75 1938.87 573.32 1938.87 591.28 1925.4 618.21 1922.41 637.66 1925.4 657.12 1923.9 684.05 1916.42 705 1910.44 730.43 1910.44 742.4 1917.92 752.88 1937.37 770.83 1950.84 761.86 1926.89 773.83 1922.41 787.29 1931.38 805.25 1938.87 824.7 1940.36 844.15 1937.37 857.62 1922.41 871.09 1914.92 890.54 1914.92 898.02 1926.89 902.51 1916.42 914.48 1914.92 929.44 1926.89 942.91 1925.4 947.4 1914.92 968.35 1920.91 962.36 1907.44 974.33 1902.95 989.29 1910.44 984.81 1895.47 1002.76 1889.49 995.28 1877.52 971.34 1883.5 957.87 1871.53 945.9 1864.05 927.95 1856.57 924.95 1841.61 944.41 1832.63 968.35 1831.13 974.33 1811.68 980.32 1801.2 999.77 1796.72 1017.73 1786.24 1035.68 1778.76 1025.21 1768.29 1026.7 1753.32 1040.17 1741.35 1053.64 1730.88 1082.07 1718.91 1061.12 1708.43 1086.56 1708.43 1098.53 1714.42 1094.04 1727.89 1113.49 1732.38 1129.95 1736.86 1149.4 1735.37 1168.85 1741.35 1164.36 1762.3 1177.83 1775.77 1194.29 1778.76 1210.75 1777.27 1279.58 1751.83 1303.52 1739.86 1348.41 1724.89 1364.87 1715.92 1361.88 1687.49 1372.35 1666.54 1391.8 1639.6 1354.39 1657.56 1318.48 1681.5 1308.01 1680.01 1297.53 1691.97 1297.53 1675.52 1281.08 1678.51 1276.59 1685.99 1254.14 1694.97 1224.21 1703.94 1206.26 1702.45 1180.82 1691.97 1180.82 1674.02 1162.87 1669.53 1144.91 1674.02 1125.46 1668.03 1138.93 1657.56 1116.48 1663.55 1098.53 1665.04 1077.58 1660.55 1052.14 1650.08 1031.19 1654.57 999.77 1666.54 965.35 1675.52 980.32 1680.01 987.8 1685.99 965.35 1697.96 945.9 1702.45 942.91 1712.92 936.92 1723.4 921.96 1739.86 904.01 1753.32 883.06 1754.82 892.03 1765.29 878.57 1777.27 865.1 1781.75 874.08 1792.23 860.61 1798.21 847.15 1795.22 836.67 1808.69 818.72 1792.23 821.71 1811.68 809.74 1820.66 790.29 1823.65 770.83 1825.15 748.39 1822.15 736.42 1810.18 728.94 1822.15 716.97 1832.63 693.03 1838.61 667.59 1846.1 673.57 1829.63 649.63 1838.61 630.18 1843.1 606.24 1849.09 576.31 1855.07 534.42 1864.05 550.88 1876.02 549.38 1886.49 531.42 1899.96 501.5 1908.94 483.54 1905.95 474.56 1917.92 441.65 1920.91 407.23 1920.91 377.31 1922.41 347.38 1922.41 336.9 1910.44 326.43 1916.42 311.47 1931.38 287.53 1943.36"/>
  <polygon class="cls-1" points="507.48 1874.52 505.99 1856.57 517.96 1847.59 526.94 1838.61 504.49 1841.61 492.52 1847.59 494.02 1864.05 507.48 1874.52"/>
  <polygon class="cls-1" points="687.04 1708.43 703.5 1714.42 724.45 1706.94 793.28 1678.51 779.81 1668.03 687.04 1708.43"/>
  <polygon class="cls-1" points="844.15 1708.43 839.66 1720.4 853.13 1727.89 854.63 1736.86 839.66 1736.86 829.19 1741.35 817.22 1742.85 805.25 1730.88 808.24 1715.92 844.15 1708.43"/>
  <polygon class="cls-1" points="611.36 1801.22 623.66 1801.76 639.71 1795.34 652 1791.06 661.63 1788.39 673.93 1780.9 680.35 1773.95 685.16 1768.07 664.84 1770.21 642.38 1779.3 624.73 1786.25 614.57 1794.27 611.36 1801.22"/>
  <polygon class="cls-1" points="744.52 1746.67 727.41 1753.09 713.5 1758.97 700.67 1761.65 712.97 1764.32 729.01 1764.86 735.43 1758.44 741.31 1758.44 747.73 1752.56 744.52 1746.67"/>
  <polygon class="cls-1" points="608.69 1727.42 580.88 1733.84 567.51 1735.44 561.63 1736.51 557.88 1740.79 548.79 1737.58 542.91 1740.26 530.07 1742.93 518.31 1746.14 515.63 1739.72 504.94 1739.19 500.66 1731.7 504.94 1715.66 520.45 1703.89 530.07 1701.22 533.28 1691.06 521.52 1696.94 512.43 1703.89 498.52 1710.31 489.43 1715.66 479.8 1721.54 477.13 1732.24 484.08 1744 481.94 1752.56 469.64 1757.37 449.86 1765.39 446.65 1772.35 458.41 1778.23 483.55 1775.02 517.24 1768.07 541.3 1761.65 569.11 1749.88 579.27 1747.21 608.69 1727.42"/>
  <polygon class="cls-1" points="1553.95 1359.35 1548.49 1359.35 1542.62 1366.06 1535.49 1368.16 1534.65 1373.19 1529.61 1375.71 1522.9 1379.49 1518.7 1382.84 1521.22 1383.68 1519.96 1387.46 1517.02 1389.56 1516.18 1393.75 1516.6 1396.69 1522.48 1391.65 1526.67 1386.2 1532.97 1380.75 1541.36 1374.87 1549.75 1370.26 1553.53 1369 1553.95 1359.35"/>
  <polygon class="cls-1" points="1512.41 1402.14 1509.47 1406.34 1505.28 1408.86 1499.4 1410.96 1498.56 1402.98 1497.72 1395.43 1493.53 1397.11 1488.49 1398.37 1485.14 1399.21 1483.46 1402.14 1487.23 1405.92 1484.72 1408.86 1481.36 1408.86 1479.68 1414.31 1478.84 1415.99 1485.14 1417.25 1484.3 1421.44 1490.17 1418.93 1495.21 1415.99 1498.98 1415.57 1500.66 1417.67 1503.18 1415.99 1508.21 1415.57 1512.41 1402.14"/>
  <polygon class="cls-1" points="1509.47 1423.12 1502.76 1423.12 1496.05 1425.22 1493.11 1426.48 1490.59 1430.68 1490.17 1434.45 1495.21 1435.71 1495.21 1438.23 1491.85 1441.17 1484.72 1447.46 1478.42 1449.14 1470.87 1447.88 1476.32 1442.42 1478 1434.87 1484.3 1429.42 1488.91 1426.48 1498.56 1421.87 1504.44 1420.61 1509.05 1418.09 1509.47 1423.12"/>
  <polygon class="cls-1" points="1470.18 1487.79 1463.07 1489.32 1454.95 1491.35 1455.45 1486.78 1450.88 1484.75 1459.01 1484.24 1465.1 1482.21 1463.07 1485.76 1470.18 1487.79"/>
  <polygon class="cls-1" points="1464.23 1500.45 1460 1501.99 1458.46 1504.68 1458.46 1508.53 1452.69 1509.3 1448.84 1510.45 1446.53 1511.22 1445.76 1516.22 1452.3 1516.22 1447.68 1520.07 1442.68 1521.61 1438.84 1523.53 1436.91 1527 1436.14 1530.84 1433.45 1532.38 1424.98 1532.38 1421.91 1533.92 1418.44 1537 1413.44 1527.38 1411.9 1522.38 1411.52 1515.07 1407.67 1506.99 1413.06 1510.07 1416.52 1508.14 1418.83 1503.53 1422.29 1501.6 1429.6 1501.99 1431.53 1505.84 1429.6 1512.38 1427.68 1515.84 1428.06 1519.69 1431.91 1518.92 1434.22 1516.22 1437.3 1511.61 1438.45 1507.37 1440.37 1504.3 1449.99 1501.6 1456.92 1500.45 1464.23 1500.45"/>
  <polygon class="cls-1" points="1440.34 1249.33 1428.39 1253.32 1419.28 1257.87 1422.7 1249.33 1414.16 1253.32 1408.46 1258.44 1400.5 1259.58 1394.8 1261.29 1389.68 1265.84 1379.44 1269.26 1372.61 1274.95 1365.78 1280.07 1364.64 1288.61 1360.65 1293.73 1354.39 1300.56 1350.41 1296.01 1344.14 1297.15 1346.42 1301.7 1345.28 1307.96 1341.87 1313.65 1334.47 1317.07 1332.76 1326.18 1325.36 1327.88 1319.1 1335.85 1312.27 1338.13 1306.01 1342.68 1300.32 1346.67 1298.04 1340.41 1290.64 1347.24 1283.81 1355.78 1287.22 1363.18 1279.26 1371.14 1291.21 1372.28 1291.21 1376.84 1302.02 1376.84 1294.62 1383.1 1292.35 1389.36 1286.09 1393.34 1279.26 1400.17 1273.56 1409.28 1274.7 1418.96 1272.99 1425.79 1267.3 1434.9 1276.98 1434.33 1272.42 1444 1258.76 1453.68 1262.18 1457.66 1259.33 1462.79 1253.64 1469.05 1242.83 1468.48 1234.29 1471.33 1246.24 1477.59 1243.39 1486.69 1245.67 1492.96 1250.22 1495.23 1256.49 1491.82 1261.61 1495.23 1264.46 1501.49 1263.89 1505.48 1258.19 1512.88 1254.21 1519.71 1254.78 1526.54 1259.9 1521.98 1268.44 1515.72 1277.55 1513.45 1281.53 1510.03 1286.09 1510.6 1287.22 1516.29 1283.24 1523.12 1282.67 1527.11 1292.35 1520.85 1298.04 1512.88 1310.56 1510.03 1320.81 1504.34 1328.21 1503.77 1327.07 1497.51 1336.74 1493.53 1345.85 1492.39 1351.55 1493.53 1354.96 1498.08 1357.81 1508.32 1359.51 1517.43 1359.51 1525.4 1358.94 1533.37 1354.39 1539.06 1348.7 1544.75 1341.3 1544.75 1335.04 1544.75 1344.14 1548.17 1340.73 1552.15 1330.48 1554.43 1328.21 1557.85 1329.35 1562.97 1324.22 1566.95 1314.55 1570.37 1311.7 1574.92 1315.68 1576.06 1324.79 1572.64 1332.76 1570.94 1333.9 1565.24 1339.59 1561.83 1344.14 1562.97 1346.99 1567.52 1345.28 1574.92 1340.73 1581.18 1332.76 1584.03 1322.52 1586.88 1325.36 1590.86 1343.58 1589.15 1353.82 1580.61 1358.38 1572.64 1362.93 1568.09 1369.19 1560.12 1372.04 1551.58 1376.02 1540.77 1375.45 1534.51 1370.33 1519.71 1367.48 1511.74 1373.17 1512.31 1377.73 1519.71 1383.99 1528.25 1386.84 1535.08 1386.27 1544.75 1382.85 1550.45 1378.87 1559.55 1374.31 1569.8 1367.48 1579.48 1362.93 1589.72 1346.99 1596.55 1333.33 1600.54 1328.78 1598.26 1320.81 1599.4 1307.72 1603.95 1299.18 1615.34 1293.48 1619.89 1289.5 1626.15 1306.58 1624.44 1323.08 1618.18 1335.61 1612.49 1355.53 1605.66 1370.9 1592 1375.45 1585.74 1386.84 1582.89 1401.07 1577.77 1413.02 1571.51 1420.99 1558.98 1410.74 1565.24 1398.79 1570.94 1385.7 1574.35 1389.11 1564.68 1394.8 1560.69 1401.63 1559.55 1409.04 1554.43 1414.73 1547.03 1412.45 1541.34 1407.9 1530.52 1402.2 1523.12 1404.48 1514.59 1399.36 1508.32 1401.07 1502.63 1407.33 1497.51 1414.73 1494.66 1424.4 1492.39 1432.37 1496.94 1437.49 1497.51 1442.05 1491.25 1445.46 1487.83 1435.79 1484.99 1431.8 1479.86 1429.53 1471.33 1424.4 1470.19 1424.97 1477.02 1418.71 1477.59 1416.43 1469.62 1422.7 1461.65 1417.57 1458.8 1413.02 1463.93 1406.19 1467.34 1399.93 1465.07 1394.8 1464.49 1387.4 1462.79 1381.14 1462.79 1373.74 1464.49 1367.48 1465.07 1366.91 1456.53 1373.17 1453.11 1362.93 1452.54 1361.22 1445.71 1357.24 1441.73 1360.65 1434.33 1364.07 1429.77 1370.33 1428.63 1362.36 1424.65 1362.93 1418.39 1358.94 1426.36 1352.68 1426.36 1345.28 1425.79 1353.82 1420.1 1360.08 1410.99 1357.81 1404.16 1358.94 1389.36 1354.39 1398.47 1353.25 1403.02 1350.97 1410.99 1345.28 1416.68 1343.01 1408.14 1340.73 1401.31 1337.31 1400.17 1340.16 1395.05 1341.87 1388.79 1346.42 1385.94 1352.11 1389.36 1354.39 1384.24 1355.53 1377.41 1366.34 1365.45 1371.47 1356.91 1380.01 1352.36 1387.97 1338.13 1395.37 1342.12 1397.08 1330.73 1402.2 1324.47 1408.46 1322.76 1420.99 1309.1 1434.08 1290.32 1462.54 1244.21 1449.45 1253.32 1451.16 1244.21 1440.34 1249.33"/>
  <polygon class="cls-1" points="1447.74 1283.49 1460.83 1272.1 1451.72 1274.95 1447.74 1283.49"/>
  <polygon class="cls-1" points="1003.17 1612.1 989.64 1607.03 982.87 1612.1 971.02 1601.95 954.1 1595.18 940.57 1590.11 925.34 1585.03 910.11 1583.34 894.88 1583.34 872.88 1588.41 857.65 1593.49 849.19 1600.26 849.19 1613.79 833.96 1625.64 815.35 1629.02 800.12 1637.48 791.66 1620.56 781.51 1608.72 767.97 1600.26 771.36 1590.11 754.44 1588.41 730.75 1591.8 710.44 1591.8 691.83 1591.8 700.29 1579.95 681.68 1576.57 688.44 1566.41 696.9 1556.26 686.75 1546.11 673.22 1546.11 696.9 1532.57 718.9 1527.5 737.51 1502.12 747.67 1485.19 752.74 1466.58 767.97 1466.58 783.2 1447.97 801.81 1429.36 823.81 1415.82 828.89 1397.21 837.35 1388.75 837.35 1361.67 852.58 1348.13 832.27 1339.67 817.04 1331.21 844.12 1329.52 866.11 1326.14 879.65 1327.83 896.57 1324.45 913.49 1314.29 923.64 1324.45 930.41 1337.98 938.87 1324.45 955.79 1329.52 954.1 1312.6 971.02 1295.68 998.1 1288.91 1016.71 1282.14 1038.71 1273.68 1065.78 1249.99 1072.55 1233.07 1099.62 1217.84 1114.85 1202.62 1130.08 1187.39 1153.77 1177.23 1170.69 1178.93 1190.99 1173.85 1175.77 1202.62 1155.46 1209.38 1162.23 1221.23 1163.92 1239.84 1150.38 1255.07 1145.31 1268.61 1130.08 1270.3 1109.78 1300.76 1103.01 1317.68 1099.62 1331.21 1094.55 1344.75 1096.24 1361.67 1108.08 1381.98 1099.62 1392.13 1109.78 1405.67 1099.62 1410.74 1108.08 1419.2 1118.24 1431.05 1126.7 1439.51 1121.62 1449.66 1128.39 1461.51 1136.85 1475.04 1140.23 1488.58 1153.77 1490.27 1169 1507.19 1160.54 1520.73 1153.77 1530.88 1163.92 1537.65 1175.77 1532.57 1179.15 1542.73 1162.23 1552.88 1143.62 1561.34 1121.62 1557.95 1119.93 1569.8 1106.39 1573.18 1092.85 1571.49 1074.24 1574.88 1070.86 1561.34 1040.4 1547.8 1042.09 1534.27 1025.17 1527.5 1008.25 1512.27 989.64 1505.5 971.02 1498.73 991.33 1490.27 960.87 1486.89 981.18 1476.73 957.49 1458.12 972.72 1449.66 962.56 1436.12 984.56 1422.59 938.87 1429.36 908.42 1429.36 884.73 1436.12 845.81 1449.66 839.04 1464.89 825.5 1475.04 803.51 1493.65 771.36 1522.42 805.2 1525.81 827.2 1532.57 842.42 1544.42 857.65 1559.65 879.65 1542.73 889.8 1559.65 908.42 1552.88 935.49 1557.95 962.56 1569.8 982.87 1579.95 996.4 1591.8 1008.25 1596.87 1003.17 1612.1"/>
  <polygon class="cls-1" points="1212.89 1164.35 1218.83 1142.09 1218.83 1127.24 1205.47 1137.63 1211.41 1110.92 1230.7 1090.14 1261.87 1069.36 1297.49 1048.58 1316.79 1024.83 1315.3 1044.13 1344.99 1021.86 1356.86 1011.48 1380.61 1005.54 1371.7 1018.9 1402.87 1009.99 1414.75 1001.09 1419.2 983.27 1450.37 963.98 1309.37 986.24 1379.13 963.98 1439.98 950.62 1475.6 934.29 1497.86 926.87 1502.32 915 1493.41 903.13 1511.22 904.61 1524.58 900.16 1533.49 920.94 1555.75 952.11 1592.86 993.66 1600.28 1023.35 1610.67 1045.61 1613.63 1064.91 1582.46 1063.42 1554.27 1054.52 1533.49 1054.52 1511.22 1057.49 1471.15 1057.49 1442.95 1045.61 1420.68 1036.71 1404.36 1041.16 1396.94 1053.03 1377.64 1057.49 1386.55 1063.42 1389.52 1072.33 1380.61 1078.27 1347.96 1079.75 1322.72 1091.62 1285.62 1104.98 1307.88 1103.5 1312.33 1109.43 1355.38 1122.79 1386.55 1124.28 1367.25 1134.67 1340.54 1133.18 1322.72 1137.63 1309.37 1146.54 1272.26 1148.03 1238.12 1155.45 1212.89 1164.35"/>
  <polygon class="cls-1" points="1632.93 1088.65 1612.15 1082.72 1595.82 1079.75 1578.01 1084.2 1594.34 1088.65 1591.37 1102.01 1604.73 1103.5 1619.57 1099.05 1632.93 1088.65"/>
  <polygon class="cls-1" points="1653.18 1153.17 1649.28 1155.12 1648.63 1147.32 1655.13 1138.22 1657.08 1127.82 1657.73 1116.12 1659.03 1105.72 1659.68 1098.57 1662.28 1090.77 1659.03 1081.03 1662.93 1071.28 1664.88 1062.83 1658.38 1057.63 1655.13 1045.93 1646.03 1043.98 1638.23 1042.03 1636.94 1047.23 1625.89 1041.38 1618.09 1036.18 1612.89 1030.33 1612.24 1014.73 1622.64 1008.88 1627.84 1007.59 1632.39 1017.33 1638.23 1023.83 1647.98 1027.73 1649.93 1018.63 1658.38 1020.58 1664.23 1009.53 1653.83 999.79 1648.63 990.69 1638.23 984.84 1647.33 977.69 1644.73 966.64 1638.23 967.94 1633.69 962.74 1628.49 958.84 1616.14 958.84 1608.34 965.34 1598.59 969.89 1589.49 962.74 1579.09 944.54 1568.05 930.25 1559.6 913.35 1556.35 900.35 1547.25 882.15 1552.45 875.65 1541.4 871.1 1522.55 877.6 1507.6 884.1 1479.01 888 1486.15 876.3 1502.4 863.95 1531 856.8 1538.8 853.55 1552.45 843.16 1557 834.71 1566.74 832.76 1573.24 823.66 1578.44 812.61 1589.49 810.66 1586.89 799.61 1603.14 797.66 1627.19 792.46 1634.99 791.16 1644.09 787.91 1656.43 780.76 1674.63 767.77 1679.83 766.47 1685.68 761.27 1683.08 753.47 1671.38 750.87 1657.73 750.87 1641.48 754.77 1627.19 756.07 1611.59 754.77 1595.34 753.47 1586.57 759.12 1572.52 762.08 1564.75 762.45 1557.36 762.08 1554.4 770.21 1547.01 775.39 1531.85 779.46 1521.13 780.57 1528.89 766.52 1535.55 763.56 1541.46 763.56 1539.98 754.32 1539.24 740.26 1542.94 734.35 1558.1 730.65 1568.08 732.87 1570.67 740.26 1575.11 747.66 1578.06 745.07 1582.87 745.81 1586.57 738.79 1586.2 732.5 1588.42 725.48 1603.57 710.32 1614.67 706.99 1625.02 714.38 1630.56 720.3 1638.7 726.96 1643.51 726.96 1653.49 725.85 1667.17 716.97 1671.23 710.69 1687.13 702.18 1696.74 692.57 1728.17 664.47 1737.05 654.12 1745.92 643.4 1760.71 637.11 1777.35 633.41 1785.85 625.28 1792.13 611.23 1793.24 602.36 1804.34 597.92 1813.95 592.38 1822.08 583.13 1828 573.15 1853.88 552.08 1870.52 532.48 1882.35 515.47 1894.92 498.83 1906.01 488.11 1919.69 463.71 1928.93 449.29 1941.13 441.9 1954.07 439.31 1964.43 435.61 1970.34 433.39 1973.67 440.05 1967.38 452.62 1961.47 465.93 1953.33 479.24 1944.09 498.1 1938.55 507.71 1933.37 513.62 1927.08 520.28 1921.54 530.26 1918.95 543.2 1916.73 548.01 1913.77 556.51 1910.08 564.65 1907.12 573.89 1903.42 580.17 1899.72 586.09 1898.62 591.27 1894.55 598.66 1884.57 614.56 1877.91 625.28 1869.41 637.11 1860.16 648.57 1850.92 660.03 1842.79 667.06 1836.87 676.3 1832.06 682.22 1830.59 687.39 1825.78 689.61 1819.12 694.79 1808.03 705.51 1801.75 715.49 1793.24 725.11 1784.74 733.98 1776.97 741.74 1776.61 751.36 1779.56 755.79 1782.15 758.75 1787.7 757.27 1780.67 765.78 1772.91 775.39 1767.36 783.15 1763.3 791.66 1759.6 803.86 1757.38 816.43 1752.94 829 1748.14 834.91 1741.11 837.5 1737.79 841.94 1735.2 846.75 1734.09 861.53 1734.46 868.93 1732.24 877.43 1727.43 892.59 1721.52 905.53 1715.97 915.51 1711.16 935.48 1705.62 959.14 1700.44 973.93 1699.33 981.33 1699.33 987.61 1694.16 998.7 1691.94 1007.21 1691.57 1020.15 1691.57 1032.72 1688.61 1039.74 1689.35 1048.62 1691.57 1054.53 1690.46 1061.19 1689.72 1066.36 1687.87 1071.91 1687.87 1077.45 1686.76 1081.89 1683.81 1085.22 1681.59 1090.77 1679 1097.79 1677.52 1105.92 1677.15 1111.84 1677.52 1119.97 1678.26 1125.52 1674.93 1125.15 1676.04 1133.28 1677.52 1136.24 1669.76 1140.68 1661.25 1147.33 1653.18 1153.17"/>
  <path class="cls-1" d="M-827.36,709.22l-5.06-3.8-3.8-5.06-7,2.53L-851.4,708l-2.53,4.43-6.33,5.69-8.86,1.9-.63,3.8L-891.89,739l-14.56,12-34.16,20.25-60.1,38.59-98.07,60.11,11.29-4.11,8.84-3.76,6.21-4.14,3-2.63.94,1.69,5.07-1.5,2.64-1.51,5.08-1.69,3.76-1.32,4.32,1.32.94,3.76-.56,4.14-.38,3.2-.94,4.89-1.88,4.89-4.7,4-5.45,3.76-4.14,1.13-3.58.19-4.7,3.76-3.76,4.32-3,.38-3.57,3.57-3.2,3.77-3.57-.38v1.69h-1.51l-1.5-3.2-2.45,2.07L-1099,900l-3.57,1-3,3-6.21,1.51-9.59,3.57,1.69,1.34,6.33-1.27,6.33,1.9,3.16,3.8v8.22l3.8,5.06,3.16-6.33-.63-5.69,5.06-.63L-1088,925l3.16,8.22h5.06l5.06,3.8,3.17,5.69,7,2.53,10.12-1.26,3.8,2.53,5.69-1.9,8.22,2.53,11.39,2.53,11.39,3.17-4.43-5.7,10.76-5.06,10.12-7.59,7.59-5.06,13.29-8.86-13.92-3.16-7,.63,5.69-4.43,6.33-1.9,8.23.63,5.06-5.06,3.16-7v-5.69l-3.16-7-1.9,8.86-3.8,5.69-6.32,2.53-5.7-7-1.9-7,.64-8.22,3.79-5.69V868l-3.79-10.13-3.8-4.42-.63-10.13,1.9-12,7-16.45,14.55-10.75,8.85-7,7.6,1.9,2.53-8.23,7-7,13.92-5.06,10.12-3.16,8.22,1.26,5.7-5.06.63-8.86L-897,759.2l9.49-5.06,4.43-1.9,11.39,3.16,20.25-19,19-16.45,15.81-13.92ZM-1025.8,916l-3.19-.56h-1.32l-1.13,1.5-1.69-.56-1.88-.94-1.7-.94-.37,3-2.26,2.63-4.51,2.26-2.26-1.69-.38-3.77,2.64-3,1.69-1.69,2.63-2.07,2.45-2.44,2.07-1.51,2.44.75,3.2,1.51,3.39.56,1.69,2.07.56,3.76Z" transform="translate(2101.37 204.89)"/>
  <polygon class="cls-1" points="1010.08 1205.5 1012.34 1200.99 1016.21 1200.02 1022.99 1197.44 1023.31 1192.6 1019.12 1193.89 1014.92 1189.05 1009.44 1186.47 1004.92 1184.21 995.57 1181.31 990.08 1182.6 988.8 1184.06 988.62 1187.01 988.28 1189.44 987.76 1191.18 986.37 1192.22 986.02 1194.83 984.63 1197.09 983.24 1198.13 982.37 1199.69 981.85 1201.25 979.25 1204.55 977.51 1207.33 975.08 1210.81 973.69 1212.2 971.77 1214.11 969.87 1215.84 966.57 1217.23 967.78 1219.84 967.43 1222.79 964.13 1223.31 965 1225.57 967.43 1226.27 965.7 1229.05 962.74 1229.39 960.49 1231.3 957.18 1233.91 955.27 1237.38 951.11 1238.77 950.58 1239.99 949.37 1241.9 946.59 1242.77 944.33 1242.42 943.29 1245.72 943.98 1248.5 945.89 1250.58 944.16 1256.14 942.94 1259.1 941.9 1261.88 940.16 1265 945.55 1264.13 947.11 1261.35 949.37 1257.88 952.67 1254.58 953.02 1250.06 950.58 1246.42 951.8 1243.29 958.92 1241.55 962.57 1241.2 971.43 1237.73 978.55 1233.21 987.06 1229.39 990.36 1222.79 996.09 1218.62 998.18 1216.37 996.96 1214.63 1000.96 1210.46 1004.08 1209.77 1007.38 1207.85 1010.08 1205.5"/>
  <path class="cls-1" d="M455.1-139.11h-19l-10.88-4.08-4.08-15v-16.32l2.72-9.52v-9.52l-8.16-10.88H403.42L381.66-203l-13.59,1.36-8.16,6.8-9.52,8.16-15,6.8-15,4.08-15,1.36-17.68,2.72-13.6,15-21.76,5.44H222.55l-16.32,8.16-17.68,2.72H175l-34,2.72-38.08,4.08-19,1.36-34,9.52-17.68,9.52L13.12-101,.88-95.59l-27.2,4.08L-42.64-82l-19-4.08-4.08,10.88-9.52,13.6-15,8.16-10.88,9.52-15,1.36H-159.6l-8.16,8.16-8.16,15-9.52,9.52L-199-5.83H-229l-8.16,10.88-9.52,6.8-27.2,10.88,5.44,10.88L-267,51.29l-4.08,12.24-16.32,10.88-19,6.8H-335l-27.19-4.08,6.8,16.31-4.08,10.88-8.16,9.52-10.88,5.44-8.16,6.8,5.44,9.52,2.72,9.52-10.88,6.8h-15l-13.6-8.16-12.24,5.44-9.52,17.68-16.32,9.52-10.88,12.24-28.56-1.36-15-1.36-2.72,13.6-9.52,4.08-13.6,6.8-10.88,10.88-13.6,15-8.16,13.6-10.88,13.6-6.8,9.52v9.52l-9.52,13.6-9.52,15-9.52,24.48-10.88,8.16-2.72,15-15,16.32-19,23.12-25.84,34-16.31,13.59-24.48,29.92-24.48,25.84-13.6,17.68-29.92,8.16-4.08,15-10.88,6.8-9.52,10.88-20.4,5.44-68,59.84-23.12,17.68-46.24,34-13.6,10.88-31.28,1.36-9.52,23.12-16.31,13.6-38.08,20.4-36.72,27.2-50.32,35.35-29.92,19-35.36,27.2-34,28.56-19,16.32-28.56,34-24.48,39.44-36.72,50.32-19,24.48-28.56,42.16-1.36,15L-1457,1144.7l-35.36,32.63-10.88,23.12-15,25.84-10.88,19,5.44,9.52,19,6.8,12.24-9.52,5.44-13.6,12.24-12.24,12.24-8.16-1.36-9.52,8.16-10.88,10.88-13.6,9.52-9.52,15-9.52,16.32,1.36,9.51-6.8,10.88-10.87,16.32-8.16,12.24-8.16,12.24-8.16,9.52-15,5.44-17.68,2.72-13.6,15-17.68,16.32-13.6,10.88-10.88,24.48-21.76,15-6.8,9.52-4.08,8.16-9.52,12.24-4.08,13.6-8.16,13.6-6.8-24.48,4.08-20.4,4.08,10.88-17.68,12.24-16.32,10.88-13.6L-1185,923l17.68-16.32,15-13.6,17.68-10.88,27.2-17.68,31.28-19,69.35-46.24,87-53,43.52-25.84,80.24-49,51.68-29.92,32.64-13.6,21.76-13.6,27.19-12.24,36.72-10.88-61.2,10.88-27.19,4.08,16.32-29.92,19-25.84,25.84-5.44,19-8.16,21.76-10.88,4.08-17.68-19-6.8,12.24-32.64,28.56-24.48,25.84-21.75,24.48-20.4,36.72-24.48,32.64-9.52,36.72-19,35.36-17.68,27.2-16.32L-326.88,292-297,275.68l21.76,4.08,25.84-16.32,23.12-15,10.61-25.1,6.73-7.21,6.73-5.29,6.73-3.36,7.21-12.5,16.35-3.85,5.29-7.21,10.1-1.45,11.54-.48,7.69,1h6.73l4.93,7,36.72-1.36,23.12-5.44,38.08-23.12L-5.92,149.2l31.27-20.4,9.52-19,17.68-9.52L81.11,82.57l39.44-27.2,29.92-24.48,29.92-19,8.16-13.6,13.6-15,17.68-5.44,24.48,2.72,15,2.72,23.12-6.8,21.76-8.16,27.2-8.16,31.28-13.6,21.75-12.24,20.4-12.24,31.28-13.6,15-12.24,19-19v-19ZM423.86-120.4,409-107.9l-20.67,6.73L372.41-95.4h-6.73l-9.14-4.33-8.17-4.8-10.58,7.21-5.29,5.77-6.73,6.25-7.21-3.85-5.77-2.4-10.58,2.88,6.25,9.14-7.69,6.73-14.43,3.85-7.21-1-13.94-1-2.89,6.73-13.94,4.81-10.58-1.92L230.57-55,221-47.32l-10.1,3.85-9.13,3.85-7.21-.49-7.22-3.84-3.84-6.73-9.62-8.66L181-40.59l-.48,14-8.65,9.13-10.1,6.25-14.9,1-3.85,2.88-7.21,3.85-10.1,1.44-16.35-1,6.25,7.21.48,10.1-.48,11.54-3.36,13.94-5.77,10.1-6.73,8.65-8.18,6.73-.48-3.36-3.85,4.33-9.13,5.28-12,1.93,1.44,3.84-7.21-.48-12.5-2.88-17.31-.48-1,4.33-6.25,3.84-9.62,4.33-3.37,2.88L5.54,93.08.26,98.37l-6.74,4.33L-17,111.83l-15.39,4.81-9.14,3.85-3.84,7.21-6.25,10.1-5.77-1-6.73,1.44-5.29,3.85-5.77,10.09-10.58,2.89-6.25,5.29-15.39,11.06-5.77-1.93-6.73-5.77-7.69,9.14-5.77,3.84-8.66,1h-4.8l-5.29-1.93-4.33-4.81-2.41-4.32v-7.22l5.29-5.28-7.69-.49-11.06,1.45-9.13.48-5.29,7.69-3.37,6.73-5.77,4.81-7.21,1.44-7.21-1.92-4.81-3.85-8.66-3.84-1.92,4.32-3.85,5.29-2.88,5.29,2.4,6.73,3.85,5.29,2.89,6.25,1,9.62.48,10.58-4.81,8.65-6.35,3.49-12.24,2.72-13.6,8.16-17.68-1.36-12.24-5.44h-13.6l-13.6-1.36-17.68-5.44-6-4.13-2.89-4.81L-339.2,207l12-6.25,19.23,1.44,18.27.48,21.64-.48-9.62-3.37-11.54-5.29-11.06-8.17L-315.64,171l-7.7,2.41-18.27,1-7.69-1.44-7.69-6.73-1.93-6.74,4.33-10.09,7.69-6.73,9.62-9.14,11.54-7.21,13-5.77,16.83-1.92,13.95-1,8.65,1.93,6.73-2.89,2.89-4.33-1-5.77,1-8.17,8.17-5.29,11.06-6.73,11.06-3.85,15.86-3.36,14.43,1.44-7.69-5.29L-215.63,70l1.44-8.65,4.33-10.58,7.69-3.85,11.54-10.09,14.43-.48,13-1.93,13.94-9.13L-135.82,19l6.74-6.26,4.32-9.13L-115.62-5l16.83-14.42L-82-30l16.82-13,24-12.5,18.75-10.58,12-4.81,13.46-.48L14.2-68.47l12-3.85,10.1-11.06,5.29-9.13,8.17-6.74,10.1-3.36,19.71,1.44,7.69,1.44,14,3.85L115.65-92l-5.77-8.18-2.4-5.77,5.77-5.77,11.06-4.32,12.5-2.41,16.35-1,18.75,1,8.65,1,12.5,6.25,20.68,8.66-12-8.18-4.81-10.09,6.73-6.73,9.62-7.22,17.31-2.4s17.79-.48,19.71-.48h22.6l16.83,1,11.54,1.92,14.9-3.36-6.73-3.37-14.9-4.81-2.41-6.25,6.73-5.29,12-5.77,26-2.88,19.23-10.1,23.08-7.21,17.79-2.89,14.91,1,4.32,7.69-1.92,12-4.33,9.62,1.45,4.32,3.84,11.54,3.85,4.81,5.29,5.77Z" transform="translate(2101.37 204.89)"/>
  <path class="cls-1" d="M-336-10.86l-11.29,3.29-13.18,3.29-11.29,2.36L-384.42.43l-19.76,2.82-16.46,6.59-28.7,11.76-19.29,8.47-28.7,7-18.82,5.65-16.46,8-6.12,3.76-12.7,7.06-14.11,5.17-14.12,2.35L-594.71,71l-18.35,5.64L-629.52,87l-10.83,13.17-12.23,8-11.29,9.41-8,5.18L-685,125.1l-10.35.47h-17.4l-13.65.47-10.82.94-13.64.94H-758l3.29,8.47-2.82,7.06L-766,150.5l-4.23,2.36-19.76,5.64h-8.94l-13.17,3.76-9.88,2.83-10.35.47-7.06-1.88-17.87,3.76-28.23,9.88-14.11,4.23-9.88,3.3-.95,3.76-8,4.23-17.41,3.77-16,5.64-18.82,8-17.88,6.12-15,4.23L-1012,222l-21.17-.94-23.53-.47,4.24,4.71,1.41,10.35-.94,8.93-1.88,6.12-8.47,1.88-7.53,5.18-6.59,4.7-12.23,4.23-7.52,8-8,6.12-12.7,9.41-12.71,7-10.35,2.83h-6.58l-1.41-5.65-6.12-3.76-9.41,3.29-7.53,2.82-11.76,3.3-6.58,3.29-2.83,3.29-8.46,4.24-7.06.47h-7.06l-10.82,1.41-8.47,4.23-8-9.41.47-5.64-46.11,19.76-15,7.05-18.82,8.47-9.41,6.12-10.35,2.35-5.65.47-10.82,8.94-7,3.76-10.35,6.12-5.18,8.94-3.29,7.53-10.35,5.17-8.47,2.35-9.88-1.41-2.35-.47-11.29,2.35-15.53,11.76h-10.35l-2.82,6.59-7.53,5.65-11.29,6.58-10.35,8-8.94,7.53-.47,4.7-1.88,6.12-9.88,2.82-13.64,12.7-20.7,17.88-30.11,26.82-18.35,17.4-27.75,26.82-13.65,12.23-7.52,7.06-8,.47,1.88,8-3.76,5.64-6.12,5.65-7.53,4.7-5.17,3.29-7.06-1.41-8,6.59-15.35,9.81-18.6,7.58-17.9,10.33-18.6,9.65-22,10.33-18.6,13.77-16.53,7.58-22.73,12.4-13.78,6.2-22.73,11.71-11,7.57-13.08,4.82-15.16,9.65-11,8.26-19.28-2.75-9.65,9-17.9,26.17-15.85,22L-1996.18,814l-6.89,13.77-21.35,39.26-8.95,9.65-6.89,6.89-1.38,10.33-3.44,6.2-6.2,4.13-4.13,10.33-1.38,9-2.07,6.88-8.26,4.14-4.82,6.19-12.4,15.85-2.76,10.33-7.57,10.33-6.2,7.58.81,193.77,18-32.67,19.65-21.28,18-19.65,27.83-16.37-6.55,21.28-13.1,11.46-1.63,22.93-14.74,14.73-13.1,24.56-18,24.56-16.18,6.47.57,133.2h9.49l12.4-2.76,8.95-6.89,11.71-9,11.71-11,8.95-10.33,10.33-14.47,13.78-16.53,9-13.77,12.4-14.47,16.53-24.8,13.09-13.77,9-9.64,5.51-6.2,9-10.33-6.89,6.19-4.13-4.13-5.51,5.51-11,9.64-3.45-4.13,4.82-8.26,4.83-8.27,7.57-9,6.2-9,5.51-4.82,8.27-9,4.82-6.89,11.71-17.22,11-10.33,10.33-8.27,5.51-7.57,9.64-6.2,6.2.69,3.45,4.82,1.37,4.82,4.14,1.38-2.76,4.82v13.08l.69,10.34-4.82,9-3.44,7.58-8.27,15.15-6.2,9.64-11,12.4-3.44,9-4.83,3.44-9,12.4-9.64,13.77-7.58,13.78-11,15.84-9,14.47-6.2,9.64-6.89,9.64-5.51,11-12.4,13.78-15.84,24.11-6.89,5.51-7.58,4.13-11.7,2.75-7.58,4.14-11,.68-4.82-3.44-5.51,5.51-.69,9h7.57l6.2,2.06-.69,7.58-2.06,2.75,2.06,3.45,3.45,5.51-.69,7.57-4.13,2.07-9.65,6.2-8.95,7.58-8.27,8.26-6.19,7.58-6.2,6.89-15.25,20,.35,83.47,19.11-10.42,31.28-19.12,22.59-10.42,46.92-15.64,22.58-3.48,26.07,3.48,50.39-46.92,33-34.75,29.53-36.49,26.07-46.91,27.8-50.4,43.44-55.6,33-27.8,20.85-5.22-10.43-7,24.33-22.59h-27.8l-43.44,5.22-10.43-19.12L-1725,1112l27.8-12.16,22.59-5.21,43.44-20.86,26.07-17.37,13.9-22.59,7-24.33,26.06-24.33,17.38-20.85,12.16-27.8,27.8-20.85,29.54-12.16,45.18-15.64,12.17-13.9-15.64-12.17,53.86-22.59,24.33-34.75-15.64-8.69,36.49-26.06,7-19.12,24.33-8.68,36.49-19.12,13.9-22.59,22.59-17.37,48.65-52.13,20.86-20.85,24.32-1.74,24.33-1.74-10.43-13.9,12.17-13.9,29.54-15.64,34.75-20.85,40-12.16,38.23-12.17,55.61-13.9,40-6.95-5.21-17.38L-943,496.89l-36.49,6.95-20.85,1.74-5.21-6.95h-19.11l20.85-24.33,15.64-15.64,29.54-31.27,13.9-8.69,15.63-17.38,13.91-8.69h15.63l5.22,6.95,22.59-12.16,36.49-15.64,17.37-5.21L-811,354.4-837,356.14l-19.11,5.22-13.91-7,6.95-19.11,40-27.8,20.85-10.43,29.54-1.73-15.64-10.43V269.26l20.85-19.11,43.45-38.23L-698,194.54l15.64,3.48V180.64l20.85-20.85,19.11-8.69,1.74-13.9,13.9-19.11L-607.66,99l17.37-7h17.38L-559,95.5l-3.47-20.85L-545.11,66l24.33-3.48h33L-460,64.22l12.16-3.48L-453,45.11l22.59-8.69,17.37-7,1.74-13.9,29.54-8.69,26.06-1.74,19.12-5.21,10.42-12.17ZM-1782.47,803.75l-14.73,19.64L-1811.94,848l-11.46,24.56L-1843,892.16-1884,923.27l-22.92,6.55-14.74,21.28-32.74,16.38,11.46-16.38,6.55-24.56,6.55-22.92,8.18-21.28,11.46-22.93,21.29-14.73,11.46-26.2,18-26.19,14.74-22.93,3.27-18,18-16.37,29.47-26.2L-1753,674.4l21.28-8.19-60.58,55.67L-1753,699l47.48-37.66,14.73-14.73,42.57-34.39,27.84-19.65,3.27,8.19,19.65-9.82,29.47-24.56,22.92-18,18-3.28,14.74-4.91,9.82-6.55,18-4.91,16.38-14.74,19.64-18,11.47-21.28,13.09-16.37,16.38-1.64,16.37-36,11.46,4.91,29.47-18,29.47-18,40.94-29.47,31.11-13.1,22.92-6.55,9.82,4.91-3.27,14.74-13.1,16.37-13.1,18-18,16.37h-16.37L-1288,419l1.64,13.1-3.28,16.37-14.73,4.91-13.1-11.46-9.82,19.65-8.19,13.1,3.27,14.73-6.55,13.1-14.73,8.19-8.19,9.82-13.1,11.46-8.18,14.74-39.3,37.66-19.65,13.1-29.47,22.92-39.29,18-27.84-8.19-18,9.83-22.92,19.64-8.19,9.83-39.29,26.19-32.75,14.74-32.74,27.83-11.46,16.38-11.47,14.73-3.27,21.29-24.56,19.65-36,31.1,27.83-49.11ZM-1284.2,648.3l-10.82,9.83-7.87,10.82-11.81,6.89-15.74,5.9-22.62,6.89-14.76,3-10.82-1-7.87,8.85-9.84,7.87-10.82,12.79-11.8,13.77-10.82,14.76-4.92,9.83-8.85,15.74L-1457.34,790l2.95-20.66,7.87-11.8-2-10.82,4.92-12.79-10.83,3.94-1,4.91-4.92,8.86-7.87,15.74-8.85,1,2-9.84-10.82-2-3,7.87-8.85,8.85-9.84,12.79-9.83,19.67-5.91,18.69L-1534.07,846l-9.83,20.66,5.9,2,1,10.82-1,9.84-4.92,11.8-10.82,1,3,5.9-7.87,10.82-10.82,10.82-11.81,6.89-10.82,1-8.85,13.77-8.85,6.89h-11.81l-8.85,6.89v9.83l-14.76-2-7.87,4.92-8.85,3.94-14.76,3.93-3-7.87,4.92-18.69,10.82-21.64,18.69-25.58,16.73-24.59,19.67-25.58,22.63-30.49,16.72-25.58L-1540,785l20.66-13.77,19.67-18.69,22.63-15.74,41.31-21.64,19.68-10.82,32.46-18.69,20.66-9.84,7.87-1,8.85-5.91,20.66-11.8,18.69-12.79,16.73-5.9,8.85-2Zm464.07-443.62-9.26,10.1-16,5.9-15.15,15.15-14.31,13.46-14.31,16.84-12.63,11.78-8.41,8.42-10.1,4.2-14.31,7.58-9.26,15.15-9.26,16-10.94,12.63-6.73,12.62-15.15,6.73-13.47,5-10.94,5.9-16.83,13.46-11,8.42-13.46.84-10.94,6.73-18.52,16-14.31,18.51L-1108,451.29l-13.46,16-12.63,15.15-11.78,7.58-3.37,12.62-13.46,8.42L-1182,524.52l-21.89,16-14.3,9.26-35.35,21.88L-1278.84,586l-32.83,14.31-26.09,10.1-35.35,15.15-25.25,10.1-13.47,4.21-12.62,9.25-16,2.53-14.31,4.21-6.74,10.94-11.78,2.52-4.21,14.31-10.94.84-22.72,9.26-15.15,4.21-18.52,7.58L-1581,734.09l-20.2,16-32,24.41-14.3,14.31-10.1,14.31-8.42,16.83-8.42,10.1-6.73,9.26-4.21,6.73-10.94,4.21-10.1,5-8.42,20.2-17.67,20.2-22.73,16.84-15.15,5.89,18.52-24.41,12.62-17.68,22.73-27.77,20.2-21.88,16-14.31,4.21-8.42,10.94-9.26,6.73-2.52,2.53-10.94,9.26-9.26,9.26-10.94,9.25-14.31,7.58-15.15,7.57.84,15.15-12.63,15.15-13.46,13.47-16.84,3.37-10.94,22.72-10.94,29.46-16,17.68-9.26,24.4-13.47,31.15-19.35,10.1-6.74,15.15-.84,5.89-11.78,10.94-11.79,6.73-1.68,3.37-8.42,14.31-10.1,17.67-16,15.15-10.94,10.94-1.68,8.42,3.36,7.58-12.62,10.1-10.1,10.94-13.47,10.94-13.46,12.62-9.26,13.47.84,5.89-8.42,24.41-16,23.57-17.67,17.67-12.63,27.78-20.2,25.25-10.1,7.57-22.72,10.94-18.52,14.31-16,10.94-10.1,9.26-16.84,24.41-19.35,10.94-5.9,8.42-4.2,15.15-15.15,18.52-11.79,29.46-15.15,17.67-9.26,16.83-.84,22.73-5L-895,213.1l13.46-5,13.47-8.42,14.31-5,20.2-8.41,13.47,8.41Z" transform="translate(2101.37 204.89)"/>
  <path class="cls-1" d="M268.05,874.31" transform="translate(2101.37 204.89)"/>
  <path class="cls-1" d="M-26.94,231.75l17.53-32.13-2.92-17.52-90.55,58.41-26.28,58.42-20.45,40.89L-173,383.63l-23.37,52.57,2.92,20.44-23.37,17.53-2.92,29.21-23.36,17.52-11.68,40.89,2.92,23.37-26.29,14.6L-281,629v17.52l-23.37,23.37L-310.25,702l-2.92,14.61-23.36,14.6-5.85,29.21v20.44l-20.44,14.61-17.53,26.28-8.76,29.21,5.84,14.6L-413.5,867l-8.88,25.88-1.47,22.19v16.26l-24.34,16.93-11,25.33-2.93,20.45v14.6l-23.36,11.68L-503,1043.71l-5.84,23.36,8.77,26.29-26.29,5.84-14.6,26.29-6.45,29-.42,9.65-20.56,11.75-20.56,21.4-2.93,21,10,29.92h-14.61l-20.44,17.52-14.28,17.23-11.72,20.73,8.47,26.3-17.52,14.6-17.53,26.29-14.6,20.44v26.29l-14.6,11.68-23.37,17.53-17.43,35.83,3,28.43-16.46,9-21.67,31.9-11.68,23.37-5.85,38,2.92,14.6-20.44,5.84-17.52,23.37-14.61,32.13v20.44l-17.52,14.61-29.21,26.28-8.76,32.13,2.92,29.21-35.05,29.2-14.6,23.37-11.82,17.41L-982,1917.2l-17.58,31.93-8.76,32.13-11.68,40.89-20.45,17.52-35.51,1-2.46,28.17,2.92,29.21-17.52,29.2-17.52,14.61-23.37,29.21-8.76,32.12-5.84,20.45-23.37,17.52-23.37,26.29-29.2,40.89v29.21l-32.13,11.68-20.45,23.36-17.52,35-8.76,46.73-35,8.77-20.45,23.36-26.28,43.81-5.84,35.05-26.29,5.84-23.37,38-14.6,40.89-17.52,43.81,2.92,40.89,11.68,35,32.13,8.76,38-14.6,20.44-35.05,2.92-35.05,35.05-11.68,20.45-17.52,11.68-29.21,8.76-29.21,20.45-23.36,26.28-17.53,32.13-23.36,8.76-29.21,8.77-38,17.52-23.37,20.44-14.6,23.37-14.6,11.68-23.37,8.77-23.36,11.68-23.37,23.36-23.37,26.29-26.28,14.6-17.53,20.45-32.12-8.76-26.29,23.36-17.53,17.53-14.6,20.44-26.29,5.84-23.36,2.92-26.29,37.35-38,29.38-16.25,20.9-33.33,15.25-26.91-14.8-10.33,6.54-23.4L-831,1941.7l26.51-39.25,7.57-5.85-14.8-17.55,27.54-31.67,10.67-11.36,15.49-25.13-2-28.24,23.37-23.37,26.28-29.2,9.43-22.38,15.93-23.53-3-9.86,16.69-9.87,14.42-17.45,5.32-15.94,7.59-18.22v-16.69l11.38-6.83,3.8-11.39,14.42-16.69,3.79-7.59,2.49-22.17,12.77-23.53-24.45,3.08-17.53,5.84,20.45-23.36,22.83-10.1,18.51-14.11,14.11-13.67,12.6-21.43,4-26.41-21,9.81-16.94,3.12,15.6-14.71-25.79,5.64-9.65-2.41,22.93-10.87,14.48-8.44-1.21-15.69,15.69,10.86-7.08,13.33,15.16-12.93,11.59-7.13,13.44-25.06,20.45-17.52,2.92-17.52-26.29,11.68-20.44,5.84,29.2-29.21,20.45-20.44,17.52-20.45,17.21-23.31.44-12.93-26.41,12.88-14.6-5.84,20.44-14.61,14.6-11.68,14.61-14.6,17.52-17.53,14.61-32.13-23.37,8.77-23.37,2.92,12.77-12.77-15.67,8.51-4.83-4.83,15.69-7.24,16.89-10.86,12.07-6,.45,1.1,9.37-5.85,20.44-17.53,17.53-14.6v-20.45l-17.53,8.77-17.52,2.92,23.36-26.29,26.29-11.68,17.52-17.53-2.92-20.44-26.28,2.92,23.36-20.45L-319,959l23.37-11.69-14.61-17.52-29.21-2.92,38-17.52,23.37-11.69,11.68-38L-284,850.94l-20.45,5.84,35.05-23.36,17.53-17.53,11.68-23.36-17.53-14.61,35.05-35,20.45-23.36L-208,699.06l-22.86-2.85-9.67,2.14-1.21-7.24,19.32-15.69,14.48-7.24-4.36,15.25,16-10.65,17.52-17.53-5.84-23.36h-17.52l26.29-26.29,23.36-14.6,8.76-14.61-35-11.68,29.21-20.44,17.53-14.61,5.84-26.28-20.12-17.25-7.29,4.64V478.7l13.28-10.87,14.48-6-.92,9.14,3.49-2.61L-102.88,445l2.92-29.21,14.61-20.44,17.52-23.37-23.36-8.76L-62,342.74l14.61-17.53-2.92-23.36H-73.67l35.05-23.37,14.6,5.84-5.84-32.13ZM-630.38,1411.64l-8.45,3.62-2.41-9.65Zm-76,111,6-8.45L-698,1507l1.21-12.07,7.24-2.42,12.07,8.45,4.83,10.86-8.45,6-13.28,9.65-8.45,7.25-8.44,3.62-3.63-4.83Zm-59.14,103.79,7.25-10.86,8.44-10.86,8.45-8.45,8.45-9.66,4.83,12.07,4.83,14.49-14.49,9.65-7.24,8.45-7.24,9.65-4.83,8.45L-768,1641Zm-57.93,83.28,10.86-6,6-3.62,7.24-13.27h14.48l6,1.2,7.24,13.28-7.24,12.07-16.9,12.07-12.07,8.45-8.45,12.07-9.65-9.66-1.21-14.48ZM-1135.2,2408l-22.1,17.2-24.56,12.28-24.57-19.65v-22.11l7.37-19.65-14.73-12.28-7.37-19.64,12.28-36.84,17.19-17.2,27,2.46,7.37,22.1-4.92,34.39,22.11,7.37,7.37,19.64Zm81-127.71-14.74,24.56-24.56,12.28-22.1-2.46-24.56-12.28,14.73-22.1-4.91-19.65-17.19-4.91-4.91-14.74,17.19-34.38,17.19-17.19h24.56l17.19,9.82,4.92,17.19-12.28,24.56,17.19,7.37,19.65,9.83Zm54-90.87-24.56,19.65h-29.47l-7.37-27,9.82-22.1-19.64-17.2-7.37-24.56,24.56-27,19.65-9.83,27,12.28-2.45,24.56-17.2,27L-1005,2155l14.73,14.74Zm86-127.72-19.65,24.56-27,14.74h-22.11l-7.37-17.19,9.83-24.56-12.28-9.83-14.74-19.64v-22.11l14.74-12.28,19.65-7.37,24.56,4.92-2.46,17.19-2.45,14.73,4.91,9.83h19.65l14.73,4.91Zm53.26-103.32-8.45,13.28-12.07,12.07-12.07,8.45-14.48,3.62-15.69-2.42-4.83-8.45,3.62-18.1,6-8.45,1.2-9.65-13.27-2.42-4.83-14.48-1.21-10.86,1.21-12.07,7.24-12.07,15.69-14.48,8.45-9.66,15.69,2.42,4.83,13.27v15.69l-6,9.66-7.24,13.27L-908,1937.86l19.31-6,13.27-1.21,7.25,4.83,8.44,12.07Zm52.62-87.24-17.62,7.59-19.31,12.07-18.11-3.63v-14.48l4.83-12.07,3.62-14.48-1.2-7.24-15.69-7.24-10.87-9.66,10.87-14.48,12.06-13.28,10.87-8.45,12.07,1.21,7.24,8.45,6,7.24-9.65,13.28-15.69,13.27,12.07,1.21,18.1,4.83,13.28,9.65,2.41,10.87Zm52.38-107.07-9.66,12.07-21.72,16.9-9.66,8.44h-13.27L-815,1789.4l4.83-12.06,7.24-9.66,8.45-9.65-4.83-13.28,19.31-6,12.07-2.41,12.07,4.83,6,8.45ZM-698,1661.47l-13.27,10.86-14.49,6-15.69,9.65-14.48,1.21,9.65-13.28,12.07-8.44-2.41-15.69,10.86-6,14.49-7.24L-698,1641l1.21,7.25Zm24.14-76-12.07,8.44-12.07,7.25-7.24-6,6-6,13.28-9.66,16.9-9.65,3.62,4.82ZM-663,1443l8.45-6,6,3.62-6,9.65Zm44.66,51.9-18.11,8.45h-19.31l7.24-10.87,7.25-7.24,9.65-7.24,3.62-9.65,10.86,2.41,8.45,1.21,2.42,9.65Zm30.17-150.87-9.65,7.25-7.25,8.44-9.65,1.21v-10.86l3.62-9.66,8.45-2.41-1.21-10.86,8.45-6,1.21-10.86,9.65,7.24,4.83,12.07Zm66.38-171.38,3.62-10.86,8.45-12.07,16.9-1.21,4.82,10.87-36.2,25.34Zm-45.86,77.24,6-12.06,3.62-7.25,10.87-9.65,9.65,10.86,3.62,14.48-14.48,8.45-13.28,12.07Zm49.48,51.9L-529,1312.67l-13.28,8.45-15.69,8.45,3.62-19.31,6-16.9,4.83-8.45,9.65-7.24,12.07,4.83,13.28,7.24Zm56.73-105-7.25,10.86-8.44,9.66-20.52,10.86-18.1,7.24,9.65-22.93,4.83-9.66V1192l9.65-3.62,13.28-1.21,4.83,2.42Zm18.1-112.24-38.62,30.17-1.21-16.9,2.42-7.24,9.65-2.41h6l-3.63-12.07,12.07-3.62,13.28,2.41Zm21.72-12.07-3.62-10.86,12.07,2.41Zm152.08-377.77,13.27,6-6,10.86-8.45-6Zm-51.9,91.73,14.48,6-7.24,8.45-9.66-3.62Zm-76,169-10.86-13.28,9.66-7.24-10.87-8.45h18.11l-4.83-13.27,12.07-1.21h13.27l2.42,22.93Zm33.8-101.38,10.86-7.24h15.69l8.45,9.65-8.45,12.07-19.31,9.65-6-2.41-2.41-8.45Zm12.07,120.69-12.07,6,7.24-13.27,13.27-1.21Zm32.58-64-18.1,4.83-10.86,6,20.51-16.89,18.11-3.62Zm47.07-82.07-15.69,8.45-20.52,7.24,8.45-10.86,13.28-9.66,19.31-6Zm37.42-88.1-3.62,13.27-20.52,15.69-14.49,7.24-4.82-9.65,19.31-15.69,13.27-7.24Zm118.27-438.11h12.07l-1.2,12.07-15.69,12.07Zm-82.07,197.93,12.07-13.28,6,8.45-7.24,16.9-16.9,4.83Zm6,113.45-20.52,13.28V616.28l12.07-7.24,14.48-4.82Zm32.58-67.59-20.51,16.9-1.21-19.31,22.93-12.07Zm10.87-111-12.07,18.1-9.66-9.65,13.28-14.49,8.45-6Zm8.45-47.07-13.28-6,18.1-19.31,7.24-3.62-1.2,13.28Zm16.89,42.24-4.83,2.41,7.25-22.93,9.65-6,1.21,9.65Zm35-80.86L-103,366.45l-4.83-10.86,6-15.69,16.89-6,3.62,7.24Zm27.76-59.14-16.9,13.27-6-19.31,14.48-9.65,15.69,4.83Z" transform="translate(2101.37 204.89)"/>
</svg>
