<svg id="Layer_1" data-name="Layer 1" xmlns="http://www.w3.org/2000/svg" width="58.84" height="29.37" viewBox="0 0 58.84 29.37">
  <defs>
    <style>
      .cls-1 {
        isolation: isolate;
      }
    </style>
  </defs>
  <g id="Sleeve_Inside" data-name="Sleeve Inside">
    <g class="cls-1">
      <path d="M51.94,18.92C51.7,24.05,46.8,33.3,31.45,33.6c-5-.18-9-1.08-12.21-2.78-6.29-3.38-8.52-8.28-8.52-11.9-.3-5.2,5.56-14.45,20.73-14.69C46.8,4.47,51.7,13.72,51.94,18.92ZM16.88,14c-3.08,1.94-4.47,3.57-4.29,5-.18,1.39,1.21,3,4.29,4.89s7.62,3.57,14.57,3.57S42.87,25.75,46,23.81s4.3-3.5,4-4.89c.18-1.39-.9-3-4-5s-7.55-3.5-14.5-3.5S20,12.09,16.88,14Z" transform="translate(-10.71 -4.23)"/>
    </g>
    <g class="cls-1">
      <path d="M60.91,7.83c5.5,1.51,8.64,5.37,8.64,9.91a10.67,10.67,0,0,1-3.81,6.89,8,8,0,0,1-5.62,2,14.65,14.65,0,0,1-9.41-4.68c-.18,2-1.66,3.39-3.72,5.63s-4.17,3.52-8.34,3.58c-4-.3-6.63-.84-9.11-3.68-2.84-3.08-3.6-10.19-2.27-17.08,2-5.56,3.84-5,5.35-5a2.32,2.32,0,0,1,2.24,2.42,4.46,4.46,0,0,1-.25,1.51c-.12.78.37.4-.9.94a10.34,10.34,0,0,0-3.93,4.13,10.11,10.11,0,0,0-.55,2c-1,5.5,1.71,9.72,7.45,10.62a17.07,17.07,0,0,0,6.07-.19c1.69-.61,3.46-.66,4.24-1.75a12.75,12.75,0,0,0,3.39-5.73c.3-1.87-1.68-3.74-1.68-4.89v-1h.84a15.52,15.52,0,0,0,1.75,4.11,8.73,8.73,0,0,0,7,4.59,7.28,7.28,0,0,0,5.25-1.45,6,6,0,0,0,2.3-5.08q-.45-4.35-5.44-6.89Z" transform="translate(-10.71 -4.23)"/>
    </g>
  </g>
</svg>
