<svg id="Layer_1" data-name="Layer 1" xmlns="http://www.w3.org/2000/svg" width="2.31in" height="0.77in" viewBox="0 0 166.21 55.5">
  <defs>
    <style>
      .cls-1 {
        fill: #010101;
      }

      .cls-1, .cls-2 {
        stroke: #010101;
        stroke-miterlimit: 10;
      }

      .cls-2 {
        fill: none;
      }
    </style>
  </defs>
  <g>
    <g>
      <path class="cls-1" d="M149.08,14.56h8.29v2.86h-8.29Z"/>
      <path class="cls-1" d="M165.71,1.51V22.7h-2.89V6.17l-2,1.95-2-2.08,4.61-4.53Z"/>
    </g>
    <g>
      <path class="cls-2" d="M37.07.5V55H29.68V40.71H7.93V55H.5V.5H7.93V33.24H29.68V.5Z"/>
      <path class="cls-2" d="M45.7,50.4a15.15,15.15,0,0,1-4.63-11.06,15,15,0,0,1,4.63-11,15.48,15.48,0,0,1,22.08,0,14.9,14.9,0,0,1,4.6,11,15.08,15.08,0,0,1-4.6,11.06,15.55,15.55,0,0,1-22.08,0Z"/>
      <path class="cls-2" d="M108,23.68a12.33,12.33,0,0,1,9.12,3.8,12.45,12.45,0,0,1,3.8,9.16V55h-7.3V36.64a5.63,5.63,0,0,0-9.59-4,5.47,5.47,0,0,0-1.66,4V55h-7.4V36.64a5.63,5.63,0,0,0-9.59-4,5.56,5.56,0,0,0-1.63,4V55H76.38V36.64a13,13,0,0,1,12.92-13,12.35,12.35,0,0,1,9.33,4A12.39,12.39,0,0,1,108,23.68Z"/>
      <path class="cls-2" d="M140.6,55a16.12,16.12,0,0,1-5.73-1.07,15.79,15.79,0,0,1-5.06-3.23,15.22,15.22,0,0,1-3.57-5.07,14.8,14.8,0,0,1-1.36-5.72v-.5a15.75,15.75,0,0,1,1.06-5.73,16.05,16.05,0,0,1,3.2-5.07,14.53,14.53,0,0,1,5.1-3.56,15.18,15.18,0,0,1,5.89-1.37h.33a15.29,15.29,0,0,1,5.73,1.1A15.6,15.6,0,0,1,151.26,28c1.8,1.7,3.46,4.5,5.06,8.43l-21,9.23a11.25,11.25,0,0,0,2.2,1.3,8.67,8.67,0,0,0,3,.56h.33a9.24,9.24,0,0,0,3-.7A8.52,8.52,0,0,0,146.49,45a10.08,10.08,0,0,0,1.67-2.63L155.09,45a16,16,0,0,1-3.2,5.07,15,15,0,0,1-5.06,3.56A15.2,15.2,0,0,1,141.06,55Z"/>
    </g>
  </g>
</svg>
