<svg id="Layer_1" data-name="Layer 1" xmlns="http://www.w3.org/2000/svg" width="5.09in" height="0.44in" viewBox="0 0 366.76 31.72">
  <defs>
    <style>
      .cls-1 {
        fill: #fff;
      }
    </style>
  </defs>
  <title>KEYS</title>
  <polygon points="0.77 0.84 162.66 0.04 366.12 0.84 366.67 29.74 236.05 31.15 133.31 31.15 0 31.72 0.77 0.84"/>
  <g id="White_Keys" data-name="White Keys">
    <path class="cls-1" d="M5.87,20.83l1.2.08-.2,10.23s.1.62-1,.53l-2.31,0-2-.06-.76,0s-.81.14-.77-1L.77.84,5.47.77,4.92,19l.84,1.26"/>
    <path class="cls-1" d="M7.39,30.74,7.45,21l2.76-.12.28-20L14.4.83l-.5,30v.45s.36.58-1.78.4l-3.39.05-.58,0-.29-.07-.27-.13-.14-.13,0-.26Z"/>
    <polygon class="cls-1" points="14.12 30.48 14.66 0.78 17.72 0.81 17.31 15.7 17.38 18.89 17.5 19.26 17.54 19.46 17.96 20.02 18.21 20.33 18.25 20.53 17.91 20.81 20.49 20.82 20.69 20.88 20.77 21 20.71 31.13 20.67 31.27 20.6 31.39 20.5 31.46 20.38 31.52 20.2 31.55 19.98 31.57 14.99 31.59 14.74 31.58 14.47 31.52 14.3 31.41 14.22 31.27 14.17 31.11 14.12 30.48"/>
    <path class="cls-1" d="M21.24,30.65V20.83l1.48,0L23.06.71h3.05S26,17.46,26,17.52s.08,1.65.08,1.65l0,.17.48.54.27.22.05.13v.28l-.3.31,1.11,0,.17,0,0,.12-.14,10.15v.14l-.06.13-.15.11-.16.08-.17,0-5.15,0h-.2l-.25-.09-.22-.08-.16-.09,0-.14Z"/>
    <polygon class="cls-1" points="28.19 30.89 28.26 20.79 31.05 20.75 31.4 0.64 35.35 0.64 34.72 30.92 34.72 31.09 34.68 31.27 34.56 31.41 34.4 31.48 34.28 31.53 34.1 31.57 29.17 31.61 29 31.6 28.79 31.57 28.62 31.53 28.48 31.48 28.3 31.43 28.17 31.35 28.18 31.21 28.19 30.89"/>
    <polygon class="cls-1" points="35.17 30.89 35.93 0.65 39.02 0.65 38.51 16.21 38.63 18.97 39.18 20.05 39.36 20.34 39.02 20.76 41.94 20.8 41.83 30.93 41.83 31.2 41.81 31.36 41.59 31.5 41.36 31.59 41.11 31.59 36.29 31.6 35.98 31.58 35.69 31.49 35.44 31.35 35.29 31.19 35.2 31.03 35.17 30.89"/>
    <polygon class="cls-1" points="42.38 30.39 42.37 20.83 43.47 20.76 43.98 0.53 47.18 0.54 46.72 15.65 46.84 17.36 46.91 18.8 46.96 19.12 47.05 19.36 47.56 20.29 47.61 20.52 47.29 20.79 49.22 20.79 49.09 30.97 49.09 31.2 49.02 31.41 48.9 31.5 48.73 31.55 48.57 31.58 43.19 31.61 42.97 31.57 42.78 31.53 42.65 31.43 42.51 31.33 42.44 31.21 42.42 31.03 42.38 30.39"/>
    <polygon class="cls-1" points="49.62 30.68 49.61 20.77 51.75 20.7 52.23 0.51 55.17 0.48 54.92 15.44 54.96 16.99 55.05 18.33 55.16 19.22 55.59 20.15 55.54 20.45 55.42 20.72 56.37 20.72 56.32 31.07 56.28 31.25 56.18 31.39 56.06 31.5 55.92 31.59 55.65 31.6 50.46 31.6 50.22 31.57 49.99 31.52 49.8 31.43 49.67 31.32 49.63 31.15 49.62 30.68"/>
    <polygon class="cls-1" points="56.79 30.85 56.84 20.74 59.74 20.67 60.24 0.41 63.94 0.42 63.36 31.06 63.35 31.27 63.31 31.4 63.17 31.51 63 31.55 62.8 31.57 57.53 31.59 57.32 31.58 57.13 31.5 56.91 31.43 56.8 31.32 56.77 31.17 56.79 30.85"/>
    <polygon class="cls-1" points="63.79 30.79 64.36 0.43 68.02 0.42 67.87 13.39 67.81 16.09 68.03 19.08 68.25 19.98 68.16 20.24 68.17 20.7 70.39 20.76 70.39 31.07 70.39 31.29 70.33 31.45 70.19 31.54 70.03 31.62 64.86 31.65 64.51 31.62 64.18 31.55 63.95 31.47 63.78 31.34 63.79 30.79"/>
    <polygon class="cls-1" points="70.92 30.95 70.97 20.81 72.82 20.75 73.11 0.35 76.75 0.39 76.58 11.44 76.49 15.4 76.54 16.85 76.64 17.44 76.76 19.23 76.85 19.35 76.93 20.25 76.95 20.47 76.84 20.69 77.72 20.74 77.66 31.1 77.64 31.29 77.56 31.42 77.42 31.54 77.26 31.59 77.05 31.64 71.68 31.64 71.41 31.6 71.18 31.48 71.01 31.37 70.92 31.22 70.92 30.95"/>
    <polygon class="cls-1" points="78.14 30.84 78.2 20.73 81.49 20.69 81.82 0.3 85.69 0.29 84.92 30.98 84.93 31.2 84.87 31.42 84.71 31.53 84.57 31.57 84.34 31.61 79.11 31.62 78.82 31.6 78.57 31.52 78.36 31.44 78.18 31.35 78.15 31.19 78.14 30.84"/>
    <polygon class="cls-1" points="85.39 30.88 86.1 0.31 89.87 0.3 89.58 14.21 89.59 17.64 89.61 20.72 92.2 20.71 92.15 30.93 92.16 31.23 92.1 31.42 91.94 31.51 91.78 31.59 86.34 31.64 86.05 31.6 85.84 31.55 85.66 31.47 85.47 31.38 85.4 31.24 85.39 30.88"/>
    <polygon class="cls-1" points="92.75 31.03 92.76 20.69 94.16 20.64 94.52 0.25 98.02 0.23 97.71 15.78 97.86 17.8 97.9 20.68 99.63 20.68 99.61 30.96 99.61 31.15 99.57 31.32 99.47 31.44 99.35 31.54 99.19 31.59 99 31.61 93.55 31.59 93.34 31.58 93.15 31.5 92.99 31.41 92.82 31.31 92.75 31.19 92.75 31.03"/>
    <polygon class="cls-1" points="100.19 31.09 100.17 20.75 102.44 20.69 102.74 0.21 106.42 0.16 106.28 8.12 106.12 13.76 106.05 17.57 106.07 19.22 106.06 19.6 106.04 20.72 107.05 20.71 107.04 30.96 107.03 31.14 106.99 31.27 106.87 31.41 106.72 31.5 106.58 31.56 106.42 31.6 100.86 31.61 100.63 31.58 100.44 31.54 100.3 31.45 100.19 31.35 100.19 31.09"/>
    <polygon class="cls-1" points="107.64 31.11 107.71 20.74 110.78 20.64 111.16 0.18 114.99 0.17 114.46 31.12 114.46 31.25 114.42 31.39 114.32 31.49 114.2 31.6 114.04 31.63 113.81 31.63 108.38 31.68 108.11 31.62 107.9 31.54 107.71 31.48 107.63 31.35 107.64 31.11"/>
    <polygon class="cls-1" points="115.03 30.93 115.55 0.13 119.56 0.13 119.17 14.93 119.15 17.81 119.14 20.66 121.86 20.69 121.79 31.14 121.8 31.33 121.68 31.5 121.52 31.66 121.13 31.66 115.67 31.65 115.4 31.62 115.23 31.55 115.04 31.45 115.02 31.29 115.03 30.93"/>
    <polygon class="cls-1" points="122.39 31.16 122.39 20.77 124.04 20.7 124.26 0.11 128.36 0.13 128.32 10.94 128.28 20.72 129.33 20.69 129.25 31.09 129.21 31.3 129.15 31.41 129.05 31.53 128.91 31.62 128.68 31.64 122.79 31.64 122.58 31.57 122.44 31.45 122.39 31.16"/>
    <polygon class="cls-1" points="129.76 31.01 129.83 20.74 132.81 20.71 132.99 0.09 136.88 0.06 136.6 31.01 136.6 31.23 136.56 31.4 136.44 31.55 136.26 31.65 136.06 31.68 130.56 31.69 130.21 31.66 130 31.56 129.81 31.46 129.75 31.32 129.76 31.01"/>
    <polygon class="cls-1" points="137.09 31.15 137.31 0.04 141.27 0.05 141.18 11.27 141.07 20.77 144.02 20.73 143.99 30.81 144 31.32 143.9 31.52 143.74 31.59 143.59 31.65 143.43 31.65 137.79 31.68 137.5 31.66 137.35 31.61 137.19 31.51 137.12 31.38 137.09 31.15"/>
    <polygon class="cls-1" points="144.53 31.23 144.53 20.78 145.79 20.74 145.86 0.06 149.75 0 149.61 15 149.61 18.56 149.62 20.73 151.53 20.73 151.5 29.68 151.51 31.05 151.5 31.35 151.37 31.5 151.25 31.6 151.11 31.69 150.88 31.68 145.34 31.72 145.1 31.69 144.83 31.64 144.64 31.55 144.53 31.42 144.53 31.23"/>
    <polygon class="cls-1" points="152.11 31.12 152.11 20.7 154.11 20.65 154.31 0.07 158.13 0.03 157.94 16.15 157.92 20.67 159.05 20.65 159 30.95 158.97 31.24 158.87 31.39 158.75 31.51 158.61 31.62 158.26 31.62 152.72 31.64 152.49 31.6 152.26 31.52 152.13 31.38 152.09 31.27 152.11 31.12"/>
    <polygon class="cls-1" points="159.6 31.12 159.56 20.69 162.63 20.63 162.66 0.04 166.47 0.03 166.36 31.08 166.34 31.24 166.28 31.36 166.18 31.46 166.06 31.57 165.88 31.59 160.85 31.64 160.15 31.64 159.92 31.6 159.76 31.5 159.61 31.4 159.6 31.12"/>
    <polygon class="cls-1" points="166.93 31.09 167.05 0.07 171.11 0.05 171.07 20.58 173.83 20.55 173.83 30.75 173.83 31.03 173.82 31.21 173.74 31.33 173.59 31.45 173.45 31.55 167.5 31.52 167.21 31.5 167.07 31.44 166.92 31.34 166.93 31.09"/>
    <polygon class="cls-1" points="174.41 31.08 174.33 20.58 175.79 20.55 175.78 0.04 179.72 0.02 179.67 16.46 179.68 20.55 181.27 20.53 181.28 30.78 181.29 31.06 181.21 31.22 181.07 31.37 180.93 31.45 180.64 31.48 174.98 31.53 174.69 31.46 174.52 31.39 174.41 31.23 174.41 31.08"/>
    <polygon class="cls-1" points="181.76 31.1 181.72 20.57 184.62 20.48 184.5 0.02 188.55 0.01 188.57 30.73 188.58 30.99 188.52 31.18 188.42 31.28 188.28 31.4 188.07 31.43 182.18 31.47 181.98 31.4 181.83 31.3 181.76 31.1"/>
    <polygon class="cls-1" points="189.15 30.9 189.07 0.02 192.86 0.02 192.97 20.52 196.03 20.48 196.03 30.78 196.01 31.06 195.93 31.19 195.81 31.31 195.65 31.42 195.34 31.44 189.89 31.45 189.58 31.44 189.39 31.37 189.18 31.3 189.15 30.9"/>
    <polygon class="cls-1" points="196.47 30.99 196.47 20.49 197.62 20.44 197.47 0.08 201.3 0.04 201.32 11.63 201.43 20.45 203.38 20.45 203.36 30.85 203.32 31.04 203.18 31.18 203.08 31.28 202.86 31.33 197.22 31.36 196.88 31.34 196.68 31.27 196.51 31.14 196.47 30.99"/>
    <polygon class="cls-1" points="203.89 30.64 203.9 20.41 205.94 20.38 205.67 0.07 209.5 0.01 209.78 20.4 210.72 20.42 210.8 29.98 210.81 30.72 210.72 31.01 210.57 31.15 210.38 31.24 210.16 31.27 209.67 31.28 204.72 31.33 204.5 31.32 204.24 31.24 204.07 31.12 203.97 30.97 203.92 30.8 203.89 30.64"/>
    <polygon class="cls-1" points="211.32 30.78 211.24 20.44 214.15 20.36 213.91 0.07 217.81 0.07 217.91 30.67 217.91 30.84 217.84 31 217.7 31.13 217.52 31.22 217.28 31.26 212.05 31.32 211.71 31.27 211.5 31.2 211.35 31.05 211.32 30.78"/>
    <polygon class="cls-1" points="218.53 30.82 218.29 0.1 222.14 0.04 222.28 20.4 224.88 20.38 225 30.67 224.98 30.83 224.93 31 224.77 31.1 224.6 31.21 224.3 31.21 219.13 31.25 218.87 31.24 218.68 31.15 218.53 31.04 218.53 30.82"/>
    <polygon class="cls-1" points="225.53 30.89 225.38 20.41 227.11 20.4 226.78 0.09 230.56 0.07 230.92 20.4 232.11 20.4 232.2 30.57 232.16 30.95 232.03 31.07 231.84 31.17 231.67 31.23 231.41 31.25 226.2 31.27 225.94 31.27 225.68 31.16 225.55 31.02 225.53 30.89"/>
    <polygon class="cls-1" points="232.78 30.65 232.66 20.41 235.53 20.35 235.3 0.13 239.22 0.11 239.44 30.67 239.4 30.84 239.28 30.98 239.12 31.09 238.93 31.16 233.31 31.18 233.07 31.14 232.86 31.04 232.76 30.9 232.78 30.65"/>
    <polygon class="cls-1" points="240.01 30.51 239.75 0.12 243.53 0.11 243.72 20.39 246.5 20.35 246.6 30.47 246.55 30.66 246.48 30.79 246.37 30.91 246.23 31.04 246.04 31.09 240.69 31.15 240.47 31.13 240.28 31.09 240.11 30.99 240.01 30.87 240.01 30.51"/>
    <polygon class="cls-1" points="247.14 30.48 247.02 20.32 248.07 20.27 248.09 19.08 248.27 18.74 248.1 0.17 251.33 0.12 251.59 17.16 251.59 20.31 253.66 20.28 253.8 30.4 253.74 30.61 253.67 30.74 253.55 30.86 253.39 30.97 253.2 30.99 247.75 31.07 247.51 31.02 247.3 30.95 247.18 30.84 247.15 30.7 247.14 30.48"/>
    <polygon class="cls-1" points="254.35 30.51 254.23 20.29 256.23 20.21 255.9 0.21 259.64 0.17 259.75 20.31 260.87 20.3 260.92 30.4 260.9 30.56 260.83 30.68 260.71 30.8 260.55 30.9 260.36 30.94 255.08 31 254.86 31 254.63 30.98 254.41 30.89 254.36 30.72 254.35 30.51"/>
    <polygon class="cls-1" points="261.44 30.53 261.32 20.31 264.01 20.25 263.99 19.25 264.42 18.44 264.04 0.16 267.47 0.2 267.89 30.35 267.89 30.54 267.85 30.66 267.73 30.78 267.57 30.89 267.35 30.91 261.98 30.95 261.74 30.94 261.57 30.85 261.45 30.72 261.44 30.53"/>
    <polygon class="cls-1" points="268.32 30.43 267.82 0.2 271.68 0.19 272.07 20.21 274.57 20.21 274.75 29.95 274.76 30.39 274.72 30.6 274.58 30.72 274.44 30.84 274.18 30.86 269.04 30.9 268.8 30.87 268.61 30.79 268.42 30.7 268.34 30.59 268.32 30.43"/>
    <polygon class="cls-1" points="275.38 30.39 275.14 20.23 276.38 20.16 276.36 19.31 276.79 18.56 276.3 0.3 279.7 0.3 280 20.23 281.57 20.21 281.76 30.28 281.74 30.45 281.64 30.6 281.5 30.72 281.34 30.78 281.15 30.8 275.89 30.86 275.73 30.82 275.56 30.74 275.39 30.66 275.36 30.52 275.38 30.39"/>
    <polygon class="cls-1" points="282.21 30.32 282.02 20.19 284.49 20.12 284.47 19.04 284.79 18.51 284.43 0.34 287.98 0.28 288.51 30.22 288.49 30.34 288.45 30.47 288.38 30.59 288.21 30.71 288.05 30.75 282.77 30.82 282.6 30.81 282.43 30.78 282.26 30.68 282.21 30.53 282.21 30.32"/>
    <polygon class="cls-1" points="288.94 30.16 288.33 0.3 291.93 0.33 292.27 20.18 295.08 20.16 295.19 30.14 295.2 30.29 295.11 30.46 294.94 30.57 294.78 30.67 294.52 30.68 289.43 30.73 289.24 30.68 289.07 30.6 288.95 30.48 288.94 30.16"/>
    <polygon class="cls-1" points="295.6 30.18 295.46 20.17 296.6 20.12 296.56 19.3 297.13 18.47 296.62 0.4 299.57 0.36 300 20.12 301.79 20.09 301.97 30.08 301.95 30.21 301.89 30.37 301.79 30.49 301.61 30.58 301.2 30.6 296.16 30.62 295.92 30.61 295.75 30.52 295.63 30.41 295.6 30.18"/>
    <polygon class="cls-1" points="302.5 30.2 302.31 20.04 304.12 19.98 304.1 19.26 304.89 18.46 304.5 0.58 307.21 0.57 307.57 20.03 308.57 20.02 308.71 30.02 308.71 30.18 308.62 30.31 308.48 30.43 308.29 30.48 303.03 30.55 302.82 30.52 302.63 30.48 302.53 30.36 302.5 30.2"/>
    <polygon class="cls-1" points="309.28 29.88 309.1 19.98 311.58 19.93 311.57 19.38 312.52 18.3 312.03 0.55 314.91 0.5 315.37 29.95 315.35 30.09 315.31 30.22 315.18 30.34 315.01 30.38 310.04 30.44 309.67 30.44 309.47 30.41 309.32 30.29 309.29 30.13 309.28 29.88"/>
    <polygon class="cls-1" points="315.82 29.93 315.23 0.54 318.86 0.5 319.31 20 321.65 19.95 321.83 29.84 321.81 30.02 321.74 30.18 321.54 30.27 321.37 30.33 316.5 30.4 316.28 30.38 316.08 30.33 315.9 30.23 315.82 30.07 315.82 29.93"/>
    <polygon class="cls-1" points="322.36 29.91 322.2 19.96 323.34 19.91 323.32 19.2 324.17 18.38 323.68 0.61 326.51 0.55 327.12 19.94 328.26 19.93 328.46 29.73 328.42 29.93 328.37 30.05 328.25 30.18 328.05 30.25 322.84 30.31 322.61 30.26 322.44 30.15 322.38 30.03 322.36 29.91"/>
    <polygon class="cls-1" points="328.84 29.81 328.68 19.96 331.12 19.87 331.1 19.23 331.97 18.22 331.39 0.66 334.39 0.64 334.88 29.89 334.78 30.01 334.61 30.12 334.44 30.21 329.22 30.23 329.05 30.17 328.87 30.05 328.84 29.81"/>
    <polygon class="cls-1" points="335.3 29.79 334.79 0.63 338.17 0.6 338.72 19.92 341.2 19.92 341.31 29.74 341.29 29.96 341.19 30.08 341.02 30.16 335.75 30.18 335.53 30.16 335.35 30.06 335.3 29.94 335.3 29.79"/>
    <polygon class="cls-1" points="341.73 29.65 341.6 19.93 342.49 19.85 342.48 19.31 343.57 18.13 342.94 0.7 345.32 0.67 345.86 19.9 347.57 19.88 347.8 29.59 347.77 29.8 347.69 29.97 347.49 30.06 347.23 30.13 342.21 30.16 342.01 30.12 341.83 29.97 341.74 29.83 341.73 29.65"/>
    <polygon class="cls-1" points="348.12 29.65 347.92 19.91 349.67 19.89 349.65 19.37 350.85 18.29 350.38 0.76 352.51 0.73 352.9 19.86 353.89 19.85 354.12 29.63 354.12 29.78 354.01 29.93 353.81 30.05 348.68 30.13 348.48 30.11 348.27 30.01 348.15 29.86 348.12 29.65"/>
    <polygon class="cls-1" points="354.53 29.63 354.33 19.86 356.86 19.81 356.85 19.2 358.05 18.2 357.55 0.77 359.68 0.76 360.47 29.48 360.47 29.63 360.39 29.79 360.25 29.94 360.01 29.99 355 30.04 354.77 30 354.65 29.94 354.58 29.86 354.55 29.77 354.53 29.63"/>
    <polygon class="cls-1" points="360.85 29.45 360.06 0.79 366.12 0.84 366.76 29.56 366.67 29.74 366.49 29.9 366.21 29.94 361.58 29.99 361.33 29.97 361.08 29.88 360.86 29.78 360.85 29.45"/>
  </g>
</svg>
