<svg id="Layer_1" data-name="Layer 1" xmlns="http://www.w3.org/2000/svg" width="2.36in" height="4.02in" viewBox="0 0 169.59 289.79">
  <g>
    <polygon points="122.39 11.11 123.99 11.61 124.9 12.02 125.76 12.71 126.58 13.43 127.27 14.21 127.54 12.8 126.81 11.11 125.99 9.84 124.99 9.2 124.31 8.56 122.39 11.11"/>
    <polygon points="125.34 15.17 123.55 15.17 122.24 14.93 121.16 14.69 120.29 14.26 120.51 14.73 120.78 14.98 121.7 15.27 123.54 15.62 124.24 15.62 125.34 15.17"/>
    <polyline points="57.95 112.69 61.4 114.66 62.67 115.84 63.56 116.72 64.34 117.71 64.74 118.59"/>
    <polyline points="56.65 114.49 60 116.41 61.24 117.55 62.1 118.41 62.86 119.37 63.25 120.23"/>
    <path id="Watch" d="M37.91,139.6c-.35,3.19,2.14,2.85,3.49,4.68,2,1.83.12,5.94,3.43,6.56-.13,1.7-2.73,2.87-4.36,2s-3.83-.65-5.65-1c-2.61-2.26-1.15-6.57-1.81-9.21Z"/>
    <polygon points="108.44 61.98 105.74 65.46 103.23 69.51 100.92 76.84 99.57 82.04 98.61 85.13 98.22 87.44 98.22 90.34 101.31 88.6 104 86.48 105.36 84.36 106.51 82.43 106.7 77.8 106.32 74.71 104.2 77.41 102.27 77.61 102.66 75.68 103.62 72.59 104.97 69.7 106.7 67 108.63 64.88 108.44 61.98"/>
    <polygon points="77.98 109.22 75.27 105.66 72.89 102.94 70.86 101.07 68.99 99.89 67.3 102.6 70.01 104.13 73.4 106.84 75.78 109.05 77.98 109.22"/>
    <polygon points="107.71 86.28 109.53 83.65 109.93 79.19 111.15 73.12 114.39 70.69 120.06 68.06 126.13 67.86 130.99 68.87 133.01 71.91 135.44 80 135.04 88.31 129.98 91.75 124.71 91.75 122.89 92.76 119.85 93.16 116.01 92.76 111.96 90.94 107.71 86.28"/>
    <polygon points="106.76 118.98 105.41 116.14 103.31 113.44 99.57 111.5 98.22 110.9 99.12 112.84 100.92 114.34 102.72 116.59 104.06 118.39 104.66 119.43 106.76 118.98"/>
    <polygon points="96.73 122.28 95.08 119.88 94.63 117.79 94.48 116.44 95.98 117.04 97.47 119.28 98.82 120.63 97.92 117.49 96.13 113.74 94.18 111.65 90.89 107.75 89.54 104.46 91.19 105.36 93.58 107.75 95.53 109.85 96.88 111.95 98.52 114.19 100.62 117.04 101.37 120.33 96.73 122.28"/>
    <polygon points="90.89 124.23 88.19 120.63 84.6 116.59 81.45 112.55 80.4 115.09 80.85 117.49 82.8 121.23 84.3 123.48 86.54 125.72 90.89 124.23"/>
    <path d="M154.08,138.6l-2.69-.6-3.15-.59-4.94-1.95-2.25-2.25L139,131l-.75-1.5,2.84-.45,1.95.9s3.6,1.05,4,1.05,3,.15,3,.15l2,.29h1.64l1.2-1.79-.9-2-2.39-1.35-1.5-1-1.35-1.94,1.35-.75h3.89l1.65-.15.15-1.2-2.7-1.65-1.34-1.19-.9-2.55-.45-2.7-1.05-.44-2.69-.9-2.7-.9,1-2.55,2.09-.15h1.5l-.45-3.44-1.05-2.1h-3l-2.55,2-17.82,7.79L116.34,116l-11.08,5.24-.3,11.08.3,4.95.15,1.79,2.1,1,4.79.45,5.09.75,3.15.75,4.94,1.2,6.14,1.94,6.29.3,5.54-.45,2.25-.3,1.64-1.94,4-.15,2.24-.6Z"/>
    <polygon points="159.6 160.19 158.45 158.53 155.9 156.36 154.75 154.83 154.88 153.42 157.56 154.06 158.71 155.34 159.73 157.13 159.6 160.19"/>
    <path d="M161.52,152a21.58,21.58,0,0,1-3.32-1.41l-1.92-1.4-1.15-1.4,2.94-.39a13.64,13.64,0,0,1,1.66,1.15c.38.38,1.79,1.53,1.79,1.53Z"/>
    <polygon points="151.69 152.15 151.3 149.21 148.37 147.29 146.32 145.89 145.7 144.74 143.45 145.04 140.83 144.87 141.85 146.27 148.11 150.49 151.69 152.15"/>
    <path d="M122.89,92.76l2.88,1s5.1.64,5.61.64,7.41-.89,7.41-.89l5.75-.64h4l-.12,1.79-4,.12-2.81,1-5.36,1.53-3.83,1.4-7.54,1.66L122.7,102l5.62,1.14,5.49-.38.64,2-4.85,1.92-6.77,2.94-5.36.38-8.69-.13-8.55-2.3-3.83-3.83-1.92-2.93S97,98.9,97.8,98.52A27,27,0,0,0,102,94.18c.12-.39,5.69-7.9,5.69-7.9"/>
    <path d="M132.56,64.82l2,1.77,4.6,3.54,3.72,4.06,1.94,4.25L146,82.06l.71,3.19-2.66.53-4.77-.27-3.89-.26-.35,3L130,91.75l2.49,0,2.56-.62,2.39-1.23,4.51-1.33,4.6.09c.27,0,1.86.17,1.86.17V86l-.18-3.18L147.77,81,146,76.76l-4-6.46-3.36-2.92-4-2.3Z"/>
    <polygon points="101.51 67.78 98.64 72.94 97.11 77.91 96.92 83.46 96.92 88.43 96.54 92.06 93.86 94.36 91.76 96.27 89.46 96.65 89.27 98.37 86.78 98.56 86.21 100.67 85.83 102.58 82.2 102.96 81.81 105.83 79.9 105.64 79.52 109.08 78.94 111 76.84 111.19 74.55 112.53 73.78 113.86 70.34 114.25 70.34 112.53 71.3 110.23 73.01 109.57 75.78 109.05 77.98 109.22 75.27 105.66 77.77 105.08 77.95 102.92 79.74 102.56 80.46 100.59 83.43 100.32 85.49 96.88 86.83 94.94 87.13 92.71 90.11 92.41 92.04 91.81 92.04 90.03 93.53 84.06 93.39 80.49 95.17 79 96.36 75.27 101.51 67.78"/>
    <polygon points="153.93 127.67 156.9 127.41 159.32 127.29 161.51 127.41 160.13 127.98 157.36 128.33 155.63 128.79 154.83 129.62 153.93 127.67"/>
    <g id="Hand">
      <polygon points="17.4 161.04 16.35 162.78 15.78 163.73 14.27 165.46 13.73 166.43 15.02 166.65 16.21 165.03 17.4 161.04"/>
      <polygon points="17.83 150.68 16.96 153.49 16.1 156.51 14.48 158.66 13.62 159.96 12.76 161.47 12.11 162.76 12.76 159.09 13.84 156.29 14.81 153.06 17.83 150.68"/>
      <polygon points="18.37 167.08 19.55 164.06 20.09 162.87 21.06 162.66 21.6 165.57 18.37 167.08"/>
    </g>
    <polygon points="98.18 156.42 98.58 160.86 98.58 166.31 97.37 170.75 96.36 172.56 96.16 166.91 98.18 156.42"/>
    <polygon points="92.33 154.2 93.13 159.45 93.13 163.28 93.54 166.91 91.12 161.06 90.91 156.83 92.33 154.2"/>
    <polygon points="91.32 168.53 88.69 163.28 88.09 159.04 88.09 156.02 91.32 168.53"/>
    <polygon points="91.92 174.58 88.9 170.75 85.87 166.91 85.47 163.08 84.26 164.49 84.06 167.11 91.92 174.58"/>
    <polygon points="89.5 177 86.68 173.17 85.27 169.13 84.06 167.11 81.84 168.73 83.65 172.36 89.5 177"/>
    <polygon points="79.62 172.36 64.49 195.56 64.69 197.38 70.34 192.33 79.62 172.36"/>
    <polygon points="84.55 158.06 78.25 157.72 74.68 156.53 76.72 158.57 79.45 159.42 84.55 158.06"/>
    <polygon points="79.53 139.91 83.2 141.62 84.78 143.46 84.65 141.22 82.02 139.26 79.53 139.91"/>
    <polygon points="64.28 204.37 57.46 213.83 47.34 224.83 41.62 231.87 38.54 232.97 35.9 231.21 39.2 227.03 55.7 210.09 61.42 203.93 64.28 204.37"/>
    <polygon points="51.3 194.25 56.8 194.47 60.76 190.51 72.86 172.25 75.28 172.25 47.78 211.19 40.08 210.09 51.3 194.25"/>
    <polygon points="109.48 182.95 108.78 192.15 105.95 204.41 101 215.96 98.88 219.74 104.06 216.43 109.48 207.47 112.79 203.47 109.48 197.1 113.49 201.11 110.19 194.03 113.02 197.1 115.38 199.46 116.09 196.39 111.61 192.15 111.61 189.55 114.67 192.85 116.8 194.27 116.8 190.5 111.84 185.55 116.8 188.38 118.92 185.07 109.48 182.95"/>
    <path d="M95.57,247.56c1,0,7.08-.24,7.08-.24l9.66,3.77,6.14,5.66,3.3,6.84,1.88,5.19.71,8.25-1.65,1.89-4,.23Z"/>
    <polygon points="93.69 244.02 108.54 244.96 107.83 242.13 103.83 239.78 97.93 239.31 96.05 237.18 101.23 236.48 100.76 234.35 98.17 233.65 93.92 232.94 92.74 230.34 96.99 230.11 99.11 228.69 96.99 225.87 96.28 223.51 100.29 223.51 100.53 221.86 98.88 219.74 105.95 204.41 108.78 192.15 109.48 182.95 106.89 180.83 107.36 185.55 105.95 194.74 103.83 201.58 100.76 207.24 98.4 211.25 100.05 197.81 100.53 188.38 100.76 180.12 98.88 176.82 95.81 174.7 93.92 176.35 89.92 183.66 85.91 192.15 82.84 202.29 79.07 216.91 76.71 223.04 76.24 227.52 77.89 229.64 80.48 232.47 84.02 234.82 86.61 237.42 93.69 244.02"/>
    <polygon points="101.13 158.19 101.13 166.74 98.72 173.42 98.88 176.82 103 169.95 105.14 163.54 101.13 158.19"/>
    <polygon points="101.39 177.43 105.14 170.48 107.54 163.54 117.96 166.74 125.97 170.75 128.11 172.62 133.45 172.35 135.59 169.95 137.19 174.22 140.93 171.02 142.8 166.21 141.46 158.73 140.66 155.52 147.34 156.59 150.28 163 150.28 168.34 147.87 170.75 144.94 177.16 140.66 183.04 134.52 184.64 125.44 184.91 101.39 177.43"/>
    <polygon points="147.61 176.09 153.22 176.36 152.95 180.63 149.48 183.84 143.87 183.84 147.61 176.09"/>
    <polyline points="153.22 176.36 150.28 168.34 147.87 170.75 149.4 175.94"/>
    <polygon points="33.98 212.05 32.25 217.25 32.6 223.84 35.9 231.21 31.21 228.34 29.48 220.02 29.48 214.82 33.98 212.05"/>
    <polygon points="24.62 215.86 16.64 214.82 10.4 212.74 4.51 208.58 1.39 208.93 0 217.25 1.39 222.8 1.73 225.92 2.08 230.08 3.12 233.55 5.55 235.97 19.07 235.63 25.66 235.28 29.82 234.93 24.62 215.86"/>
    <polygon points="132.97 271.76 127.84 266.44 121.43 256.55 126.38 266.99 128.57 271.39 131.32 276.16 132.97 271.76"/>
    <polygon points="138.06 276.84 134.17 279.99 137.57 279.75 140.24 280.24 140.97 283.88 139.51 285.57 133.93 286.06 122.52 287.27 116.46 287.76 112.57 287.76 112.82 283.63 113.55 279.75 116.7 277.32 118.68 279.15 122.69 278.92 128.35 278.78 131.75 278.05 135.38 274.65 136.36 275.62 133.66 278.41 133.29 279.43 138.06 276.84"/>
    <path d="M112.67,277.1a35.12,35.12,0,0,0-3.53,1l-2.73.81-4,.16-1.77,1.6-1.28,2.57-1,2.57.16,2.41,3,1.61,6.42-.32Z"/>
    <path d="M168.53,34.57l-1.76-10-3.16-6L161,13.71l-6.09-6-2.7-2.82-2.93-1.64-1.05-1-1.64-1.18-2.93-1h-3.87l-2.58,1.17-3.05,1.76-1.17,2h4.22l1.29.47v5.74l.58,1.88v2.34h-1.28l-1.18.94-.58,1.41-.47,1.17L134.08,20H133l-1.25.22-.27,1.19v2.69h-1.64a7.92,7.92,0,0,1-1.88.71,14.5,14.5,0,0,1-3.16,0,15.19,15.19,0,0,0-1.41-.71l-1.52-.47L120.6,25h-2.82l-.58-1.74s-.35-1.65-.7-1.76-1.18-.35-1.18-.35l-1.24-1.6.19,2.42v1L116,25l.35,1.07s-.12,1.29-.12,1.64a10.06,10.06,0,0,1-.35,1.52l-1.06.47-1.52.82h-5.74l-.74,1.06v1.29l-1,.82v3.51l1,2.11,1.68,1.06,1.4.82a7.3,7.3,0,0,1,1.64.7,6,6,0,0,1,1.06,1.41l.58,1,.94,1.29,1.52.94.83,1.4.23,1.41.82,1.17h1.88l3,.59L125.05,41l2.7.23,1.17,1.06L130,44.07l1.18,2.11.7,3.28.12,2.81.82,2.23,3.39.47,3.4,1.29,3.29,1.05,2.93,1.52,2.46,2.7.93,2,1.29,1.53.71,2.69,1.29,2.93.7,1.76,1.41,2.23,2.1,1,1.06.94.59,1.87.58,1.88,2.11,2,.59,1.53h1.17V80.16l2-.93L166,79V76.18l1.06-.7,1.05-.71.82-2.81V64.34l.71-10.43V48.17ZM146,12.35l-3.76,5.14,2.92-9.44-.69-2.78,1.67,2.22ZM149.91,30l-2.09.14.14-1.95.56-6.67V10.69l2.22,4.58.42,10.84Zm9.44,22.78-1.66.84.69-8.2s-1-10-1.39-12.58l-.14-.62a2.55,2.55,0,0,1,.14.62L159.63,45Zm2.09-21V27.36l-1.39-8.2,2.64,10.56Zm1,44.19,1.81-10.42.55,4.72Zm3.2-21.4-1,3.06.42-20,1.11,11.12Z"/>
    <polygon points="59.07 180.52 64.09 178.58 66.2 176.63 64.25 179.88 60.85 181.33 59.07 180.52"/>
    <path d="M9.31,134.94l-2.66-4-2.41,2.65-.73,3.14.25,3.86L5,144.36l2.54,1.81,1.57-.73.12-1.08.12-1,1.81-.24.12-3.5Zm-1,7.85L6.65,140l.85-5.92L8,139.41l1.33,2.65Z"/>
    <path d="M11.64,152.84l-5-.12-1.55,3.22L5,160.24,6,165.38l2.27,1H10l.83-1.08.24-3.7.12-3.23L12.24,155Zm-1.55,8.36-.84,2.51-.72-3.35.24-3.1,1.08-1.08.24,2.27Z"/>
  </g>
</svg>
