<svg id="Layer_1" data-name="Layer 1" xmlns="http://www.w3.org/2000/svg" width="314.75" height="385.17" viewBox="0 0 314.75 385.17">
  <g id="Shards_2" data-name="Shards 2">
    <polygon points="275.53 385.17 244.75 375.99 228.54 374.37 237.19 366.27 230.71 360.33 238.27 352.23 245.29 350.61 248.53 340.34 256.63 336.56 259.87 325.22 278.23 322.52 286.34 322.52 275.53 385.17"/>
    <polygon points="237.79 329.76 234.25 336.28 230.17 336.83 233.44 331.39 229.36 329.76 237.79 329.76"/>
    <polygon points="206.79 331.66 189.38 332.48 189.11 335.47 183.68 334.38 184.76 340.36 181.5 342 171.71 335.74 170.08 337.92 176.06 344.17 177.96 347.98 175.25 352.87 174.7 359.4 174.43 367.01 169.81 367.28 140.44 363.48 126.03 361.85 117.6 362.39 107.81 361.85 109.44 365.11 102.1 362.12 82.79 363.48 70.83 364.56 59.68 365.92 52.33 366.47 47.17 366.74 46.08 362.66 39.28 362.66 35.47 358.04 33.57 359.67 34.11 363.75 35.47 366.74 37.65 369.46 35.2 371.36 31.12 372.72 25.41 371.91 21.33 368.37 21.06 363.48 15.89 364.29 15.35 370.82 11.82 367.56 5.83 365.11 13.45 359.4 19.97 356.95 24.32 354.77 28.13 351.78 35.75 350.7 38.19 349.06 39.55 353.14 43.63 347.98 46.08 350.7 48.53 353.14 52.88 352.06 51.52 345.26 62.4 343.08 69.19 341.18 79.25 340.09 82.25 341.72 84.69 341.18 85.24 338.46 97.47 337.64 101.55 334.65 107.26 334.65 108.62 337.64 110.53 334.38 125.21 335.74 128.75 337.64 132.01 336.56 134.18 334.65 152.4 333.29 168.72 332.2 175.52 330.03 206.79 331.66"/>
    <path d="M285.65,266.67c.27-1.63-2.45-23.39-2.45-23.39L281,228.06l-5.16-19.31-4.08-16.32.54-8.15-2.17,6-3,.54-2.45-1.36-1.09,2.18-7.88-.82-3.54,4.08-41.6,19-19.31,9.51L185,230.5l9.25-1.08-2.45,4.89,4.35.82-.27,6.52v5.44l7.07,7.62-2.72,16,22.57-2.45L222,271l15.5-.81,27.19-1.09Z"/>
    <polygon points="170.35 278.64 175.52 277.28 168.99 268.57 168.45 263.95 177.69 253.62 172.25 254.43 164.64 258.79 161.1 258.51 160.56 242.2 164.37 238.66 152.4 243.83 141.53 248.45 127.39 256.34 125.21 255.25 122.49 257.97 110.8 265.04 101.28 272.11 97.75 271.84 93.67 274.83 86.6 277 76.81 286.52 70.55 294.41 69.47 296.58 72.46 297.94 65.11 303.93 80.89 297.4 100.47 293.86 124.67 289.79 141.53 284.35 139.89 279.18 144.79 282.17 157.3 279.72 164.64 278.64 166.54 275.1 170.35 278.64"/>
    <path d="M312.59,39.47C310.08,38,294.3,24,294.3,24l-5.39-1.43-6.1,9.68L280.3,28V21.17l-2.15-2.87-5-6.46-11.85-6.1-3.94.36-3.23-3.23L250.52,0l-6.46,15.43L229.71,37.68,220,58.84l2.15,10L217.87,66l-.72,8.25-6.1-2.15-.36,11.48,2.87,11.13-5.38-9L207.82,98l-5.38-1.08-1.08,6.1-6.1,2.51-1.79,8.25-3.95,9.69.72,7.89-6.46,1.44L178,141.37,171.58,155l-3.23,6.81-14,35.88L168,186.58l.72-4,10.41-7.17,14.35-13.64-.36-3.94,12.56-5.39.72-8.25,8.25-5.38-1.44-3.59,19.74-13.63.72-5.74L243,108l23.32-18.3,19-19,5-2.87,5,1.43.36-5.74,8.61-10-1.43-5.38,7.53-2.51,4.31-.72Z"/>
    <path d="M135.51,23.31c-2-.28-13.19-.28-13.19-.28l-16.55.28-16.55.28.56,8.13.28,7.58,3.65,2.8L96,44.91l-.28,3.64-2.53,1.13-3.64-.56,3.64,4.2L96,55.85l1.12,3.65-3.36,1.4L90.9,62.3l7,.56,5.61-5.33,3.37-2.24,2.25,2.8-.57,4.21-2.52,2-3.37-2.53L101,66.23,99.32,78.57l3.08.56.84,2.81L103,85,99,85.31l-.85,2.52,1.69,3.37,1.4,2.8L99.6,96.25l-3.93.84,5.61,1.68,2-3.08,1.13-3.09,3.64.56L109.42,96l4.49.56,4.48,2,4.49,4.49,3.09,5.33,2.52-7.57-1.68-2.81,2.24-4.49L131.58,89l.84-4.49-2-3.64-2-1.41,4.21-1.12.84-5.33-1.12-3.65-3.65-.84-1.4-9.25,6.17-1.41.28-3.92,1.41-3.65Z"/>
    <polygon points="104.93 104.94 104.09 102.7 104.65 99.89 108.58 100.74 111.94 103.26 108.29 103.26 104.93 104.94"/>
    <polygon points="118.67 105.5 121.76 106.91 121.76 110.56 122.32 113.92 124.57 115.89 124 119.25 123.16 122.62 121.76 125.14 122.88 128.51 122.32 131.03 121.2 133.56 119.8 136.37 118.67 140.01 118.67 144.5 118.11 150.11 115.59 153.48 113.06 153.76 108.86 153.76 106.05 155.44 103.53 164.42 102.68 150.95 104.65 147.87 108.01 147.59 109.42 143.66 111.38 140.29 115.31 138.05 117.27 135.24 117.55 130.75 113.62 131.88 111.66 129.91 113.62 125.98 116.99 123.18 118.95 119.81 119.52 116.17 117.83 111.4 118.67 105.5"/>
    <polygon points="104.37 181.81 102.68 202.85 106.61 190.51 108.58 182.09 110.54 179.01 107.17 179.57 104.37 181.81"/>
    <polygon points="7.48 85.72 0.88 86.16 0 89.02 1.54 91.22 4.18 92.98 5.72 90.12 7.48 85.72"/>
    <path d="M48.21,87.92H39.62l-4,.44L35,93l-3.52-1.76L28,90.12H19.81l-2.2,4.18-2.42,4-4.84-3.52L8.58,97.6l-2.64,2.64L3.3,99.58,3.08,106l1.54,3.3.22,7.26,2,1.54,1.54-1.76,2.43-.88,3.52,3.08,3.52,2.86.88,4.85L17.17,128l-2.42-4-1.1-2-1.54-2.42H9.24l.67,6.17,1.32,3.74,1.32,2.42v3.52l-.22,4.18,2.2,1.76,3.74,4.19L17.39,148l-2,1.76-3.52-3.3v8.8l.44,7.27s.22,8.58.22,9.46.66,20.69.66,20.69l-1.32,11.45.22,10.56-.22,9.69,2.86,4.4,1.54,5.06,3.3-3.3.66-4.62v-7.7l-1.76-4.41L18.05,211l4.18,4,.22-3.74a27.52,27.52,0,0,0,1.32-4c0-.66-1.1-5.5-1.1-5.5l4.84,2.42,2.65,1.32,3.08-3.52,1.54-2.86L34.56,196l4,.44,2.86-13.64,1.76-15.19L46,148.23l.66-20.91,1.55-23.12Z"/>
    <polygon points="28.39 239.8 27.07 242.88 26.19 249.04 26.41 252.34 28.61 247.5 29.94 241.78 28.39 239.8"/>
    <path d="M20.47,246l-.66,6.6-.44,6.61-1.32,3.52-1.32-6.6-.66-7L15.85,246,13,251.9V257l-.44,6.6,1.32,4,2.42,2s2-.66,2.42-1.76,2.64-6.6,2.86-7.7S20.47,246,20.47,246Z"/>
    <polygon points="18.93 282.06 17.83 288.44 12.99 288.66 10.79 294.39 10.79 304.29 9.46 313.76 8.59 321.68 13.87 312.66 18.05 297.91 20.03 288.66 18.93 282.06"/>
  </g>
</svg>
