<svg id="Layer_1" data-name="Layer 1" xmlns="http://www.w3.org/2000/svg" width="342.18" height="705.98" viewBox="0 0 342.18 705.98">
  <defs>
    <style>
      .cls-1 {
        stroke: #fff;
        stroke-miterlimit: 10;
      }
    </style>
  </defs>
  <g id="Legit_Shards" data-name="Legit Shards">
    <polygon class="cls-1" points="340.84 224.14 315.47 229.88 303.76 166.76 280.34 161.02 272.31 144.21 291.87 155.53 282.09 139.85 302.53 154.66 312.31 166.85 313.19 154.66 320.3 154.66 310.53 143.34 323.86 146.82 315.86 133.76 327.41 137.24 328.3 117.21 336.3 126.79 336.3 179.04 326.52 179.04 335.41 191.23 336.3 210.39 330.08 210.39 322.97 206.04 322.08 213 340.84 224.14"/>
    <polygon class="cls-1" points="335.41 111.11 329.19 105.02 336.3 103.28 327.41 91.96 335.41 92.83 335.41 111.11"/>
    <polygon class="cls-1" points="311.42 0.52 271.42 2.26 269.65 12.71 280.31 44.06 294.53 67.57 294.53 54.51 297.75 46.37 283.32 8.83 285.68 8.83 300.37 45.86 324.29 64.23 317.65 29.73 322.96 35.59 311.42 0.52"/>
    <polygon class="cls-1" points="265.62 8.97 255.93 11.82 270.47 27.33 265.62 8.97"/>
    <polygon class="cls-1" points="253.34 12.46 282.1 60.89 260.45 35.25 246.88 37.78 249.15 50.76 252.38 61.84 256.58 71.97 257.55 80.2 257.55 86.85 241.39 56.14 238.49 50.76 235.25 46.01 233.96 39.36 230.73 33.98 227.5 30.18 225.89 26.07 253.34 12.46"/>
    <path class="cls-1" d="M212.8,67.69l-10.17-3.8-5.33-.47L175,79.09l1.93,12.34s-5.81-7.59-7.26-7.12-20.84,12.35-20.84,12.35l.48,4.27-5.33.95-.48,8.55,3.39,2.85,5.82-1v7.12L165.32,137l13.56,15.19,6.79,8.55,23.74,29.44L254,233.89l6.3-3.33,5.82-.95,8.72-1,7.75-2.85-10.17-25.16-3.4-5.23-.48-5.69L223.46,84.31l-5.33-1.9L218.62,72Z"/>
    <polygon class="cls-1" points="257.87 236.74 265.14 235.31 266.11 242.91 269.98 246.23 277.25 246.71 281.61 251.93 284.04 255.25 283.55 258.58 289.37 262.85 294.21 271.4 300.03 279.47 301.48 285.17 297.61 288.02 293.73 287.07 293.24 280.89 278.71 266.18 280.4 260.36 272.46 260.15 268.49 256.47 264.74 255.17 268.05 249.98 266.94 246.53 257.87 236.74"/>
    <polygon class="cls-1" points="279.74 230.96 267.38 234.63 267.16 240.69 269.59 243.71 276.65 244.36 279.52 245.23 284.37 252.15 286.14 254.53 285.92 257.98 292.54 261.44 292.1 252.79 287.24 248.04 288.57 240.9 284.15 239.17 279.74 230.96"/>
    <polygon class="cls-1" points="121.34 151.95 114.96 155.86 110.97 154.69 110.97 158.99 102.98 160.55 101.79 166.81 95.8 167.59 99.39 187.93 100.19 192.23 105.78 196.14 107.77 200.83 106.18 203.57 100.19 203.57 97 204.74 237.08 278.66 232.69 271.23 225.51 269.27 220.32 266.53 215.13 261.45 195.18 250.11 179.61 243.46 177.22 239.94 181.21 237.59 177.62 235.64 174.02 236.42 171.23 238.77 168.04 237.2 164.44 235.25 160.85 231.34 154.87 230.16 136.11 214.13 137.31 203.57 147.28 194.97 147.28 201.22 141.7 207.48 149.28 206.7 146.09 212.57 152.87 212.96 163.25 224.69 185.2 225.08 191.19 221.17 210.74 231.34 209.14 225.86 121.34 151.95"/>
    <polygon class="cls-1" points="229.89 250.55 226.44 244.01 222.13 241.06 219.12 238.52 214.81 237.26 210.93 236.2 208.57 233.46 206.2 230.93 191.55 223.75 187.46 225.86 189.61 227.97 191.98 230.29 191.77 232.19 191.77 235.57 192.84 238.31 195.21 239.37 195.21 243.17 198.44 243.17 198.23 239.37 196.72 236.2 196.07 233.25 200.17 233.67 203.61 233.88 203.83 236.84 204.69 238.52 207.06 238.74 210.72 238.74 212.87 239.16 216.53 244.64 220.63 246.54 223.86 248.86 226.01 250.76 229.89 250.55"/>
    <polygon class="cls-1" points="188.54 234.09 188.32 237.89 187.89 240.42 189.4 243.59 189.18 245.49 185.95 243.17 184.45 240.21 184.01 235.57 186.17 233.46 188.54 234.09"/>
    <polygon class="cls-1" points="94.64 183.24 95.93 188.93 94.86 192.73 90.98 189.78 91.2 184.5 92.27 179.22 94.64 183.24"/>
    <polygon class="cls-1" points="224.29 254.14 235.27 262.37 240.22 261.95 242.38 261.74 243.88 259.63 250.78 259.84 252.07 264.48 246.68 265.75 247.33 268.07 249.27 269.76 256.38 269.55 259.61 270.39 258.53 273.98 260.25 277.14 268 276.93 272.74 282.84 283.51 291.28 284.37 295.08 272.1 293.39 266.5 292.76 265.2 289.17 261.11 287.9 257.45 282.84 254.44 278.41 254.65 275.67 249.48 274.82 246.68 276.09 240.87 275.88 238.72 275.67 238.07 272.5 245.82 272.92 245.39 269.97 243.67 268.28 235.49 268.07 224.29 254.14"/>
    <polygon class="cls-1" points="242.59 280.31 246.9 286.43 251.64 290.01 257.24 290.23 256.59 286 249.05 281.36 242.59 280.31"/>
    <polygon class="cls-1" points="255.06 349.57 266.19 349.57 266.94 341.57 262.48 335.03 245.41 328.49 218.69 317.58 207.56 311.03 194.2 308.12 190.49 302.3 180.1 298.67 102.18 268.12 92.53 266.67 82.88 261.58 71.75 260.12 64.33 261.58 56.9 257.21 27.22 251.4 13.86 249.22 20.54 255.03 15.34 257.94 7.18 251.4 4.21 256.49 10.15 260.85 4.21 267.4 0.5 278.31 0.5 291.39 4.21 296.49 5.7 326.3 52.45 327.03 114.79 327.03 144.48 327.03 167.49 328.49 174.91 327.03 206.82 331.39 228.34 337.94 212.76 328.49 243.93 337.94 253.58 340.85 261 343.76 255.06 349.57"/>
    <polygon class="cls-1" points="99.21 343.76 91.04 345.94 78.43 348.85 78.43 342.3 85.85 343.76 91.79 340.85 99.21 343.76"/>
    <polygon class="cls-1" points="260.26 361.21 229.83 351.76 203.11 343.76 177.88 340.12 200.14 337.21 214.98 340.85 243.93 348.85 241.7 343.76 249.12 348.12 255.06 354.67 260.26 361.21"/>
    <polygon class="cls-1" points="1.98 331.39 6.44 340.12 7.18 350.3 6.44 359.03 6.44 369.94 7.92 378.67 13.86 384.48 13.12 393.21 13.86 400.48 21.28 404.85 31.67 403.39 48.74 399.75 69.52 393.21 76.94 391.03 69.52 382.3 49.48 375.76 34.64 375.03 25.73 375.03 35.38 368.48 17.57 366.3 19.05 356.85 68.04 350.3 19.8 346.67 19.05 339.39 13.86 333.57 1.98 331.39"/>
    <polygon class="cls-1" points="62.84 361.94 82.14 361.21 94.75 363.39 111.82 363.39 124.44 361.21 139.28 361.94 161.55 364.12 133.35 367.76 122.21 366.3 112.57 369.21 99.21 368.48 85.11 368.48 66.55 367.76 62.84 361.94"/>
    <polygon class="cls-1" points="191.98 354.67 203.11 351.03 191.24 348.85 191.98 354.67"/>
    <polygon class="cls-1" points="111.82 339.39 134.83 335.03 151.9 336.48 162.29 340.85 150.42 342.3 135.57 344.48 111.82 339.39"/>
    <polygon class="cls-1" points="245.41 362.67 228.34 358.3 216.47 356.12 200.88 356.85 183.07 360.48 172.68 374.3 182.33 375.03 191.98 369.21 203.11 368.48 216.47 369.21 245.41 362.67"/>
    <path class="cls-1" d="M126.67,415l-3,6.54L120,428.12,113.31,431l-5.94,4.36L91,433.93,79.17,431l-5.94,5.09,3.56.5,4.32-.2L80.49,439l-1,2.63a8.25,8.25,0,0,1-3.29,1.41,15.54,15.54,0,0,1-3.29,0l-2.48-.2,1.65,3,.62,2.83-.82,1.61-3.3-.6a11.4,11.4,0,0,0-2.26-2c-.62-.2-1.44-1.82-1.44-1.82l-1.44-3.23v-3.83l3.29.41,2.47-2.63L65.88,434l-1.65-1.61,10.91-4H80.7l1.85-2.82,5.56-1,2.68,2.42,1.64-3.63,11.94-3Z"/>
    <polygon class="cls-1" points="62.38 449.33 65.26 449.53 66.7 451.35 67.52 454.38 67.73 468.5 65.88 470.51 63.41 469.5 62.79 465.67 62.17 462.24 60.73 459.82 59.29 457.6 59.08 454.38 60.32 451.55 62.38 449.33"/>
    <polygon class="cls-1" points="66.49 472.93 67.73 474.75 65.88 476.57 63.61 475.56 64.02 473.54 66.49 472.93"/>
    <polygon class="cls-1" points="87.08 459.22 89.14 460.43 87.7 462.04 85.84 461.84 85.23 460.43 87.08 459.22"/>
    <polygon class="cls-1" points="95.11 454.78 97.99 455.99 96.55 457.6 94.7 457.81 92.43 456.39 95.11 454.78"/>
    <polygon class="cls-1" points="129.11 437.63 134.48 437.05 137.16 434.13 132.09 434.13 126.42 437.05 129.11 437.63"/>
    <path class="cls-1" d="M75.72,481.48h6a58.38,58.38,0,0,1,5.07-2.92c.9-.3,9.85-4.39,9.85-4.39l11.33-5.85,12.83-4.38,17.89-7,6-3.22,7.46-3.51,5.07-5.26,7.75-.88,11-.58-11-1.75,39.38-19.59,14.91-8.47,7.46-6.44-4.77.59-5.07,2.92L208.16,416l-9.85,4.68-15.21,6.43L173,431.79l-13.42,5.84-4.18,2.63-4.18,2.34-5.66,1.17-2.39,1.76h-6.26l-1.5,2L120.46,449l-4.77,2.34L110,454l-4.48,2.63-11.63,8.19L81.68,473l-3,2.92-3,.59Z"/>
    <polygon class="cls-1" points="157.15 425.06 172.06 420.39 188.47 413.08 210.54 404.31 225.76 395.83 233.21 389.99 224.26 392.91 215.32 397.88 200.7 404.9 186.08 410.16 170.27 417.17 163.41 419.8 157.15 425.06"/>
    <polygon class="cls-1" points="184 437.93 186.38 440.26 183.4 442.31 181.01 440.56 184 437.93"/>
    <polygon class="cls-1" points="188.77 445.23 194.14 446.11 200.4 444.06 209.05 439.68 221.28 433.54 230.53 429.45 233.51 424.77 239.78 421.26 243.36 419.22 246.64 419.22 258.27 409.87 254.69 408.99 247.83 412.79 238.88 417.46 228.44 423.31 213.53 425.36 213.23 427.4 208.16 429.45 188.77 445.23"/>
    <polygon class="cls-1" points="190.56 434.42 193.84 434.71 192.35 437.34 189.96 437.05 190.56 434.42"/>
    <polygon class="cls-1" points="307.49 377.42 308.38 381.22 285.42 395.83 298.24 379.17 302.12 375.67 308.09 374.79 307.49 377.42"/>
    <polygon class="cls-1" points="296.15 376.54 286.01 384.14 283.03 385.9 277.66 389.7 269.01 392.91 264.54 395.25 261.25 397.88 256.18 399.93 252.9 402.85 249.32 402.56 252.9 397.88 255.88 394.96 260.36 394.67 262.45 390.87 266.03 390.28 271.39 388.53 274.98 384.44 278.85 385.02 280.94 379.47 288.4 378.88 289.89 373.62 296.15 376.54"/>
    <polygon class="cls-1" points="268.41 405.48 271.69 406.06 272.59 401.68 277.66 401.68 277.66 398.47 274.68 397.59 271.1 398.17 266.92 399.05 267.82 403.14 268.41 405.48"/>
    <polygon class="cls-1" points="263.34 403.14 264.83 405.77 261.25 407.82 258.87 406.06 259.76 402.56 263.34 403.14"/>
    <polygon class="cls-1" points="247.23 393.79 247.23 396.71 244.55 397.3 243.65 394.37 247.23 393.79"/>
    <polygon class="cls-1" points="252.6 389.7 254.99 391.74 251.71 392.62 249.32 390.57 252.6 389.7"/>
    <polygon class="cls-1" points="170.73 571.26 162.87 568.69 154.34 569.34 153.03 573.83 147.78 573.19 145.82 577.69 143.17 577.74 141.09 578.19 140.86 579.99 141.09 581.8 145.01 582.47 148.23 582.47 148.46 585.18 150.99 584.5 150.99 586.08 154.22 585.86 155.37 588.34 159.28 586.76 163.66 582.92 166.88 582.02 169.87 579.09 171.25 574.13 170.73 571.26"/>
    <polygon class="cls-1" points="133.27 581.8 137.87 582.7 140.17 584.28 141.32 587.21 138.33 588.34 134.65 587.44 131.88 586.99 129.35 583.38 133.27 581.8"/>
    <polygon class="cls-1" points="143.86 591.95 146.85 589.24 154.45 590.14 153.29 596.23 149.61 598.04 147.08 599.17 145.24 600.52 142.25 600.52 139.71 598.04 142.01 593.75 143.86 591.95"/>
    <polygon class="cls-1" points="127.28 576.16 127.28 573 123.14 573.9 98.04 540.51 89.3 539.39 88.61 541.87 95.05 542.09 124.06 578.64 127.28 576.16"/>
    <polygon class="cls-1" points="172.86 568.71 177.24 568.04 177.47 563.98 179.08 561.49 182.53 561.04 184.6 557.88 188.06 554.5 190.82 552.7 193.58 549.99 189.21 549.76 191.97 541.42 202.1 528.33 209.93 521.79 210.85 523.6 214.76 522.24 214.99 517.28 218.45 517.5 219.37 512.54 224.89 512.77 225.81 517.05 224.2 519.53 220.29 519.08 218.91 526.3 212.92 527.88 211.31 534.87 207.4 536 197.5 549.31 194.5 553.37 188.06 559.01 185.29 561.49 183.22 566.68 179.54 569.39 175.63 573.22 174.01 573 172.86 568.71"/>
    <polygon class="cls-1" points="185.06 513.89 187.6 515.25 187.37 518.63 183.91 518.18 182.99 515.92 185.06 513.89"/>
    <polygon class="cls-1" points="177.24 506.45 178.62 509.16 176.09 510.74 173.78 510.51 173.55 506.9 175.63 505.1 177.24 506.45"/>
    <polygon class="cls-1" points="184.84 502.16 186.91 504.42 186.68 506.68 183.91 507.13 182.07 505.77 182.76 503.07 184.84 502.16"/>
    <polygon class="cls-1" points="194.73 510.51 197.04 512.54 193.81 515.02 191.05 513.22 192.2 511.19 194.73 510.51"/>
    <polygon class="cls-1" points="201.87 514.35 244.46 473.74 241.7 474.19 201.87 510.51 201.87 514.35"/>
    <polygon class="cls-1" points="215.52 511.91 215.91 508.05 217.49 505.15 219.66 505.73 219.85 508.44 218.67 510.75 215.52 511.91"/>
    <polygon class="cls-1" points="223.99 505.93 223.99 502.84 225.76 502.26 228.32 502.45 228.52 504.57 230.49 503.42 231.28 498.2 233.05 494.54 234.82 491.45 236 488.94 239.55 489.13 239.35 490.49 241.52 490.29 243.49 487.98 243.69 485.47 239.75 485.08 240.93 482.76 247.23 482.76 247.03 481.41 246.84 479.29 250.38 478.52 252.75 476.39 257.28 473.11 261.02 469.83 264.57 468.48 266.54 464.81 270.67 462.88 283.87 449.37 266.54 474.85 259.84 481.03 253.14 488.17 251.76 491.06 248.81 492.42 240.14 498.4 236.6 501.49 234.63 505.93 232.26 507.66 224.78 508.05 223.99 505.93"/>
    <polygon class="cls-1" points="283.48 445.9 287.02 445.51 289.19 442.04 301.99 424.86 296.08 425.25 292.54 428.53 286.23 428.72 285.44 422.55 293.72 421.58 291.35 418.49 289.98 415.79 293.91 415.6 298.44 418.88 304.16 420.62 301 417.91 310.46 408.84 315.38 408.07 315.19 413.09 308.29 423.7 288.99 447.44 286.82 449.57 284.85 448.02 283.48 445.9"/>
    <path class="cls-1" d="M316,421.58c-.2.77-16.94,29.53-16.94,29.53l2.56,2.32,2.56-3.28.59-2.9,3.15-1.35,2.36-3.48,2.76-4.24,3.55-2.32,1.37-9.07Z"/>
    <polygon class="cls-1" points="336.85 427.95 330.35 433.74 331.14 437.21 333.11 439.72 336.07 439.72 336.85 427.95"/>
    <polygon class="cls-1" points="333.51 412.31 330.75 405.17 328.38 405.37 330.16 401.31 331.73 392.05 335.48 398.03 333.51 412.31"/>
    <polygon class="cls-1" points="154.55 501.5 166.11 490.17 172.17 484.77 179.33 481 184.84 476.68 190.34 470.2 197.5 465.35 204.66 464.81 236.6 438.91 253.13 425.95 267.99 422.18 280.11 422.72 281.76 427.03 282.86 432.43 291.12 431.89 284.52 439.45 274.05 452.4 262.49 459.95 255.33 468.05 248.72 470.2 237.71 469.13 218.43 485.86 205.21 495.03 191.45 495.03 181.53 495.57 171.07 497.19 163.36 501.5 154.55 501.5"/>
    <polygon class="cls-1" points="331.86 479.92 328.2 474.55 325 481.26 312.67 470.97 308.11 479.47 303.54 475.45 301.25 480.37 296.69 484.84 291.21 488.43 293.49 476.79 297.14 471.87 299.43 465.15 301.71 458.89 297.14 458.89 290.75 472.31 286.18 484.4 284.81 491.56 278.42 500.96 269.29 516.17 263.35 528.25 264.72 534.97 273.85 531.84 279.79 528.7 285.27 528.7 284.81 534.52 278.42 538.55 259.24 547.5 262.89 549.29 257.87 568.98 261.52 572.11 262.44 587.78 266.09 574.35 270.66 581.06 274.77 568.09 278.42 572.56 281.16 565.85 286.18 566.3 288.47 554.66 290.29 563.16 296.69 560.92 296.69 538.55 301.25 551.97 304 534.07 308.56 556 312.22 532.28 315.87 542.58 321.81 525.12 326.38 517.07 331.86 479.92"/>
    <polygon class="cls-1" points="323.63 672.36 318.61 649.09 314.5 645.96 316.33 634.77 319.98 621.79 320.89 606.13 315.87 605.68 317.7 598.07 323.18 597.62 325.92 602.99 323.63 619.11 322.26 633.43 325.46 664.75 327.29 675.49 323.63 672.36"/>
    <polygon class="cls-1" points="303.08 602.1 299.43 602.1 302.63 594.49 303.08 602.1"/>
    <polygon class="cls-1" points="311.3 597.62 309.02 592.7 313.13 589.57 311.3 597.62"/>
    <polygon class="cls-1" points="311.3 607.47 310.85 611.5 306.74 611.05 308.11 607.02 311.3 607.47"/>
    <path class="cls-1" d="M257.41,588.22c0,3.58-.91,22.83-.91,22.83l-2.74,14.77-4.57-.9-1.37,31.78-.91,6.71L242.8,646l-3.66,23.72-4.11.89V651.33l-5,27.74-3.66-20.58-2.28-10.74L225,629.4l8.22-14.32,3.66-9.85.91-10.74,2.74-8.5,4.57-2.69,2.74-6.71,4.11,4.92h4.57Z"/>
    <polygon class="cls-1" points="328.66 680.42 330.03 690.71 331.4 700.11 330.49 705.03 311.3 704.14 291.21 704.58 275.68 705.03 267.46 705.48 255.13 700.11 248.28 700.56 233.21 699.66 221.33 694.74 210.37 689.37 210.37 685.34 218.59 685.79 232.75 687.58 248.28 692.95 260.15 693.39 271.57 693.84 276.59 682.21 281.62 679.07 284.36 670.57 286.18 677.28 291.21 669.23 292.58 679.97 297.6 667.44 299.88 680.42 303.08 686.24 309.48 680.86 314.96 680.86 328.66 680.42"/>
  </g>
</svg>
