<svg id="Layer_1" data-name="Layer 1" xmlns="http://www.w3.org/2000/svg" width="32" height="60" viewBox="0 0 32 60">
  <defs>
    <style>
      .cls-1 {
        fill: none;
      }
    </style>
  </defs>
  <g>
    <path class="cls-1" d="M19.56,42.73a9.12,9.12,0,0,0,9-9c0-3.57-1.93-6.21-4.9-8.08a61.88,61.88,0,0,0-4.83,4.27,27.5,27.5,0,0,0-6.9,9.95C13.75,42.25,17.46,42.73,19.56,42.73Z" transform="translate(-2.76 -2.59)"/>
    <path d="M17.26,44.82a18,18,0,0,0,12.32-4.4c3.27-3.1,4.77-6.43,4.77-9.91s-2.22-6.37-6-8.47l2.11-1.5H25c-.91-.34-1.86-.64-2.87-.91C24.28,17,30.71,10.15,33.93,6.45H21.82c-3.17,0-6,0-8.15-.22C13.62,5,13.56,4,13.56,3l-1.12-.38c-.27,3-.7,9.65-1.18,12.65l1.28-.32a17.13,17.13,0,0,1,1-3.59,18.94,18.94,0,0,1,5.89-.7h7.93c-2.13,2.68-6.1,7.1-8.67,9.91-3.43,0-7,0-12.63-.16a29.84,29.84,0,0,1-.27-3.81L4.58,16.2c-.21,5.14-1.34,11.25-1.82,15.64L4,31.58a42.53,42.53,0,0,1,1.4-5.2c1.28-1.07,7-1.88,11.31-2L21,24.27l1.36,0v.11l-.46.34a84.71,84.71,0,0,0-7.53,6.15c-5.57,5.41-9.64,11-9.64,17.2,0,6.59,5,10.88,13.82,10.88a21.4,21.4,0,0,0,5.9-.75c.21,1.39.27,2.14.37,3.43L26,62a92.53,92.53,0,0,1,1.12-13.61l-1.28.27c-.16,1-.86,4.93-1.24,6.54-.8.69-2.14,1.39-5,1.39-3.64,0-8.74-3-8.74-11.47,0-.4,0-.8.06-1.2A25.39,25.39,0,0,0,17.26,44.82Zm1.52-14.9a61.88,61.88,0,0,1,4.83-4.27c3,1.87,4.9,4.51,4.9,8.08a9.12,9.12,0,0,1-9,9c-2.1,0-5.81-.48-7.68-2.86A27.5,27.5,0,0,1,18.78,29.92Z" transform="translate(-2.76 -2.59)"/>
  </g>
</svg>
