<svg id="Layer_1" data-name="Layer 1" xmlns="http://www.w3.org/2000/svg" width="52.12" height="51.85" viewBox="0 0 52.12 51.85">
  <defs>
    <style>
      .cls-1 {
        fill: #282828;
      }
    </style>
  </defs>
  <g id="new_nav" data-name="new nav">
    <path class="cls-1" d="M25.56,7.48V3.33A22.85,22.85,0,0,0,3.24,25.67H7.39A18.68,18.68,0,0,1,25.56,7.48Z"/>
    <path class="cls-1" d="M25.56,49V44.87A18.7,18.7,0,0,1,7.39,26.67H3.24A22.84,22.84,0,0,0,25.56,49Z"/>
    <path class="cls-1" d="M26.56,44.87V49A22.86,22.86,0,0,0,48.93,26.67H44.78A18.69,18.69,0,0,1,26.56,44.87Z"/>
    <path class="cls-1" d="M26.56,3.33V7.47a18.7,18.7,0,0,1,18.22,18.2h4.15A22.86,22.86,0,0,0,26.56,3.33Z"/>
  </g>
</svg>
