<svg id="Layer_1" data-name="Layer 1" xmlns="http://www.w3.org/2000/svg" width="52.12" height="51.85" viewBox="0 0 52.12 51.85">
  <defs>
    <style>
      .cls-1, .cls-2, .cls-3 {
        fill: none;
        stroke-miterlimit: 10;
      }

      .cls-1 {
        stroke: #666;
      }

      .cls-1, .cls-3 {
        stroke-width: 0.25px;
      }

      .cls-2, .cls-3 {
        stroke: #fff;
      }

      .cls-2 {
        stroke-width: 0.5px;
      }
    </style>
  </defs>
  <g>
    <line class="cls-1" x1="42.43" y1="27.3" x2="44.05" y2="27.46"/>
    <line class="cls-2" x1="39.08" y1="38.71" x2="37.93" y2="37.57"/>
    <line class="cls-1" x1="36.73" y1="38.71" x2="37.76" y2="39.96"/>
    <line class="cls-1" x1="40.26" y1="37.35" x2="39.01" y2="36.32"/>
    <line class="cls-1" x1="34.02" y1="40.6" x2="34.78" y2="42.03"/>
    <line class="cls-1" x1="41.91" y1="30.5" x2="43.46" y2="30.97"/>
    <line class="cls-1" x1="42.18" y1="34.31" x2="40.76" y2="33.55"/>
    <line class="cls-1" x1="12.37" y1="14.46" x2="13.63" y2="15.49"/>
    <line class="cls-2" x1="14.71" y1="14.35" x2="13.57" y2="13.21"/>
    <line class="cls-1" x1="15.9" y1="13.32" x2="14.87" y2="12.07"/>
    <line class="cls-1" x1="10.37" y1="17.3" x2="11.79" y2="18.07"/>
    <line class="cls-1" x1="18.53" y1="11.63" x2="17.77" y2="10.2"/>
    <line class="cls-1" x1="8.15" y1="23.92" x2="9.76" y2="24.08"/>
    <line class="cls-1" x1="10.49" y1="20.96" x2="8.94" y2="20.49"/>
    <line class="cls-1" x1="21.43" y1="10.47" x2="20.96" y2="8.92"/>
    <line class="cls-1" x1="24.33" y1="8.27" x2="24.49" y2="9.88"/>
    <g id="selected">
      <line class="cls-3" x1="41.73" y1="17.3" x2="40.3" y2="18.07"/>
      <line class="cls-3" x1="41.6" y1="20.96" x2="43.15" y2="20.49"/>
      <line class="cls-3" x1="43.94" y1="23.92" x2="42.33" y2="24.08"/>
      <polyline class="cls-2" points="44.08 25.68 43.91 25.68 42.33 25.68"/>
      <line class="cls-3" x1="36.19" y1="13.32" x2="37.22" y2="12.07"/>
      <line class="cls-2" x1="38.52" y1="13.21" x2="37.38" y2="14.35"/>
      <line class="cls-3" x1="38.47" y1="15.49" x2="39.72" y2="14.46"/>
      <line class="cls-3" x1="30.66" y1="10.47" x2="31.13" y2="8.92"/>
      <line class="cls-3" x1="27.76" y1="8.27" x2="27.6" y2="9.88"/>
      <line class="cls-3" x1="33.56" y1="11.63" x2="34.32" y2="10.2"/>
      <line class="cls-2" x1="26.05" y1="8.19" x2="26.05" y2="9.81"/>
    </g>
    <line class="cls-1" x1="14.33" y1="39.96" x2="15.36" y2="38.71"/>
    <line class="cls-2" x1="14.16" y1="37.57" x2="13.02" y2="38.71"/>
    <line class="cls-1" x1="20.65" y1="43.46" x2="21.12" y2="41.91"/>
    <line class="cls-1" x1="24.22" y1="44.19" x2="24.38" y2="42.58"/>
    <line class="cls-1" x1="18.07" y1="40.6" x2="17.31" y2="42.03"/>
    <line class="cls-1" x1="31.44" y1="43.46" x2="30.97" y2="41.91"/>
    <line class="cls-2" x1="26.05" y1="44.28" x2="26.05" y2="42.66"/>
    <line class="cls-1" x1="27.71" y1="42.58" x2="27.87" y2="44.19"/>
    <line class="cls-1" x1="11.34" y1="33.55" x2="9.91" y2="34.31"/>
    <line class="cls-1" x1="9.66" y1="27.3" x2="8.04" y2="27.46"/>
    <line class="cls-1" x1="8.63" y1="30.97" x2="10.18" y2="30.5"/>
    <line class="cls-2" x1="9.63" y1="25.68" x2="8.01" y2="25.68"/>
    <polyline class="cls-1" points="43.81 29.19 43 29.03 43.81 29.19"/>
    <polyline class="cls-1" points="42.88 32.63 42.12 32.32 42.88 32.63"/>
    <path class="cls-1" d="M41.28,35.84l-.68-.46.68.46,0-.07"/>
    <polyline class="cls-1" points="36.32 41.03 35.86 40.34 36.32 41.03"/>
    <polyline class="cls-1" points="33.15 42.8 32.83 42.03 33.15 42.8"/>
    <polyline class="cls-1" points="29.67 43.89 29.51 43.07 29.67 43.89"/>
    <polyline class="cls-1" points="22.42 43.89 22.58 43.07 22.42 43.89"/>
    <polyline class="cls-1" points="18.95 42.8 19.27 42.03 18.95 42.8"/>
    <polyline class="cls-1" points="15.77 41.03 16.23 40.34 15.77 41.03"/>
    <polyline class="cls-1" points="10.81 35.84 11.5 35.38 10.81 35.84"/>
    <polyline class="cls-1" points="9.21 32.63 9.97 32.32 9.21 32.63"/>
    <polyline class="cls-1" points="8.28 29.19 9.09 29.03 8.28 29.19"/>
    <polyline class="cls-1" points="8.49 22.17 9.31 22.33 8.49 22.17"/>
    <polyline class="cls-1" points="9.6 18.85 10.38 19.17 9.6 18.85"/>
    <polyline class="cls-1" points="11.33 15.83 12.03 16.29 11.33 15.83"/>
    <polyline class="cls-1" points="16.3 11.07 16.77 11.77 16.3 11.07"/>
    <polyline class="cls-1" points="19.35 9.49 19.67 10.27 19.35 9.49"/>
    <polyline class="cls-1" points="22.64 8.53 22.8 9.36 22.64 8.53"/>
    <path class="cls-3" d="M44.07,25.92a17.82,17.82,0,0,0-.47-3.75l-.82.16.82-.16a17.74,17.74,0,0,0-1.11-3.32l-.78.32.78-.32a17.64,17.64,0,0,0-1.73-3l-.7.46.7-.46a18.17,18.17,0,0,0-5-4.76l-.47.7.47-.7a18,18,0,0,0-3-1.58l-.32.78.32-.78a17.3,17.3,0,0,0-3.29-1l-.16.83.16-.83a17.35,17.35,0,0,0-3.4-.34h-.24"/>
    <line class="cls-1" x1="11.83" y1="37.35" x2="13.08" y2="36.32"/>
  </g>
</svg>
