<svg id="Layer_1" data-name="Layer 1" xmlns="http://www.w3.org/2000/svg" width="2.18in" height="3.91in" viewBox="0 0 157.26 281.52">
  <g id="Young_Pull" data-name="Young Pull">
    <path d="M.72,34.91l.86-1.58.29-.5h2l1.44-.07.43-.58v-.65l.36-1.29.5-.29,1.23-.07.21-.65-.21-1.08V25.92l.28-2.52.22-2.24.14-1.94.58-1.87.08-.5.11,4.94,1-1.61.5-3.58,5.31-7.17L9.19,16.54,9.43,15l.72-3.09,1-2.45,1.22-2.3,1.08-1.59L15.55,3,18.29.86,19.51,0,21,.36l.5,1.3L20.88,3l-1.08.87v2l.65.43.63.66,1.09.57.87.86.93,1,2,.43,2.16.72,2.66.5,2.95.15,2.23.21,3.67-.07,1.59-.07,1.15-.79,1.08-.87,2-1.65,1.36-.87v2L47,10.8,47.87,12l1.51.65,1.37.07,1.08-.07,1.87-.58h1.66l1.87.65,1.15,1.59.87,1.94-.07,2.66-.87,1.66-1.94.79-.87.94-.28,1.36L54.71,26l1.51,2.16,1.16,1.22v2.09l-1.16-.22-1.44-.86-1-1.51-1.37-1.23-.72-1.08-.94-1.36L49.38,25l-2.59.5-3-1.72-.72-1.08-.36-1.59-1.37-2.16-1.8-1.87-2.09-.79-2.16-.36-2-.36-1.73.65-1.29.29-1.16.21-2.16.15-1,1.36-.51,2.45.51,2.16,1.29.36,1,.94.94.72,1.15,1.65,1.73.22,1.58,1.15,2.09.79L37.65,30l1.22,1.08L39,35l.14,3.09.07,3.53-.07,2.52L38,44.49l-1.22.58-1.95.14L31,45.35h-1.8l-2.09-.14-1.3-.07-1-1-1.59-.22h-.86l-.72-.72-1.58-.28.14,1.22L21.31,46l2.3,1.08,2.81,3.67-1.22-.29-4-1.22-1.58-1.65-.43.79-.36,1-.43,2.31h-1.3l-1.22-1-1-.58-.22-3.23-.21-2.24V43.48l-.79-2-.22-1.23L12.53,39l-1.44-.22-.58.79L10.08,41l-1,.79L7.2,41.68H5.62l-1.37-.5-1.08-.29-.94-.58L1.15,40.1l-.79-1-.29-.5L0,36.35Zm18.19-2.14,3.22-1.6,3.33-2.47-7,2.71Zm-4.07,2.6,2.34-.25-.86-1.36-3.71-1.11L12,34.13Zm-3.46-9.65,1.48-.37.74-1.86,1.85-4.81,1.49-3L19,12.5,13,18.43l-2,4.82Zm-3,10.64,1-2.6L7.3,34l-.5,2.84Z"/>
    <path d="M31.64,20.68c.36.31,1.09.87,1.45,1.18l1.36.18,1-.09.82-.45.09-.64L36,20l-1.27-.09H33.55l-1.18,1.27"/>
    <polyline points="29.82 18.05 29.19 18.68 29.1 19.68 29.28 20.41 30.07 20.59 32.52 20.86"/>
    <polygon points="108.14 113.09 110.53 122.91 111.86 129.01 112.39 133.26 117.96 148.65 115.83 153.69 104.69 159.26 98.85 157.93 95.94 154.75 91.69 154.48 87.71 157.93 85.85 155.01 82.93 111.5 80.81 111.23 75.24 160.05 72.85 161.91 71.26 156.07 72.32 105.93 74.71 92.13 66.48 120.26 65.16 124.5 65.69 130.07 65.16 134.58 60.91 138.83 51.1 91.87 47.38 82.05 50.3 81.25 55.34 91.6 59.85 91.87 62.77 90.01 57.73 88.95 53.75 82.84 52.42 80.19 56.67 81.25 60.38 80.72 54.81 76.21 57.46 74.36 60.38 74.09 61.44 69.31 63.57 73.03 66.22 74.09 64.36 46.5 61.97 49.41 57.99 55.78 56.93 61.09 56.14 67.19 53.75 70.91 52.69 65.33 55.08 56.05 59.32 49.15 64.36 42.52 72.06 40.66 78.16 43.84 83.47 49.41 86.12 53.66 86.65 56.84 89.57 59.23 92.75 63.21 95.94 67.19 83.73 64.01 82.67 66.39 85.59 73.56 92.75 78.07 98.59 78.86 103.63 79.93 104.96 82.84 105.49 86.83 103.89 91.33 101.24 95.05 98.59 97.44 97.26 99.83 101.24 98.23 104.16 94.25 106.02 90.01 107.88 86.29 110 87.62 108.41 91.6 106.81 95.31 103.89 98.23 101.77 100.62 104.96 100.36 107.61 97.7 109.2 94.78 110.79 91.87 112.12 88.95 121.14 97.44 122.47 100.62 122.2 103.81 119.28 106.46 115.83 110.17 111.86 112.03 108.14 113.09"/>
    <polygon points="62.43 53.37 61.35 66.01 58.28 69.26 60.26 56.8 62.43 53.37"/>
    <polygon points="47.26 65.83 49.97 71.61 52.5 75.76 49.97 74.86 47.62 69.44 47.26 65.83"/>
    <polygon points="57.25 39.06 54.17 39.42 51.81 39.42 47.82 40.15 45.82 42.33 43.82 44.87 42.37 47.05 42.01 44.69 42.92 41.24 45.46 39.06 48.72 37.79 51.99 37.61 55.26 37.79 57.25 39.06"/>
    <polygon points="34.21 1.13 33.87 2.63 33.94 3.94 33.94 4.89 34.55 4.96 34.96 3.8 34.9 2.15 35.1 1.67 34.21 1.13"/>
    <polygon points="36.05 3.92 35.95 5.12 36.05 6.37 36.09 6.87 36.83 6.74 37.52 6.23 38.03 5.58 38.31 5.03 36.23 3.55 36.05 3.92"/>
    <path d="M120.17,151.25c1,.41,5.94,5.12,5.94,5.12l12.5,16,9.64,16,5.94,9,2.66,5.33.41,4.92-.2,2.45-1.85,1.85-1.64,3.69-2.87,4.92-4.91,13.11-4.51,11.68L139,255.36l-1.43,7.17-.82,7-.62,3.69-3.48,5.32-1-4.09,1-11.28,1-10.65v-9.43l.21-7.79,1.43-8,2.87-2.87,3.49-1.23,2.46-1-1.7-.86-3.94.18-3.19-.37-2.82-.75L130.25,219l3.19-.18,3,.56h3.76l2.44-.75-2.63-.75-3.38-.19-2.25-.94-1.5-.94,3.37-.18,4.32.18,3.57-.37,1.5-1.13-3-.19-5.64-.75-2.62-.56,2.25-.94,8.26.19,1.31-1.69-1.69-.75-3.94,1.13-2.25-.38-4.32-.75,9.57-1.69,1.51-1.88-.94-1.5-2.25.94-3.2,1.31,3.2-3.94-2.63.57-3,2.06-1.87,1.31-2.63-.18.37-2.26,2.44-2.62,1.13-2.07-2.81.19L131,202.15l-1.32,2.25-1.87-.93-7.14-6.57-2.44-1.13-10.88-11.08-7.51-6.94,7.7-11.64-2.26-3.19-3.75,2.63L95.15,168l-8.07-.19-2.63-1.12,6.75-.76,5.07-.93,5.63-2.26,9-4.88,4-2.25,3.19-1.88Z"/>
    <polygon points="71.91 186.87 78.59 182.61 80.72 179.57 81.94 173.49 83.76 168.93 87.41 171.97 90.45 174.41 88.32 181.4 85.58 185.65 79.81 187.47 71.91 186.87"/>
    <polygon points="85.67 187.63 82.26 188.25 77.09 188.56 72.95 188.25 80.4 189.18 81.53 189.49 78.33 189.91 74.19 190.01 71.4 190.32 74.09 191.25 78.53 191.56 81.02 191.66 81.02 192.8 77.91 192.91 74.91 192.7 72.84 192.91 71.71 193.01 73.16 193.84 76.26 194.66 78.64 194.66 80.6 194.87 79.67 196.22 77.29 196.32 73.26 196.42 71.19 195.8 70.05 195.91 70.57 197.04 72.64 198.18 75.22 198.7 77.19 198.7 76.16 200.46 72.22 200.46 67.47 200.66 63.12 200.56 60.74 200.87 61.78 201.91 65.19 202.73 68.29 202.84 69.74 203.25 69.33 203.97 66.12 204.59 62.09 204.39 59.81 204.39 61.88 206.15 64.26 206.35 62.91 208.01 61.36 208.01 61.47 209.97 58.78 212.15 54.95 215.77 51.23 220.32 51.54 224.46 50.09 228.7 52.88 228.18 67.78 212.46 75.64 204.49 81.84 196.63 85.67 187.63"/>
    <polygon points="62.76 194.26 64.2 196.32 65.44 198.38 64.23 197.88 63.17 196.71 62.76 194.26"/>
    <polygon points="66.46 191.1 68.5 193.52 69.66 194.1 68.01 194.29 66.46 191.1"/>
    <polygon points="115.96 271.7 120.06 274.69 124.91 277.67 122.34 277.53 119.32 276.39 115.96 271.7"/>
    <polygon points="46.74 231.42 46.18 233.68 44.29 236.13 41.66 237.07 41.66 234.62 46.74 231.42"/>
    <polygon points="29.79 240.65 35.63 240.84 42.03 239.89 45.23 238.39 49.57 232.36 51.83 230.85 48.81 236.31 46.18 241.59 43.54 243.66 38.64 245.92 29.79 240.65"/>
    <polygon points="28.1 245 26.07 247.95 24.59 252.01 26.07 254.41 29.94 253.48 33.45 251.46 38.24 250.9 43.78 250.35 48.76 249.61 53.56 248.13 57.62 245.92 57.25 243.71 53.24 243.74 49.5 243.71 47.43 244.1 46.09 244.28 41.8 246.69 37.68 246.96 32.85 247.05 28.1 245"/>
    <polygon points="142.44 271.13 144.96 270.82 147.47 268.62 149.68 266.1 152.51 267.36 152.51 271.13 152.82 274.28 153.45 277.11 150.62 279.31 146.22 280.26 138.66 281.2 134.89 281.52 142.44 271.13"/>
    <polygon points="151 109.34 150.08 112.69 148.34 114.08 149.38 115 151.23 114.31 151.81 110.49 151 109.34"/>
    <polygon points="153.08 107.03 153.54 108.41 153.78 110.61 153.78 112.57 153.66 114.54 153.43 115.92 152.74 117.31 151.7 117.54 151.7 115.23 152.74 113.84 152.97 111.19 153.08 107.03"/>
    <polygon points="148.5 122.88 147.56 123.82 147.56 125.04 147.94 126.35 148.59 127.61 148.87 128.14 149.81 129.07 151.03 130.67 152.44 131.7 152.53 132.83 151.6 132.27 150.66 131.7 149.72 130.86 148.87 129.54 146.9 126.07 146.9 124.1 147.75 122.32 148.5 122.88"/>
    <polygon points="147.28 130.67 149.91 133.96 148.03 132.92 147.09 132.08 147.28 130.67"/>
    <polygon points="147.37 134.43 146.06 132.83 145.87 131.61 145.4 132.27 145.68 133.58 147.37 134.43"/>
    <polygon points="146.15 135.27 144.74 134.61 144.37 133.11 143.34 133.39 143.99 134.61 146.15 135.27"/>
    <polygon points="152.55 123.5 151.64 125.02 150.22 125.88 149.45 126.49 148.69 126.9 148.29 127.15 149.4 128.42 150.47 128.02 152.09 127.81 152.65 128.52 152.75 129.44 152.6 130 151.79 130 150.88 130 151.03 130.67 151.94 131.22 152.44 131.7 153.52 131.83 153.77 129.18 153.72 125.73 153.52 123.39 152.55 123.5"/>
    <polyline points="115.94 118.07 121.31 113.98 123.38 111.49 124.84 109.62 126.18 107.52 126.93 105.61"/>
    <polyline points="114.43 115.67 119.64 111.7 121.66 109.28 123.08 107.46 124.38 105.42 125.11 103.57"/>
  </g>
</svg>
